<svg width="160" height="37" viewBox="0 0 160 37" fill="none" xmlns="http://www.w3.org/2000/svg">
<g id="aliat">
<g id="Group">
<g id="Capa_1">
<g id="Group_2">
<path id="Vector" d="M44.0859 21.5691V29.9672C44.0859 30.9588 44.2681 31.7682 44.6525 32.4158C45.1989 33.4074 46.1298 33.893 47.4452 33.893C48.7605 33.893 50.0759 33.3669 50.6425 32.2944C50.9461 31.7075 51.108 30.9385 51.108 29.9469V21.5488H52.9697V29.178C52.9697 30.8576 52.7471 32.1325 52.3019 33.0229C51.4722 34.662 49.914 35.4715 47.6071 35.4715C45.3001 35.4715 43.7419 34.662 42.9325 33.0229C42.4872 32.1325 42.2646 30.8373 42.2646 29.178V21.5488H44.1264L44.0859 21.5691Z" fill="#AEA6E1"/>
<path id="Vector_2" d="M55.54 25.2321H57.1185V26.6284C57.5839 26.0416 58.0898 25.6368 58.616 25.3738C59.1421 25.1309 59.729 24.9893 60.3563 24.9893C61.7526 24.9893 62.7037 25.4749 63.2096 26.4665C63.4727 26.9927 63.6144 27.7616 63.6144 28.7735V35.1277H61.9145V28.8949C61.9145 28.2878 61.8336 27.8021 61.6514 27.4379C61.3479 26.8308 60.8217 26.507 60.0528 26.507C59.2838 26.507 59.3445 26.5475 59.0814 26.6284C58.616 26.7701 58.2315 27.0331 57.8875 27.4379C57.6042 27.7616 57.422 28.1057 57.3411 28.4497C57.2601 28.7937 57.2197 29.2996 57.2197 29.9472V35.1277H55.5603V25.2321H55.54Z" fill="#AEA6E1"/>
<path id="Vector_3" d="M66.0625 21.5688H67.7624V23.4508H66.0625V21.5688ZM66.0625 25.2924H67.7624V35.1475H66.0625V25.2924Z" fill="#AEA6E1"/>
<path id="Vector_4" d="M71.0816 25.2319L73.7326 33.286L76.4848 25.2319H78.306L74.5825 35.1275H72.8017L69.1592 25.2319H71.0816Z" fill="#AEA6E1"/>
<path id="Vector_5" d="M85.8538 25.5152C86.5014 25.839 87.0073 26.2639 87.3513 26.7901C87.6751 27.296 87.8977 27.8626 88.0191 28.5304C88.1203 28.9959 88.1608 29.7041 88.1608 30.7159H80.9566C80.9971 31.7278 81.2197 32.5372 81.6649 33.1443C82.1101 33.7514 82.7779 34.055 83.7087 34.055C84.6396 34.055 85.2669 33.7716 85.7729 33.1848C86.0562 32.8408 86.2585 32.4563 86.3799 32.0313H88.0191C87.9786 32.3956 87.837 32.8003 87.5941 33.2455C87.3513 33.6907 87.0882 34.055 86.7847 34.3383C86.2788 34.8239 85.6717 35.168 84.9229 35.3299C84.5182 35.431 84.073 35.4715 83.5671 35.4715C82.3327 35.4715 81.3006 35.0263 80.4507 34.1359C79.6007 33.2455 79.1758 31.9908 79.1758 30.3719C79.1758 28.753 79.6007 27.4984 80.4709 26.5068C81.3411 25.5152 82.4541 25.0093 83.8302 25.0093C85.2062 25.0093 85.2062 25.1712 85.8538 25.495V25.5152ZM86.4407 29.4006C86.3799 28.6721 86.2181 28.1054 85.9752 27.6805C85.53 26.871 84.761 26.4865 83.7087 26.4865C82.6564 26.4865 82.3124 26.7698 81.8065 27.3162C81.3006 27.8626 81.0173 28.5709 80.9971 29.4208H86.4407V29.4006Z" fill="#AEA6E1"/>
<path id="Vector_6" d="M90.3057 25.2319H91.8841V26.9317C92.0055 26.608 92.3293 26.2032 92.8352 25.7176C93.3411 25.2319 93.928 25.0093 94.5756 25.0093C95.2231 25.0093 94.6565 25.0093 94.7374 25.0093C94.8184 25.0093 94.9398 25.0093 95.1219 25.0498V26.8103C95.0208 26.8103 94.9398 26.7698 94.8589 26.7698C94.7779 26.7698 94.6767 26.7698 94.5958 26.7698C93.7661 26.7698 93.1185 27.0329 92.6733 27.5793C92.2281 28.1257 92.0055 28.7328 92.0055 29.4411V35.1275H90.3461V25.2319H90.3057Z" fill="#AEA6E1"/>
<path id="Vector_7" d="M97.5506 32.0313C97.591 32.5777 97.7327 33.0027 97.9755 33.3062C98.4005 33.8324 99.1492 34.1157 100.202 34.1157C101.254 34.1157 101.375 33.974 101.861 33.7109C102.347 33.4479 102.569 33.0229 102.569 32.4765C102.569 31.9301 102.387 31.7278 102.003 31.5052C101.76 31.3635 101.274 31.2219 100.566 31.0397L99.2302 30.7159C98.3802 30.5136 97.7327 30.2707 97.328 30.0077C96.5994 29.5625 96.2352 28.9351 96.2352 28.1459C96.2352 27.3567 96.5792 26.4461 97.2672 25.8794C97.9553 25.2926 98.8659 25.0093 100.019 25.0093C101.173 25.0093 102.63 25.4545 103.298 26.3246C103.723 26.871 103.925 27.4781 103.905 28.1257H102.326C102.286 27.7614 102.164 27.4174 101.922 27.1139C101.537 26.6889 100.849 26.4663 99.8777 26.4663C98.9064 26.4663 98.7445 26.5877 98.4207 26.8306C98.0969 27.0734 97.9148 27.3769 97.9148 27.7817C97.9148 28.1864 98.1374 28.5507 98.5624 28.8137C98.8052 28.9756 99.1897 29.097 99.6754 29.2185L100.788 29.4815C102.003 29.7648 102.832 30.0481 103.237 30.3315C103.885 30.7564 104.208 31.4242 104.208 32.3349C104.208 33.2455 103.864 33.974 103.197 34.6216C102.529 35.2691 101.497 35.5929 100.1 35.5929C98.704 35.5929 97.5506 35.2489 96.9232 34.5811C96.2959 33.9133 95.9721 33.0836 95.9316 32.092H97.5303L97.5506 32.0313Z" fill="#AEA6E1"/>
<path id="Vector_8" d="M106.029 21.5688H107.729V23.4508H106.029V21.5688ZM106.029 25.2924H107.729V35.1475H106.029V25.2924Z" fill="#AEA6E1"/>
<path id="Vector_9" d="M115.682 25.5353C115.986 25.7175 116.309 26.0413 116.694 26.5067V21.5083H118.293V35.1274H116.795V33.7513C116.411 34.3584 115.945 34.8036 115.419 35.0667C114.893 35.3298 114.286 35.4714 113.598 35.4714C112.505 35.4714 111.554 35.006 110.744 34.0751C109.935 33.1442 109.53 31.9098 109.53 30.3719C109.53 28.8339 109.895 27.6804 110.623 26.6281C111.352 25.5758 112.404 25.0497 113.76 25.0497C115.116 25.0497 115.156 25.2116 115.662 25.5353H115.682ZM111.959 32.9621C112.404 33.6704 113.132 34.0346 114.104 34.0346C115.075 34.0346 115.5 33.7109 115.986 33.0431C116.471 32.3753 116.734 31.4241 116.734 30.1897C116.734 28.9553 116.471 28.0042 115.965 27.4173C115.46 26.8305 114.832 26.5067 114.083 26.5067C113.335 26.5067 112.566 26.8305 112.06 27.478C111.554 28.1256 111.291 29.0565 111.291 30.3111C111.291 31.5658 111.513 32.2538 111.959 32.9824V32.9621Z" fill="#AEA6E1"/>
<path id="Vector_10" d="M126.063 29.1377C126.448 29.0973 126.711 28.9354 126.832 28.652C126.913 28.5104 126.933 28.2878 126.933 28.0045C126.933 27.4379 126.731 27.0129 126.326 26.7701C125.922 26.5272 125.355 26.3856 124.606 26.3856C123.858 26.3856 123.129 26.6284 122.765 27.0938C122.562 27.3569 122.421 27.7414 122.36 28.2473H120.802C120.842 27.0331 121.227 26.163 121.996 25.6975C122.765 25.2119 123.635 24.9893 124.647 24.9893C125.659 24.9893 126.751 25.2119 127.48 25.6571C128.208 26.1023 128.552 26.7903 128.552 27.7212V33.4278C128.552 33.61 128.593 33.7314 128.654 33.8528C128.714 33.954 128.876 34.0147 129.099 34.0147C129.321 34.0147 129.261 34.0147 129.342 34.0147C129.443 34.0147 129.524 33.9945 129.645 33.9742V35.2087C129.382 35.2896 129.18 35.3301 129.058 35.3503C128.917 35.3503 128.734 35.3705 128.512 35.3705C127.945 35.3705 127.52 35.1682 127.257 34.7634C127.116 34.5408 127.035 34.2373 126.974 33.8528C126.63 34.298 126.144 34.6825 125.517 35.0063C124.89 35.3301 124.181 35.492 123.412 35.492C122.643 35.492 121.753 35.2086 121.166 34.6623C120.579 34.0956 120.296 33.4076 120.296 32.5779C120.296 31.7482 120.579 30.959 121.146 30.4531C121.712 29.9472 122.461 29.6436 123.392 29.5222L126.043 29.1984L126.063 29.1377ZM122.562 33.6504C122.906 33.9338 123.331 34.0754 123.817 34.0754C124.303 34.0754 124.971 33.9338 125.517 33.6707C126.448 33.2255 126.913 32.4767 126.913 31.4649V30.1293C126.711 30.2507 126.448 30.3721 126.124 30.4531C125.8 30.534 125.497 30.5947 125.193 30.6352L124.181 30.7566C123.574 30.8376 123.129 30.959 122.825 31.1411C122.32 31.4244 122.056 31.8899 122.056 32.5172C122.056 33.1445 122.239 33.3671 122.583 33.6504H122.562Z" fill="#AEA6E1"/>
<path id="Vector_11" d="M136.728 25.5353C137.032 25.7175 137.355 26.0413 137.74 26.5067V21.5083H139.339V35.1274H137.841V33.7513C137.457 34.3584 136.991 34.8036 136.465 35.0667C135.939 35.3298 135.332 35.4714 134.644 35.4714C133.551 35.4714 132.6 35.006 131.79 34.0751C130.981 33.1442 130.576 31.9098 130.576 30.3719C130.576 28.8339 130.94 27.6804 131.669 26.6281C132.397 25.5758 133.45 25.0497 134.806 25.0497C136.161 25.0497 136.202 25.2116 136.708 25.5353H136.728ZM133.025 32.9621C133.47 33.6704 134.198 34.0346 135.17 34.0346C136.141 34.0346 136.566 33.7109 137.052 33.0431C137.537 32.3753 137.801 31.4241 137.801 30.1897C137.801 28.9553 137.537 28.0042 137.032 27.4173C136.526 26.8305 135.898 26.5067 135.15 26.5067C134.401 26.5067 133.632 26.8305 133.126 27.478C132.62 28.1256 132.357 29.0565 132.357 30.3111C132.357 31.5658 132.58 32.2538 133.025 32.9824V32.9621Z" fill="#AEA6E1"/>
<path id="Vector_12" d="M147.939 25.5152C148.586 25.839 149.092 26.2639 149.436 26.7901C149.76 27.296 149.983 27.8626 150.104 28.5304C150.205 28.9959 150.246 29.7041 150.246 30.7159H143.042C143.082 31.7278 143.305 32.5372 143.75 33.1443C144.195 33.7514 144.863 34.055 145.794 34.055C146.725 34.055 147.352 33.7716 147.858 33.1848C148.141 32.8408 148.343 32.4563 148.465 32.0313H150.104C150.064 32.3956 149.922 32.8003 149.679 33.2455C149.436 33.6907 149.173 34.055 148.87 34.3383C148.364 34.8239 147.757 35.168 147.008 35.3299C146.603 35.431 146.158 35.4715 145.652 35.4715C144.418 35.4715 143.386 35.0263 142.536 34.1359C141.686 33.2455 141.261 31.9908 141.261 30.3719C141.261 28.753 141.686 27.4984 142.556 26.5068C143.426 25.5152 144.539 25.0093 145.915 25.0093C147.291 25.0093 147.291 25.1712 147.939 25.495V25.5152ZM148.526 29.4006C148.465 28.6721 148.303 28.1054 148.06 27.6805C147.615 26.871 146.846 26.4865 145.794 26.4865C144.741 26.4865 144.397 26.7698 143.891 27.3162C143.386 27.8626 143.102 28.5709 143.082 29.4208H148.526V29.4006Z" fill="#AEA6E1"/>
<path id="Vector_13" d="M153.343 32.0313C153.383 32.5777 153.525 33.0027 153.768 33.3062C154.192 33.8324 154.941 34.1157 155.994 34.1157C157.046 34.1157 157.167 33.974 157.653 33.7109C158.139 33.4479 158.361 33.0229 158.361 32.4765C158.361 31.9301 158.179 31.7278 157.795 31.5052C157.552 31.3635 157.066 31.2219 156.358 31.0397L155.022 30.7159C154.172 30.5136 153.525 30.2707 153.12 30.0077C152.391 29.5625 152.027 28.9351 152.027 28.1459C152.027 27.3567 152.371 26.4461 153.059 25.8794C153.747 25.2926 154.658 25.0093 155.811 25.0093C156.965 25.0093 158.422 25.4545 159.09 26.3246C159.515 26.871 159.717 27.4781 159.697 28.1257H158.118C158.078 27.7614 157.956 27.4174 157.714 27.1139C157.329 26.6889 156.641 26.4663 155.67 26.4663C154.698 26.4663 154.536 26.5877 154.213 26.8306C153.889 27.0734 153.707 27.3769 153.707 27.7817C153.707 28.1864 153.929 28.5507 154.354 28.8137C154.597 28.9756 154.982 29.097 155.467 29.2185L156.58 29.4815C157.795 29.7648 158.624 30.0481 159.029 30.3315C159.677 30.7564 160 31.4242 160 32.3349C160 33.2455 159.656 33.974 158.989 34.6216C158.321 35.2691 157.289 35.5929 155.892 35.5929C154.496 35.5929 153.343 35.2489 152.715 34.5811C152.088 33.9133 151.764 33.0836 151.724 32.092H153.322L153.343 32.0313Z" fill="#AEA6E1"/>
</g>
<g id="Group_3">
<path id="Vector_14" d="M56.8343 17.0565H50.561V16.3078C51.1074 16.2673 51.5728 16.2066 51.937 16.0852C52.3013 15.9638 52.4834 15.8424 52.4834 15.7007C52.4834 15.5591 52.4834 15.5591 52.4632 15.4579C52.443 15.3567 52.4227 15.2757 52.4025 15.215L51.1478 11.8355H45.8459C45.6435 12.3415 45.4816 12.7664 45.3602 13.1307C45.2388 13.4949 45.1174 13.839 45.0162 14.1627C44.915 14.4663 44.8543 14.7091 44.8341 14.9115C44.7936 15.0936 44.7734 15.2555 44.7734 15.3769C44.7734 15.6602 44.996 15.8828 45.4412 16.0447C45.8864 16.2066 46.3923 16.2876 46.9589 16.328V17.0768H41.2725V16.328C41.4546 16.328 41.6974 16.2673 41.9605 16.2066C42.2438 16.1459 42.4664 16.0447 42.6485 15.9435C42.9318 15.7614 43.1544 15.5591 43.3163 15.3365C43.4782 15.1341 43.6199 14.8305 43.7818 14.4663C44.5508 12.5641 45.3805 10.4392 46.2911 8.07158C47.2017 5.70391 48.0314 3.59933 48.7397 1.75781H49.5896L54.6285 14.7901C54.7297 15.0734 54.8511 15.296 54.9928 15.4579C55.1344 15.6198 55.3165 15.8019 55.5594 15.9638C55.7213 16.065 55.9439 16.1459 56.2069 16.2066C56.47 16.2673 56.6926 16.3078 56.8747 16.328V17.0768L56.8343 17.0565ZM50.7431 10.8844L48.4564 5.01588L46.1899 10.8844H50.7431Z" fill="#AEA6E1"/>
<path id="Vector_15" d="M62.0148 17.0564H56.895V16.3481C57.0569 16.3481 57.239 16.3279 57.4212 16.3076C57.6033 16.3076 57.7652 16.2672 57.8866 16.2267C58.089 16.166 58.2306 16.0446 58.3318 15.8827C58.433 15.7208 58.4735 15.5184 58.4735 15.2553V3.09325C58.4735 2.83017 58.4127 2.60757 58.3116 2.36473C58.2104 2.14213 58.0485 1.96001 57.8866 1.83859C57.7652 1.75764 57.5223 1.6767 57.1783 1.59575C56.8343 1.51481 56.5712 1.47433 56.3486 1.47433V0.786294L60.2947 0.543457L60.4364 0.705348V15.1137C60.4364 15.3565 60.4769 15.5589 60.578 15.7208C60.6792 15.8827 60.8209 16.0041 61.0232 16.085C61.1851 16.166 61.3268 16.2064 61.4887 16.2469C61.6506 16.2874 61.8125 16.3076 62.0148 16.3279V17.0361V17.0564Z" fill="#AEA6E1"/>
<path id="Vector_16" d="M68.4292 17.0566H63.3499V16.3483C63.5118 16.3483 63.6737 16.3281 63.8558 16.3078C64.0379 16.3078 64.1796 16.2674 64.301 16.2269C64.5034 16.1662 64.645 16.0448 64.7462 15.8829C64.8474 15.721 64.8878 15.5186 64.8878 15.2556V8.7799C64.8878 8.5573 64.8271 8.35493 64.726 8.15257C64.6248 7.97044 64.4831 7.80855 64.301 7.68713C64.1593 7.60619 63.9772 7.52524 63.7141 7.46453C63.4511 7.40382 63.2285 7.36335 63.0059 7.34311V6.63484L66.7091 6.392L66.8508 6.53366V15.0937C66.8508 15.3365 66.8913 15.5389 66.9924 15.721C67.0936 15.8829 67.2353 16.0043 67.4376 16.0852C67.5995 16.146 67.7412 16.2067 67.8828 16.2471C68.0245 16.2876 68.2066 16.3078 68.3887 16.3281V17.0364L68.4292 17.0566ZM67.0936 2.28401C67.0936 2.68874 66.952 3.03276 66.6889 3.3363C66.4258 3.63985 66.102 3.7815 65.6973 3.7815C65.2926 3.7815 65.0295 3.63985 64.7462 3.35654C64.4629 3.07323 64.3415 2.74945 64.3415 2.36495C64.3415 1.98046 64.4831 1.63644 64.7462 1.3329C65.0093 1.04959 65.333 0.887695 65.6973 0.887695C66.0616 0.887695 66.4258 1.02935 66.6889 1.29242C66.952 1.57573 67.0734 1.87928 67.0734 2.24354L67.0936 2.28401Z" fill="#AEA6E1"/>
<path id="Vector_17" d="M79.6806 16.8744C79.3366 16.9958 79.0533 17.097 78.8104 17.1577C78.5676 17.2386 78.2641 17.2791 77.9605 17.2791C77.4141 17.2791 76.9689 17.1577 76.6249 16.8946C76.3011 16.6316 76.0785 16.2673 75.9976 15.7614H75.9369C75.4714 16.2673 74.9858 16.672 74.4596 16.9351C73.9335 17.1982 73.2859 17.3398 72.5574 17.3398C71.8289 17.3398 71.1206 17.097 70.6147 16.6113C70.1088 16.1256 69.8457 15.4983 69.8457 14.7091C69.8457 13.9199 69.9064 13.9401 70.0076 13.6163C70.129 13.2925 70.2909 13.0092 70.5135 12.7462C70.6956 12.5236 70.9182 12.3414 71.2218 12.1795C71.5051 12.0177 71.7884 11.876 72.0515 11.7748C72.3753 11.6534 73.0228 11.4308 73.9942 11.107C74.9655 10.7832 75.6333 10.5202 75.9773 10.338V9.28573C75.9773 9.18455 75.9773 9.02266 75.9166 8.75959C75.8762 8.49651 75.7952 8.25368 75.6738 8.01084C75.5321 7.74777 75.3298 7.52517 75.0667 7.3228C74.8036 7.12044 74.4394 7.03949 73.9739 7.03949C73.5085 7.03949 73.3466 7.1002 73.0633 7.20138C72.78 7.30257 72.5776 7.42398 72.4764 7.5454C72.4764 7.68706 72.5169 7.88942 72.5776 8.17273C72.6383 8.45604 72.6788 8.69888 72.6788 8.94172C72.6788 9.18455 72.5574 9.42739 72.3348 9.62975C72.1122 9.83212 71.8086 9.9333 71.4039 9.9333C70.9992 9.9333 70.7968 9.81188 70.6147 9.54881C70.4528 9.30597 70.3719 9.02266 70.3719 8.69888C70.3719 8.3751 70.4933 8.05131 70.7159 7.768C70.9385 7.46446 71.242 7.20138 71.6063 6.97878C71.9301 6.77642 72.3146 6.61453 72.7598 6.47287C73.205 6.33122 73.6501 6.27051 74.0954 6.27051C74.5406 6.27051 75.2084 6.31098 75.6536 6.39193C76.0988 6.47287 76.5035 6.655 76.8677 6.91807C77.232 7.18115 77.4951 7.5454 77.6974 7.9906C77.8796 8.4358 77.9807 9.02266 77.9807 9.73094C77.9807 10.7428 77.9807 11.6534 77.9403 12.4224C77.92 13.2116 77.8998 14.0615 77.8998 14.9924C77.8998 15.9233 77.9403 15.4983 78.0415 15.6602C78.1426 15.8221 78.2843 15.9638 78.4867 16.0852C78.5878 16.1459 78.77 16.1864 78.9926 16.1864C79.2152 16.1864 79.458 16.1864 79.7008 16.1864V16.8744H79.6806ZM75.9571 11.2487C75.35 11.4308 74.8239 11.5927 74.3787 11.7748C73.9335 11.9367 73.5085 12.1593 73.1038 12.4224C72.7395 12.6652 72.4764 12.9485 72.2538 13.2723C72.0515 13.5961 71.9503 14.0008 71.9503 14.446C71.9503 14.8912 72.1122 15.4781 72.4157 15.7412C72.7193 16.0245 73.124 16.1661 73.5894 16.1661C74.0549 16.1661 74.5406 16.0447 74.925 15.8019C75.3095 15.559 75.6333 15.2757 75.8964 14.9317L75.9571 11.2487Z" fill="#AEA6E1"/>
<path id="Vector_18" d="M87.2089 16.6112C86.7435 16.7934 86.3185 16.9553 85.8935 17.0969C85.4888 17.2183 84.9829 17.2993 84.3758 17.2993C83.4854 17.2993 82.8783 17.0767 82.514 16.6315C82.1498 16.1863 81.9677 15.559 81.9677 14.7495V7.62628H80.0654V6.59422H82.0081V3.31592H83.9508V6.59422H86.966V7.62628H83.9711V13.4948C83.9711 13.94 83.9711 14.3043 84.0115 14.5876C84.052 14.8911 84.1127 15.134 84.2341 15.3566C84.3556 15.559 84.5174 15.7208 84.74 15.822C84.9626 15.9232 85.2662 15.9839 85.6507 15.9839C86.0352 15.9839 86.0959 15.9839 86.4399 15.9434C86.7839 15.903 87.0268 15.8625 87.1684 15.822V16.591L87.2089 16.6112Z" fill="#AEA6E1"/>
</g>
<g id="Group_4">
<path id="Vector_19" d="M20.2475 4.48956L23.3639 4.00389C23.3639 4.00389 21.5021 1.08984 16.7263 1.08984C11.9505 1.08984 7.27591 4.61098 7.27591 10.5403C7.27591 10.5403 7.51875 13.0091 7.76158 13.6162C7.76158 13.6162 4.88801 14.2233 3.67383 15.5994L4.72612 17.9468C4.72612 17.9468 7.23544 14.709 12.7195 16.6112C12.7195 16.6112 9.52215 14.1019 9.80546 10.5807C10.0888 7.05959 13.0433 1.69694 20.2677 4.5098L20.2475 4.48956Z" fill="#AEA6E1"/>
<path id="Vector_20" d="M2.52019 22.5609L0.577491 20.0718C0.577491 20.0718 -1.08189 23.1072 1.22506 27.2962C3.53201 31.4851 8.87442 33.873 14.0549 30.9994C14.0549 30.9994 16.0988 29.5829 16.5238 29.077C16.5238 29.077 18.4463 31.303 20.2473 31.7077L21.8055 29.6436C21.8055 29.6436 17.7582 29.0163 16.7869 23.2894C16.7869 23.2894 16.1393 27.3164 12.9015 28.7532C9.66364 30.19 3.57248 30.19 2.52019 22.5406V22.5609Z" fill="#AEA6E1"/>
<path id="Vector_21" d="M26.6627 29.1782L25.3676 32.072C25.3676 32.072 28.828 32.0923 31.4385 28.0854C34.0288 24.0786 33.6038 18.2505 28.6459 15.0329C28.6459 15.0329 26.4401 13.8997 25.7926 13.7581C25.7926 13.7581 26.8448 11.0059 26.3592 9.24533L23.8094 8.86084C23.8094 8.86084 25.1652 12.726 20.5918 16.2876C20.5918 16.2876 24.4367 14.9722 27.2496 17.1173C30.0624 19.2624 32.936 24.6655 26.6627 29.1984V29.1782Z" fill="#AEA6E1"/>
</g>
<g id="Group_5">
<path id="Vector_22" d="M30.6896 14.9115L32.6121 17.4208C32.6121 17.4208 34.2715 14.3853 31.9645 10.1964C29.6575 6.00743 24.3354 3.61953 19.1346 6.47286C19.1346 6.47286 17.0907 7.86918 16.6658 8.37509C16.6658 8.37509 14.7433 6.14908 12.9625 5.74435L11.4043 7.80847C11.4043 7.80847 15.4516 8.45603 16.4229 14.1627C16.4229 14.1627 17.0907 10.1559 20.3083 8.69887C23.5259 7.24185 29.6575 7.26208 30.6694 14.9317L30.6896 14.9115Z" fill="#AEA6E1"/>
<path id="Vector_23" d="M6.32447 8.07154L7.57912 5.17773C7.57912 5.17773 4.1187 5.17773 1.54867 9.22502C-1.00112 13.2723 -0.535681 19.0802 4.48295 22.2573C4.48295 22.2573 6.70896 23.3703 7.33629 23.4917C7.33629 23.4917 6.30423 26.2438 6.83038 28.0044L9.38017 28.3687C9.38017 28.3687 7.98385 24.5035 12.5168 20.9014C12.5168 20.9014 8.67189 22.2573 5.85903 20.1324C3.02593 18.0076 0.0916484 12.645 6.32447 8.05131V8.07154Z" fill="#AEA6E1"/>
<path id="Vector_24" d="M12.153 32.4361L8.99609 32.6991C8.99609 32.6991 10.6352 35.7346 15.411 36.0989C20.1868 36.4429 25.084 33.2658 25.509 27.3567C25.509 27.3567 25.4483 24.8676 25.2459 24.2403C25.2459 24.2403 28.16 23.8356 29.4754 22.5607L28.5849 20.1323C28.5849 20.1323 25.853 23.188 20.5309 20.8811C20.5309 20.8811 23.5461 23.613 22.9997 27.1139C22.4533 30.6148 19.1143 35.7346 12.1327 32.4158L12.153 32.4361Z" fill="#AEA6E1"/>
</g>
</g>
</g>
</g>
</svg>
