<svg width="160" height="62" viewBox="0 0 160 62" fill="none" xmlns="http://www.w3.org/2000/svg">
<g id="Logo_CAF 1">
<g id="Layer_2">
<path id="Vector" d="M118.235 3.64453V30.7525H109.188V3.64453H82.0488L67.4862 30.7525H24.2711V30.784C20.9299 30.6264 18.2506 27.8526 18.2506 24.4798C18.2506 20.981 21.0875 18.1441 24.5863 18.1441H70.922V3.64453H24.5863H24.2711C12.9236 3.80214 3.75098 13.0693 3.75098 24.4483C3.75098 35.9219 13.0812 45.2836 24.5863 45.2836V45.2521H59.7321L53.1442 57.5452H71.4578L78.1718 45.2521H94.2474V57.5452H109.22V45.2521H118.266V57.5452H132.766V45.2521H150.701V30.7525H132.766V18.1441H154.831V3.64453C154.799 3.64453 118.235 3.64453 118.235 3.64453ZM86.0835 30.7525L94.2474 15.8431V30.7525H86.0835Z" fill="#AEA6E1"/>
</g>
</g>
</svg>
