<svg width="151" height="37" viewBox="0 0 151 37" fill="none" xmlns="http://www.w3.org/2000/svg">
<g id="Group">
<path id="Vector" fill-rule="evenodd" clip-rule="evenodd" d="M36.3758 34.865C30.0104 34.865 25.6262 30.7759 25.289 24.6213C24.8464 15.9373 30.4741 8.79199 39.3477 8.79199C46.0293 8.79199 50.0973 13.3658 50.3924 18.9935C50.8772 28.2255 44.9755 34.865 36.418 34.865H36.3758ZM37.0924 28.9632C40.8443 28.9632 42.5515 23.0404 42.3408 19.0146C42.2354 16.8226 41.2026 14.6937 38.589 14.6937C34.6264 14.6937 33.0245 20.8695 33.2352 24.4737C33.3828 27.1506 34.7318 28.9632 37.0292 28.9632H37.0924Z" fill="#AEA6E1"/>
<path id="Vector_2" fill-rule="evenodd" clip-rule="evenodd" d="M106.016 34.1899C104.372 34.8012 102.812 34.8433 101.442 34.8433C94.2966 34.8433 90.3973 30.8807 90.039 24.2835C89.6385 16.7166 94.6339 8.8125 103.718 8.8125C108.798 8.8125 112.634 11.7001 112.908 16.4426C113.245 22.7869 107.407 25.2109 97.4794 24.9369C97.5637 25.5903 97.8798 26.5388 98.4278 27.1711C99.4185 28.2671 101.041 28.8573 103.086 28.8573C105.7 28.8573 108.208 28.4357 111.369 26.876C111.517 26.5177 107.786 33.5365 106.016 34.1899ZM105.784 16.4004C105.721 15.2833 104.73 14.4402 103.128 14.4402C99.819 14.4402 98.1117 17.1382 97.7955 19.3513C103.36 19.4145 105.91 18.5925 105.784 16.4637V16.4004Z" fill="#AEA6E1"/>
<path id="Vector_3" fill-rule="evenodd" clip-rule="evenodd" d="M123.743 12.8808C125.408 17.0964 125.007 16.19 125.345 17.0964L125.281 16.8434C140.015 0.719077 150.343 0.381836 150.343 0.381836L126.757 24.073L129.666 22.4712L135.019 34.3378H126.546L125.071 30.586C124.375 28.7944 124.08 27.8038 123.658 26.3283H123.511C116.113 36.6353 107.429 36.3824 107.429 36.3824L120.012 21.6913L113.878 9.36089C113.878 9.36089 121.572 7.40067 123.743 12.8808Z" fill="#AEA6E1"/>
<path id="Vector_4" fill-rule="evenodd" clip-rule="evenodd" d="M52.7949 17.6232C53.2165 14.4194 53.6802 13.2601 50.9612 10.9838C50.9612 10.9838 53.912 8.96031 56.6732 8.55983C61.8794 7.77996 60.1089 13.3023 60.1089 13.3023H60.1932C62.2799 10.1617 65.1886 8.81276 68.3291 8.81276C72.2285 8.81276 74.0622 11.2999 74.3784 13.3655C76.4229 10.2671 79.437 8.83384 82.5565 8.81276C86.498 8.81276 88.6901 11.3632 88.9009 15.4733C88.9641 16.5061 88.8587 18.5085 88.6901 19.8153C88.6901 19.8153 87.7627 27.2346 87.3411 29.8693C86.9196 32.4829 86.7088 35.1176 79.1841 34.5485L81.0178 20.7638C81.1443 19.752 81.2497 18.6982 81.2075 17.7286C81.1232 16.1478 80.3644 15.0517 78.8468 15.0517C76.5705 15.0517 74.5049 18.2134 73.8515 23.1455L72.8187 29.8693C72.3971 32.4829 72.376 35.1176 64.8724 34.5485L66.7062 20.7427C66.8537 19.731 66.938 18.7192 66.8958 17.855C66.8115 16.2532 66.2214 15.0517 64.6405 15.0517C62.3431 15.0517 60.1299 18.3398 59.4976 23.1877L58.4648 29.8904C58.0433 32.504 58.0222 35.1387 50.5186 34.5696L52.7949 17.6232Z" fill="#AEA6E1"/>
<path id="Vector_5" fill-rule="evenodd" clip-rule="evenodd" d="M21.242 34.3171C19.8719 34.5911 17.7431 34.844 15.825 34.844C7.18323 34.844 0.923186 29.7222 0.501634 21.8392C0.122238 14.6728 3.15741 9.29799 7.94203 6.1785C11.1669 4.00751 15.0873 2.97471 19.9141 3.01686C21.6846 3.03794 23.5605 3.24872 24.8252 3.5438C29.1039 4.51337 25.2467 10.5416 25.2467 10.5416C24.1085 10.0989 22.0851 9.572 19.4715 9.572C16.9 9.572 14.1388 10.3308 12.4105 11.743C9.9444 13.7243 8.65866 16.8227 8.86944 20.975C9.12237 25.612 12.4526 28.584 17.6166 28.584C19.7455 28.584 22.1062 28.0992 24.7198 27.0242C24.7409 27.0242 23.2654 33.9166 21.242 34.3171Z" fill="#AEA6E1"/>
<path id="Vector_6" fill-rule="evenodd" clip-rule="evenodd" d="M138.855 30.4597C139.782 30.4597 140.52 31.2396 140.52 32.2302C140.52 33.1998 139.782 34.0008 138.855 33.9797C137.927 33.9797 137.19 33.1998 137.19 32.2092C137.19 31.2607 137.927 30.4597 138.855 30.4597ZM138.855 30.1436C137.716 30.1436 136.789 31.071 136.789 32.2302C136.789 33.4106 137.716 34.3169 138.855 34.3169C139.993 34.3169 140.899 33.4106 140.899 32.2302C140.899 31.071 139.993 30.1436 138.855 30.1436ZM138.454 32.441H138.707C139.002 32.441 139.15 32.5464 139.213 32.8415C139.255 33.1577 139.318 33.3684 139.382 33.4317H139.761C139.719 33.3684 139.677 33.2209 139.613 32.8626C139.571 32.5253 139.424 32.3356 139.234 32.2935V32.2724C139.487 32.2092 139.677 32.0195 139.677 31.7033C139.677 31.4714 139.592 31.3239 139.466 31.2185C139.318 31.1131 139.087 31.0499 138.749 31.0499C138.475 31.0499 138.286 31.071 138.096 31.1131V33.4317H138.454V32.441ZM138.454 31.3661C138.517 31.3661 138.602 31.345 138.728 31.345C139.15 31.345 139.297 31.5347 139.297 31.7455C139.297 32.0405 139.044 32.1459 138.728 32.1459H138.454V31.3661Z" fill="#AEA6E1"/>
</g>
</svg>
