<svg width="160" height="40" viewBox="0 0 160 40" fill="none" xmlns="http://www.w3.org/2000/svg">
<g id="crediclub 1">
<path id="Vector" d="M1.77051 18.7395C1.95262 17.8581 2.06918 16.9548 2.32414 16.0879C4.02875 10.2456 7.8969 6.66886 13.8339 5.28478C13.9213 5.26292 14.016 5.27021 14.1471 5.27021V11.0979C10.0532 12.6131 7.62736 15.4979 7.62736 19.8832C7.62736 24.2613 10.0604 27.146 14.1544 28.6685V34.5618C13.3677 34.3505 12.6173 34.2121 11.9107 33.9426C6.06845 31.7353 2.71751 27.5467 1.89435 21.3693C1.87978 21.2382 1.81422 21.1143 1.77051 20.9905C1.77051 20.2402 1.77051 19.4898 1.77051 18.7468V18.7395Z" fill="#AEA6E1"/>
<path id="Vector_2" d="M19.3259 34.4302C19.3259 32.5799 19.3113 30.7442 19.355 28.9012C19.355 28.7409 19.6974 28.5224 19.9232 28.4277C23.0265 27.182 25.0225 24.9529 25.7072 21.6967C26.6397 17.2967 24.2284 12.9842 20.0106 11.3743C19.4934 11.1776 19.2967 10.9518 19.3113 10.3836C19.355 8.70085 19.3259 7.0181 19.3259 5.22607C22.1523 5.72871 24.5854 6.88697 26.6615 8.75184C29.7211 11.4909 31.433 14.9147 31.6515 19.0086C32.1468 28.2966 24.7238 33.8839 19.3331 34.4302H19.3259Z" fill="#AEA6E1"/>
<path id="Vector_3" d="M147.004 26.1914V27.4225H143.063V7.12744H147.252V14.4922C149.656 12.5691 152.162 12.5399 154.639 13.9604C157.32 15.4975 158.441 17.9888 158.194 21.0047C157.902 24.5523 155.637 27.0947 152.366 27.6483C150.421 27.9761 148.593 27.6483 146.997 26.1914H147.004ZM146.983 20.3636C146.983 22.0974 147.82 23.4888 149.197 24.0278C150.494 24.5377 152.031 24.1881 152.949 23.1828C154.267 21.7332 154.347 19.1617 153.036 17.7047C152.621 17.2385 152.024 16.8306 151.426 16.6485C149.066 15.9273 146.99 17.6975 146.983 20.3564V20.3636Z" fill="#AEA6E1"/>
<path id="Vector_4" d="M91.7352 14.5651V7.12744H95.9166V27.4079H92.0557V26.2496C91.4948 26.592 91.0431 26.949 90.5259 27.1821C86.3591 29.0469 81.4274 26.1841 80.8665 21.5875C80.4294 17.9961 82.0757 14.8637 85.0916 13.5598C87.379 12.5691 89.9505 12.9187 91.7352 14.5651ZM85.0697 20.3855C85.0697 22.1775 85.973 23.6053 87.4227 24.0861C89.324 24.7199 91.269 23.6854 91.859 21.7259C92.5292 19.4749 91.4584 17.173 89.4988 16.6266C87.124 15.971 85.077 17.712 85.077 20.3855H85.0697Z" fill="#AEA6E1"/>
<path id="Vector_5" d="M80.1168 21.6675H69.9183C70.0567 23.2337 70.9746 24.3045 72.3805 24.5886C74.0414 24.931 75.2215 24.3191 76.1102 22.6436C77.2466 22.9496 78.3903 23.2555 79.7453 23.6125C79.4393 24.2608 79.2353 24.9019 78.8638 25.4264C77.8513 26.8469 76.3652 27.5389 74.6897 27.772C71.9653 28.1581 69.4302 27.7574 67.4488 25.6376C64.9137 22.9277 64.9501 17.9232 67.4998 15.1404C70.0203 12.3868 74.646 12.008 77.6109 14.3828C79.9128 16.2258 80.5247 18.7318 80.1168 21.6602V21.6675ZM75.9281 18.9066C75.9645 17.1874 74.799 16.0874 72.9924 16.0583C71.2732 16.0292 70.0057 17.2166 70.0057 18.9066H75.9281Z" fill="#AEA6E1"/>
<path id="Vector_6" d="M141.184 27.437H137.141V26.0457C136.114 27.0218 135.043 27.5973 133.768 27.7357C130.148 28.1363 127.795 26.1695 127.708 22.5417C127.635 19.5987 127.693 16.6485 127.693 13.6982C127.693 13.5889 127.715 13.4724 127.737 13.3267H131.882C131.896 13.5889 131.918 13.8366 131.918 14.0843C131.918 16.4736 131.918 18.8557 131.918 21.2451C131.918 21.6384 131.954 22.0391 132.035 22.4252C132.268 23.5834 133.04 24.2828 134.133 24.3629C135.407 24.4576 136.34 23.9258 136.711 22.7676C136.901 22.1775 136.966 21.5292 136.974 20.91C137.003 18.4113 136.988 15.9054 136.988 13.3485H141.177V27.4443L141.184 27.437Z" fill="#AEA6E1"/>
<path id="Vector_7" d="M114.209 19.6061C113.976 18.0545 113.364 16.9472 111.827 16.6048C110.45 16.2989 109.241 16.583 108.359 17.7194C107.514 18.8048 107.398 20.0723 107.638 21.3909C107.966 23.2047 109.248 24.261 111.077 24.2319C112.432 24.21 113.408 23.4961 113.808 22.2213C113.867 22.0465 113.91 21.8716 113.983 21.6167C115.287 21.8571 116.562 22.0975 117.866 22.3379C117.793 23.8604 117.276 25.1279 116.198 26.0822C113.896 28.1073 111.171 28.3186 108.389 27.5172C105.752 26.7596 104.098 24.8948 103.471 22.2213C102.197 16.7651 106.502 12.1321 112.075 12.897C114.515 13.2321 116.555 14.1791 117.625 16.532C117.982 17.3115 118.092 18.2075 118.339 19.1326C116.846 19.3002 115.549 19.4531 114.209 19.6061Z" fill="#AEA6E1"/>
<path id="Vector_8" d="M50.7814 21.6239C52.0125 21.8498 53.2072 22.0465 54.3946 22.3087C54.5112 22.3378 54.6496 22.7166 54.6204 22.9133C54.4238 24.312 53.7754 25.4702 52.6827 26.3808C49.6887 28.8649 42.3458 28.8722 40.4809 22.8915C38.7253 17.2532 42.7028 12.2705 48.7417 12.9188C49.8344 13.0353 50.9635 13.3777 51.9397 13.8804C53.9867 14.9366 54.9191 16.7578 54.9992 19.1399C53.688 19.2929 52.3913 19.4531 51.0582 19.6061C50.9927 19.3584 50.9271 19.1399 50.8761 18.9213C50.4973 17.4353 49.5722 16.634 48.0643 16.5028C46.6073 16.3717 45.3325 17.0856 44.7497 18.3823C44.2325 19.5405 44.1961 20.7425 44.5822 21.9445C45.0848 23.4961 46.2722 24.2828 47.9623 24.2318C49.4119 24.1881 50.2788 23.416 50.7814 21.6167V21.6239Z" fill="#AEA6E1"/>
<path id="Vector_9" d="M126.986 23.9404C126.986 25.0623 127.001 26.1113 126.971 27.153C126.971 27.306 126.724 27.5682 126.585 27.5682C125.398 27.5901 124.174 27.7357 123.03 27.5099C120.779 27.0656 119.483 25.2517 119.395 22.5564C119.315 20.0067 119.366 17.4571 119.359 14.9075C119.359 12.336 119.359 9.76452 119.359 7.13477H123.591V20.9756C123.591 21.0921 123.591 21.2087 123.591 21.3253C123.599 23.6126 124.342 24.261 126.622 23.955C126.716 23.9404 126.811 23.9477 127.001 23.9332L126.986 23.9404Z" fill="#AEA6E1"/>
<path id="Vector_10" d="M60.353 27.4373H56.1279V13.3196H60.2438V16.6924C60.761 15.6289 61.2855 14.6236 62.2835 13.9315C63.2669 13.2541 64.3596 13.0282 65.598 13.0137C65.6927 14.4925 65.7947 15.9275 65.8894 17.3772C65.139 17.45 64.4324 17.4646 63.755 17.5884C61.708 17.9599 60.5789 19.1255 60.4404 21.187C60.3166 22.9791 60.3749 24.7857 60.353 26.5923C60.353 26.8691 60.353 27.1386 60.353 27.4446V27.4373Z" fill="#AEA6E1"/>
<path id="Vector_11" d="M12.3471 20.0141C12.3398 17.5009 14.3213 15.5122 16.8345 15.5049C19.3113 15.5049 21.3291 17.4717 21.3437 19.9267C21.3582 22.4399 19.3841 24.4577 16.8855 24.4723C14.365 24.4869 12.3544 22.5127 12.3398 20.0141H12.3471Z" fill="#AEA6E1"/>
<path id="Vector_12" d="M101.993 27.4298H97.8477V13.3413H101.993V27.4298Z" fill="#AEA6E1"/>
<path id="Vector_13" d="M102.786 8.78107C102.786 10.4128 101.584 11.6367 99.9599 11.6439C98.3573 11.6512 97.0898 10.4055 97.0752 8.8175C97.0679 7.22216 98.3209 5.96191 99.9235 5.96191C101.563 5.96191 102.779 7.1566 102.786 8.78836V8.78107Z" fill="#AEA6E1"/>
</g>
</svg>
