<svg width="160" height="57" viewBox="0 0 160 57" fill="none" xmlns="http://www.w3.org/2000/svg">
<g id="danone">
<path id="path846" d="M78.3524 53.508C71.0769 53.2487 63.6184 51.4641 55.9768 48.2001C52.8653 46.8731 49.586 45.2106 46.2456 43.304C44.034 42.0533 38.9854 38.957 38.7108 38.6977C38.5278 38.5299 38.4668 38.3774 38.4668 38.1486C38.4668 37.7215 38.7718 37.4165 39.1989 37.4165C39.4277 37.4165 39.4735 37.447 40.0073 37.7673C42.1274 39.079 45.0559 40.5585 47.9082 41.7787C61.1932 47.4069 76.9187 49.3898 92.034 47.3307C102.345 45.9274 112.259 42.6176 119.992 38.0266C121.105 37.3707 121.212 37.325 121.548 37.508C122.005 37.752 122.112 38.3316 121.746 38.6824C121.609 38.8197 121.426 38.9265 118.894 40.5127C112.122 44.7225 106.661 47.4984 100.972 49.6186C93.3 52.4403 85.6279 53.7673 78.3524 53.508Z" fill="#AEA6E1"/>
<path id="path4280" fill-rule="evenodd" clip-rule="evenodd" d="M3.81348 6.28595C3.81348 6.28595 3.95075 6.74353 4.08802 8.0095C4.2558 11.1973 4.2558 13.836 4.28631 16.795C4.33207 19.0676 4.30156 21.2945 4.28631 23.4299C4.27106 24.8789 4.2558 25.672 4.2558 26.9838C4.2558 30.9037 3.95075 33.6339 3.95075 33.6339C3.95075 33.6339 6.84875 34.2593 11.211 34.2593C15.5732 34.2593 20.21 32.7493 22.8945 30.4766C25.5637 28.204 27.9736 24.9552 27.9736 19.1287C27.9736 13.3022 25.4722 10.0991 22.1776 8.0095C18.8831 5.91989 13.8344 5.52332 9.96028 5.6911C6.08612 5.87413 3.95075 6.28595 3.81348 6.28595ZM155.73 28.204L149.888 26.8312C148.363 28.3412 146.7 29.0886 144.58 29.0581C140.202 28.9819 138.037 26.4042 137.228 22.1639H156.035C156.309 20.6539 156.385 19.0524 156.294 17.5424C156.111 14.4919 155.18 11.6701 153.259 9.27547C151.367 6.89606 148.103 5.64534 144.077 5.67585C140.294 5.70635 137.213 7.00283 134.757 9.59577C132.454 12.0362 131.081 15.7426 131.142 20.5777C131.203 25.1687 132.378 28.5853 135.245 31.3918C137.243 33.3441 139.928 34.3813 143.451 34.366C150.178 34.1372 152.969 31.9866 155.73 28.204ZM150.956 17.4509H137.457C137.701 13.9733 140.889 10.7245 144.275 10.7397C147.783 10.7397 150.788 13.2411 150.956 17.4509ZM91.7448 10.9227C96.2139 10.9227 99.8287 14.9494 99.8287 19.9218C99.8287 24.8942 96.2139 28.9361 91.7448 28.9361C87.2758 28.9361 83.6609 24.9094 83.6609 19.9218C83.6609 14.9342 87.2758 10.9227 91.7448 10.9227ZM91.9126 5.53857C99.4016 5.53857 105.487 12.0362 105.487 19.937C105.487 27.8379 99.2339 34.244 91.7448 34.244C84.2558 34.244 78.17 27.8379 78.17 19.937C78.17 12.0362 84.4236 5.53857 91.9126 5.53857ZM106.662 33.2831H112.717V14.9952C118.254 19.8455 122.342 25.9313 124.797 33.2678L129.998 33.2983V6.45373H124.202V19.6015C122.387 16.5662 120.16 14.08 117.979 11.9294C115.783 9.7788 114.014 7.94849 111.787 6.43848H106.662V33.2831ZM53.7353 33.2831H59.6228V14.9952C65.1595 19.8455 69.171 25.9313 71.6114 33.2678H76.8735V6.45373H70.986V19.388C67.5694 14.4766 63.436 10.0686 58.6924 6.45373H53.7506L53.7353 33.2831ZM36.9422 6.45373H42.6467C48.1834 12.57 51.5847 21.4623 52.7286 33.2678H46.5208C46.353 31.224 46.109 29.3327 45.7734 27.4413H33.5408C33.2053 29.3327 32.946 31.2087 32.7935 33.2678H26.7687C27.8516 21.4013 31.497 12.204 36.9422 6.45373ZM44.6295 22.4232C43.3025 18.183 41.7162 14.7054 39.5656 11.4871C37.4303 14.7207 35.7677 18.3508 34.5933 22.4232H44.6295ZM10.0213 10.9533C10.0213 10.9533 11.211 10.9075 12.6905 10.9075C14.1548 10.9075 17.3731 11.182 19.7372 13.4852C22.1014 15.8036 22.1471 18.427 22.1471 20.2421C22.1471 22.0724 21.5218 26.0228 17.6476 27.8074C13.7734 29.592 9.99079 28.9208 9.99079 28.9208L10.0213 10.9533Z" fill="#AEA6E1"/>
</g>
</svg>
