<svg width="160" height="72" viewBox="0 0 160 72" fill="none" xmlns="http://www.w3.org/2000/svg">
<path d="M80.4796 11.9234C81.5356 11.9746 82.5468 12.3777 83.3468 13.0689C84.4348 14.0993 84.7228 15.821 84.2044 17.1969C82.2012 21.3186 77.4332 24.0769 74.182 24.9857C72.2364 25.4465 69.7724 25.4465 67.9932 24.7553C67.1356 25.2737 66.406 26.9377 65.3564 26.2465C63.8396 25.0625 65.1516 23.2001 64.2748 21.8817C64.0956 21.6129 63.6412 21.5873 63.4108 21.1457C62.2076 18.5089 63.6988 15.9873 65.3564 13.9841C68.1212 10.8994 76.0636 7.45615 80.4796 11.9234ZM71.2572 13.9841C69.7084 14.2722 67.9612 14.9441 67.0204 16.0449C66.0732 17.1457 65.4716 18.221 66.0476 19.3665C68.0508 17.8753 69.0236 15.8145 71.2636 14.5537C71.2572 14.3297 71.5964 14.1569 71.2572 13.9841ZM80.5948 14.5602C76.6396 14.2146 73.6636 17.1969 70.854 20.0577C70.6812 20.5185 69.6508 21.0306 70.4508 21.549C74.2332 21.8946 77.8428 20.8066 80.5948 18.285C81.3948 17.5426 81.9708 16.5697 81.5676 15.5329C81.3948 15.1297 80.9916 14.7329 80.5948 14.5602ZM114.848 31.629C116.684 36.0961 118.227 43.1425 114.848 47.4433C113.932 48.4737 112.326 49.4273 111.296 48.6465C107.513 45.6129 105.913 41.2545 103.564 37.3633C103.219 37.1905 103.219 37.6514 103.046 37.8242C102.188 41.7794 103.788 46.9314 101.1 50.0289C100.07 50.2018 99.1036 49.6706 98.7516 48.653C97.4332 44.5826 98.8092 40.3457 99.1484 36.2753C99.9484 34.2145 100.294 31.8081 102.073 30.2593C104.94 31.4049 106.31 34.6113 107.974 36.9601C109.177 38.7329 110.15 40.7425 111.526 42.3425C112.729 41.8242 112.134 40.2561 112.102 39.309C111.641 35.5842 110.611 32.1473 109.638 28.5953C109.58 27.6801 109.068 26.1313 110.041 25.5617C112.62 26.7073 113.702 29.3953 114.848 31.629ZM97.5484 30.2529C97.5484 31.1105 96.8636 32.1857 96.2876 32.3137C90.79 33.1713 84.6588 32.6593 79.5004 34.3745C79.3276 35.0017 80.07 35.1169 80.4732 35.2897C84.8828 35.9746 89.5228 36.1473 93.8236 37.2353C96.0956 37.8113 96.9212 40.4994 97.0876 42.733C97.19 44.493 96.518 46.6306 94.7964 47.8338C90.5596 50.5282 84.0828 50.4129 79.7884 47.949C78.1436 47.0274 76.582 45.5425 76.4668 43.7122C76.4796 42.2593 77.1004 41.1073 78.1308 40.5634C82.2588 38.8993 87.3532 39.8209 90.9052 41.9394C91.1356 43.0849 89.894 43.0209 89.2988 43.4305C85.3436 45.7217 82.3676 40.8513 78.7004 42.6305C78.182 42.9761 77.8108 43.9297 78.4124 44.2369C82.9372 46.2402 87.9804 44.8065 92.4476 43.5522C92.966 43.3793 93.5932 42.8674 93.6508 42.3489C93.478 40.5121 91.4172 40.1154 90.0988 39.597C86.2012 38.6241 81.9068 38.6241 77.7212 38.221C76.9212 38.0481 75.8972 37.4913 75.6604 36.8449C75.1996 35.4689 75.1996 33.5809 76.23 32.4353C81.5548 27.7377 89.6316 28.1409 96.3964 29.4017C96.8636 29.5681 97.3756 29.7409 97.5484 30.2529ZM72.518 32.4353C73.0364 37.9329 73.318 43.0337 73.2028 48.8193C73.0876 49.5617 72.23 49.7345 71.654 50.0225C70.7388 50.1953 69.5548 49.9969 69.19 49.5042C67.8716 47.3857 68.3324 44.5185 68.2172 41.9394C68.39 37.8754 68.3324 33.4593 69.478 29.6769C69.6956 29.1265 70.3356 28.6465 70.854 28.9857C72.23 29.6833 72.4604 31.0593 72.518 32.4353ZM136.166 31.629C136.441 32.0897 136.729 32.8065 136.166 33.1201C133.587 34.2657 130.092 33.7473 127.116 34.0929C126.316 34.7778 125.683 35.9233 125.971 36.9601C126.259 37.1329 126.515 37.3953 126.828 37.3633C128.659 37.4785 131.411 36.5058 132.614 38.221C132.908 38.733 132.576 40.6402 131.756 40.685C129.523 40.9729 125.843 40.4034 124.768 40.9729C123.392 41.8881 123.507 43.6674 122.988 45.101C123.961 45.7281 124.985 45.0882 126.137 44.9282C128.262 44.5826 130.611 43.9554 132.729 44.4098C133.132 45.1522 133.702 45.9585 133.299 46.8738C129.689 49.741 125.03 52.6721 120.064 50.5985C118.201 49.7665 117.369 46.9314 118.003 44.525C118.406 42.8034 120.179 41.1458 119.091 39.309C118.918 38.5089 119.379 37.8177 120.064 37.6449C121.952 37.6449 121.555 35.2961 122.528 34.2081C121.44 33.0049 118.688 33.0625 118.976 30.6561C120.294 29.9713 121.9 30.1953 123.385 29.9713C126.764 29.2801 130.547 28.8833 133.984 29.2801C134.675 29.4209 135.59 30.7713 136.166 31.629ZM54.3548 18.5666C59.6412 22.8865 66.502 30.253 65.638 38.733C64.6076 45.4402 57.5036 50.4769 51.4876 52.0833C45.6444 53.7985 38.31 53.6321 32.3516 52.2561C31.9484 53.3442 31.5516 54.6625 30.2908 55.1233C29.4908 55.4113 28.454 55.2385 27.8268 54.7201C26.054 53.0561 27.4812 49.8497 24.902 48.8193C19.8588 46.701 14.4188 42.5153 11.8396 37.3633C11.494 36.3329 11.8972 35.3025 12.5244 34.5025C16.4796 31.3537 21.4588 30.0929 26.4444 29.1201C26.7324 29.2353 26.6172 28.8321 26.8476 28.7169C27.1356 25.2801 27.2508 21.7857 28.3388 18.6881C28.5884 18.2529 29.1964 18.1185 29.5996 18.4001C32.7484 20.8065 31.2636 25.3313 32.6332 28.5953C38.6492 28.8833 44.6652 29.1649 49.4204 32.5505C51.0268 33.8689 51.4172 36.3841 50.9116 37.8242C50.406 39.2578 48.7356 40.2882 47.1868 40.4034C46.1564 40.4034 44.2108 40.5057 44.3196 39.7185C44.4348 38.9313 47.8268 37.6385 46.7836 36.5697C45.286 35.0273 37.798 34.1057 33.158 33.5361C32.5884 33.4209 32.0572 33.5938 32.0572 34.2209C31.942 38.5729 31.5964 43.3857 32.3452 47.5714C32.4028 47.8593 32.7484 48.2049 33.0364 48.2561C41.2284 49.5746 49.8812 48.8257 56.294 44.1345C59.27 41.7281 60.2492 38.3489 59.7308 34.6241C57.1516 24.2561 46.3228 18.0097 37.446 13.9969C28.7932 10.2146 19.2252 8.26895 8.97243 8.78095C7.34043 8.90255 4.75483 9.46575 4.73563 10.0417C4.71643 10.6177 7.66683 10.4385 7.31483 11.5329C6.96283 12.6273 3.96123 11.9745 3.07803 11.7057C2.19483 11.4369 2.27803 10.1569 2.50843 9.35695C4.74203 5.40175 10.9756 5.08175 13.7916 4.94735C29.3756 4.53135 44.4412 10.4642 54.3548 18.5666ZM26.2844 33.9201C22.3292 33.9777 18.15 34.3809 14.4828 35.7505C13.7404 36.0385 12.8188 36.8385 13.3948 37.8113C14.886 39.8145 17.0108 41.4594 19.0076 42.6241C21.0044 43.7826 23.6476 45.2609 26.054 45.6065C26.6236 41.8817 26.6236 38.2145 26.5724 34.3745C26.3356 34.2657 26.566 34.0353 26.2844 33.9201ZM144.697 28.7105C144.524 33.6961 139.884 36.7874 139.884 41.7729C140.057 41.9458 140.172 42.1762 140.403 42.061C144.128 37.9906 147.795 32.2049 153.235 30.4897C154.668 30.3745 155.968 31.6225 156.499 32.5505C158.387 36.3329 157.932 41.6577 155.296 45.0945C152.576 48.4673 147.846 51.8529 142.464 51.2833C140.23 56.7809 138.681 62.5665 137.824 68.5825C137.363 69.7857 136.281 68.6978 135.59 68.4674C130.95 64.8002 134.758 55.0977 135.072 53.8561C135.385 52.6209 136.627 49.7089 137.536 47.2705C135.36 43.3729 136.736 38.6754 138.508 35.0658C139.884 32.6593 141.772 30.2529 144.012 28.4225C144.3 28.4225 144.524 28.4801 144.697 28.7105ZM153.926 34.8993C153.241 34.7841 152.953 35.6993 152.377 35.8721C149.74 38.8481 147.104 41.8305 145.785 45.3825C147.564 45.6129 149.049 44.4674 150.598 43.8338C153.235 42.1698 154.892 39.4241 154.72 36.2689C154.611 35.7569 154.156 35.3537 153.926 34.8993Z" fill="#AEA6E1"/>
</svg>
