<svg width="160" height="37" viewBox="0 0 160 37" fill="none" xmlns="http://www.w3.org/2000/svg">
<g id="electrolux-5 1" clip-path="url(#clip0_754_585)">
<path id="path3363" d="M0 36.6152H36.7284V0.143066H0V36.6152ZM23.5459 2.93013C30.0491 5.04446 34.7262 11.1472 34.7422 18.3711C34.7582 25.4829 30.1612 31.5696 23.5459 33.8281V2.93013ZM18.3562 2.09721C19.5255 2.09721 20.7749 2.24137 21.816 2.46562C21.816 10.7307 13.7591 17.5222 5.46201 17.5222H1.98618C2.56282 9.04886 9.62659 2.09721 18.3562 2.09721ZM5.46201 19.2361C13.7752 19.2361 21.816 26.0275 21.816 34.2926C20.7749 34.5009 19.4614 34.661 18.3562 34.661C9.61057 34.645 2.32255 27.6774 1.98618 19.2361H5.46201Z" fill="#AEA6E1"/>
<path id="path3365" d="M49.0302 21.5749V19.2844H56.6706V16.3531H49.0302V12.0924H57.1671V9.17725H45.9067V21.4788C45.9067 24.5862 47.2362 26.7165 50.3596 27.149C50.4237 27.165 50.4878 27.165 50.5358 27.165H50.5999C50.9203 27.1971 51.2406 27.2291 51.593 27.2291H57.3754V24.3139H51.609C50.6159 24.2819 49.0302 23.8013 49.0302 21.5749Z" fill="#AEA6E1"/>
<path id="path3367" d="M59.6016 17.6825V27.213H62.741V9.16113H59.6016V17.6825Z" fill="#AEA6E1"/>
<path id="path3369" d="M71.7111 13.7422C67.7548 13.7422 64.7915 16.4492 64.7915 20.6618V20.7739C64.7915 24.8905 67.6587 27.5494 71.7912 27.5494C73.7774 27.5494 75.6354 27.0048 77.3493 25.2108L75.4592 23.3848C74.4661 24.3779 73.4891 24.8905 71.8873 24.8905C69.5648 24.8905 68.011 23.545 67.9149 21.4627H78.1822C78.2303 20.9501 78.2303 20.3735 78.2303 20.3735C78.2303 16.6734 75.6354 13.7422 71.7111 13.7422ZM67.979 19.2522C68.1232 17.6665 69.7409 16.3851 71.6951 16.3851C73.5371 16.3851 75.0268 17.6825 75.0268 19.2522H67.979Z" fill="#AEA6E1"/>
<path id="path3371" d="M87.0396 16.529C88.4491 16.529 89.4903 17.0415 90.3872 17.9545L92.3254 15.9523C90.8037 14.3506 88.9937 13.6938 87.0396 13.6938C83.0512 13.6938 79.8477 16.6251 79.8477 20.6295C79.8477 24.6339 83.0352 27.5811 87.0235 27.5811C88.9777 27.5811 90.7877 26.9244 92.3094 25.3066L90.3712 23.3044C89.4742 24.2174 88.4331 24.746 87.0235 24.746C84.717 24.746 82.9551 23.0001 82.9551 20.6295C82.9711 18.2749 84.717 16.529 87.0396 16.529Z" fill="#AEA6E1"/>
<path id="path3373" d="M97.4032 21.5747V16.9776H100.254V14.1425H97.4192V9.14502H94.2798V21.7669C94.3759 24.6981 95.7054 26.7003 98.7327 27.1168C98.7968 27.1328 98.8608 27.1488 98.9249 27.1488H98.973C99.2933 27.1809 99.6297 27.2129 99.966 27.2129H100.302V24.2977H99.9821C98.989 24.2817 97.4032 23.8011 97.4032 21.5747Z" fill="#AEA6E1"/>
<path id="path3375" d="M105.989 16.0966V14.1584H102.881V27.2128H105.989V20.3412C105.989 18.1949 107.366 16.8334 109.529 16.8334C110.025 16.8334 110.474 16.8814 110.826 16.9615V13.9502C110.698 13.9182 110.233 13.8701 109.897 13.8701C108.023 13.8861 106.613 14.7511 105.989 16.0966Z" fill="#AEA6E1"/>
<path id="path3377" d="M118.483 13.7578C114.494 13.7578 111.307 16.7691 111.307 20.6774C111.307 24.5857 114.478 27.597 118.483 27.597C122.439 27.597 125.658 24.5857 125.658 20.6774C125.658 16.7691 122.455 13.7578 118.483 13.7578ZM118.483 24.7779C116.16 24.7779 114.414 22.984 114.414 20.6774C114.414 18.3709 116.16 16.5769 118.483 16.5769C120.789 16.5769 122.551 18.3709 122.551 20.6774C122.551 22.984 120.789 24.7779 118.483 24.7779Z" fill="#AEA6E1"/>
<path id="path3379" d="M127.581 17.3621V27.1969H130.72V9.14502H127.581V17.3621Z" fill="#AEA6E1"/>
<path id="path3381" d="M142.012 21.7349C142.012 23.8012 140.795 24.6822 139.145 24.6822C137.511 24.6822 136.278 23.8012 136.278 21.767V14.1426H133.123V22.0232C133.123 25.7553 135.862 27.5493 139.113 27.5493C142.397 27.5493 145.168 25.7393 145.168 21.9592V17.9388V14.1586H142.012V21.7349Z" fill="#AEA6E1"/>
<path id="path3383" d="M157.005 23.0325L155.035 20.2934L157.485 16.9938L159.568 14.1587H156.156L153.305 18.067L150.437 14.1587H147.042L148.98 16.8016L151.575 20.3255L148.852 24.0896L146.593 27.2291H149.957L153.289 22.616L156.636 27.2291H160L157.005 23.0325Z" fill="#AEA6E1"/>
</g>
<defs>
<clipPath id="clip0_754_585">
<rect width="160" height="36.4721" fill="white" transform="translate(0 0.143066)"/>
</clipPath>
</defs>
</svg>
