<svg width="160" height="32" viewBox="0 0 160 32" fill="none" xmlns="http://www.w3.org/2000/svg">
<g id="elektra-1 1" clip-path="url(#clip0_756_721)">
<path id="Vector" fill-rule="evenodd" clip-rule="evenodd" d="M20.6376 15.691C19.7964 15.6006 18.1028 15.5968 16.3316 16.6195C13.8245 18.0669 14.0082 21.3823 14.9447 23.0043C15.8813 24.6265 17.5142 25.1388 17.5142 25.1388L15.8796 29.9364C15.8796 29.9364 12.0079 28.4751 10.0341 26.3507C9.12566 23.4145 9.53211 20.7811 11.4962 17.9169C13.3748 15.1772 17.1216 13.6978 20.5508 14.7742C21.0498 14.0905 21.8996 12.626 21.8996 10.5808C21.8996 7.68592 18.9366 6.18748 17.0635 6.18748C15.1904 6.18748 13.9304 7.34534 13.9304 7.34534L10.5927 3.53099C10.5927 3.53099 13.7942 0.908571 16.6209 0.261486C19.6178 0.942648 21.6954 2.61148 23.1938 5.74467C24.6271 8.74155 24.0349 12.7259 21.3881 15.1576C21.7308 15.9314 22.5741 17.3998 24.3452 18.4223C26.8522 19.8697 29.6315 18.053 30.568 16.4308C31.5046 14.8086 31.1319 13.1385 31.1319 13.1385L36.1039 12.1552C36.1039 12.1552 36.7742 16.2389 35.9213 19.0104C33.8329 21.2652 31.3491 22.23 27.8864 21.961C24.5746 21.704 21.4203 19.1989 20.6376 15.691ZM27.4578 13.8486C27.4578 13.8486 29.9536 11.1605 29.6016 8.63704C29.2495 6.11343 26.758 4.98964 26.758 4.98964L25.8301 1.81914L28.7693 0.134125L29.9152 3.66654C29.9152 3.66654 32.8272 5.2297 32.8308 8.2205C32.8344 11.2113 30.1535 13.6747 27.4578 13.8486ZM16.3824 10.172C16.3824 10.172 12.8064 9.35475 10.7972 10.9213C8.78775 12.4879 9.06018 15.2075 9.06018 15.2075L6.77853 17.5965L3.84961 15.8936L6.33572 13.135C6.33572 13.135 6.23368 9.83145 8.82183 8.33301C11.4102 6.83457 14.8839 7.92427 16.3824 10.172ZM18.7362 21.602C18.7362 21.602 19.8164 25.1073 22.1778 26.0644C24.539 27.0212 26.758 25.4253 26.758 25.4253L29.9677 26.2069L29.9576 29.5949L26.3255 28.8212C26.3255 28.8212 23.5155 30.5614 20.9238 29.069C18.3318 27.5767 17.5389 24.0235 18.7362 21.602ZM61.8561 21.4647H48.1746C48.1746 21.4647 47.9774 23.9091 50.2248 25.368C52.4722 26.8268 55.4293 26.1959 56.0602 25.9595C56.6911 25.7228 58.2287 25.447 59.0567 26.6692C59.8846 27.8914 60.003 28.128 60.003 28.128C60.003 28.128 58.2287 30.0599 53.1819 30.0599C48.135 30.0599 43.4431 27.4971 43.3642 20.5183C43.2854 13.5396 48.2535 10.1094 53.1819 10.1094C58.1105 10.1094 62.2504 13.6578 62.2504 18.7046C62.2504 20.1635 61.8561 21.4647 61.8561 21.4647ZM57.716 18.1131H48.3323C48.3323 18.1131 48.8054 13.9338 53.0243 13.9338C57.243 13.9338 57.6766 17.0882 57.716 18.1131ZM64.7011 26.3393V2.2629L69.189 0.0981445V24.2274C69.189 26.3393 69.9282 27.765 71.354 28.0288C70.5622 30.4005 64.7011 31.6153 64.7011 26.3393ZM90.0867 21.4647H76.4052C76.4052 21.4647 76.2079 23.9091 78.4553 25.368C80.7027 26.8268 83.6598 26.1959 84.2907 25.9595C84.9216 25.7228 86.4593 25.447 87.2872 26.6692C88.1151 27.8914 88.2335 28.128 88.2335 28.128C88.2335 28.128 86.4593 30.0599 81.4124 30.0599C76.3658 30.0599 71.6738 27.4971 71.5948 20.5183C71.516 13.5396 76.484 10.1094 81.4124 10.1094C86.341 10.1094 90.4809 13.6578 90.4809 18.7046C90.4809 20.1635 90.0867 21.4647 90.0867 21.4647ZM85.9466 18.1131H76.5628C76.5628 18.1131 77.0359 13.9338 81.2548 13.9338C85.4735 13.9338 85.9072 17.0882 85.9466 18.1131ZM92.9488 29.9297V2.2629L97.4367 0.0981445V17.7937L104.195 10.077H109.686L102.928 17.6802L110.848 29.9825H106.518C105.515 29.9825 105.145 29.6657 104.512 28.7153C103.878 27.765 99.4959 21.1651 99.4959 21.1651L97.4367 23.3018V29.9297H92.9488ZM114.385 24.5442C114.341 23.1436 114.343 18.1963 114.355 13.7732H108.947L112.009 10.13H114.367C114.376 7.75789 114.385 6.06431 114.385 6.06431L118.873 4.42765V10.13H124.153V13.7732H118.873V23.1185C118.873 25.0194 119.718 27.8177 124.681 25.4416V29.5073C124.681 29.5073 119.771 30.4576 117.659 29.56C115.547 28.6624 114.459 26.8714 114.385 24.5442ZM126.688 10.13H131.123V12.32C131.908 11.2602 134.27 9.03188 139.465 10.7635C138.62 11.5555 138.039 13.5091 138.62 14.9876C136.676 13.4417 131.953 13.2626 131.123 17.9173V29.9825H126.688V10.13ZM141.524 14.829C141.524 14.829 140.31 10.9747 143.953 10.2884C147.596 9.60186 150.975 10.6051 152.137 11.7668C153.298 12.9283 154.513 14.1427 154.513 18.6833V23.9105C154.513 25.9168 154.83 27.9232 156.15 28.6624C155.146 30.1409 151.873 30.8801 150.658 27.8704C149.022 29.6129 146.012 30.7217 142.58 29.7184C139.148 28.7153 138.198 25.4946 138.779 22.3793C139.359 19.2642 142.844 17.5218 145.062 17.2051C147.279 16.8883 149.18 16.8883 149.972 17.3107C150.078 14.9346 148.652 13.9843 146.171 13.9314C143.689 13.8786 141.524 14.829 141.524 14.829ZM150.025 20.7426V22.8017C150.025 24.2802 149.602 26.3922 146.276 26.3922C142.95 26.3922 143.108 24.3858 143.108 23.5937C143.108 22.8017 144.164 19.4226 150.025 20.7426Z" fill="#AEA6E1"/>
</g>
<defs>
<clipPath id="clip0_756_721">
<rect width="160" height="31.5172" fill="white" transform="translate(0 0.0981445)"/>
</clipPath>
</defs>
</svg>
