<svg width="160" height="64" viewBox="0 0 160 64" fill="none" xmlns="http://www.w3.org/2000/svg">
<g id="farmacias_ahorro">
<g id="Group">
<g id="Capa_1">
<path id="Vector" fill-rule="evenodd" clip-rule="evenodd" d="M29.0937 5.22888L6.40372 49.3085C6.40372 49.3085 1.82022 39.9465 7.24891 27.5613C12.6776 15.1761 22.1372 8.31706 29.0937 5.22888ZM42.4866 37.0208H24.9653L37.1554 12.2504L42.4866 37.0208ZM56.6597 44.2374L46.8101 1.84814C46.8101 1.84814 60.0405 2.88837 64.0713 15.9237C68.1022 28.9591 56.6597 44.2374 56.6597 44.2374ZM14.758 59.0607L20.3818 47.1631H42.8767L44.372 55.875C44.372 55.875 27.8584 66.0172 14.7255 59.0607H14.758Z" fill="#AEA6E1"/>
<path id="Vector_2" d="M73.9209 25.1558V11.9904H79.6422V14.5584H76.3914V16.964H79.4146V19.597H76.3914V25.1558H73.9209ZM84.1606 20.3772C83.608 20.5723 83.1854 20.8323 82.9254 21.1249C82.6653 21.4174 82.5353 21.775 82.5353 22.2301C82.5353 22.6852 82.6003 22.7827 82.7303 22.9778C82.8604 23.1728 83.0229 23.2703 83.2504 23.2703C83.5755 23.2703 83.8031 23.1403 83.9656 22.8478C84.0956 22.5877 84.1931 22.1326 84.1931 21.4825V20.3772H84.1606ZM84.4532 25.1558L84.3232 24.2456C84.0306 24.6031 83.7381 24.8957 83.413 25.0582C83.0879 25.2533 82.7303 25.3508 82.3402 25.3508C81.7226 25.3508 81.235 25.0907 80.8774 24.6031C80.5198 24.1155 80.3248 23.4329 80.3248 22.5552C80.3248 21.6775 80.4873 21.1899 80.7799 20.7023C81.0725 20.2147 81.5926 19.7921 82.2752 19.4345C82.4378 19.3695 82.6653 19.2395 82.9579 19.1094C83.7706 18.7194 84.1931 18.2968 84.1931 17.8417C84.1931 17.3866 84.1281 17.3215 84.0306 17.1915C83.9006 17.029 83.738 16.964 83.5105 16.964C83.2829 16.964 83.0554 17.0615 82.9254 17.2565C82.7953 17.4516 82.7303 17.7766 82.7303 18.1992V18.2643H80.5198C80.5198 17.159 80.7799 16.3138 81.2675 15.7612C81.7551 15.2086 82.5028 14.9485 83.5105 14.9485C84.5182 14.9485 84.3557 15.0135 84.7133 15.1111C85.0708 15.2086 85.3634 15.3711 85.6235 15.5662C85.916 15.8262 86.1436 16.1513 86.2736 16.5089C86.4036 16.8664 86.4686 17.5491 86.4686 18.5243V22.3276C86.4686 23.1078 86.4686 23.6929 86.5337 24.1155C86.5662 24.5056 86.6637 24.8632 86.7612 25.1233H84.4532V25.1558ZM87.8664 25.1558V15.2411H89.8819V16.6389C90.1094 16.1513 90.402 15.7612 90.6621 15.5011C90.9546 15.2411 91.2797 15.1111 91.6373 15.046V18.1667C91.5072 18.1342 91.4097 18.1017 91.2797 18.1017C91.1822 18.1017 91.0521 18.1017 90.9871 18.1017C90.6296 18.1017 90.3695 18.2643 90.2395 18.5568C90.1094 18.8819 90.0444 19.4995 90.0444 20.4097V25.1558H87.8664ZM92.7425 25.1558V15.2411H94.6929V16.4113C94.9205 15.9237 95.1806 15.5987 95.4731 15.3711C95.7657 15.1436 96.0907 15.046 96.5133 15.046C96.9359 15.046 97.196 15.1761 97.456 15.4036C97.7161 15.6312 97.9112 15.9888 98.0737 16.4113C98.3012 15.9562 98.5613 15.5987 98.8864 15.3711C99.1789 15.1436 99.5365 15.046 99.9266 15.046C100.512 15.046 100.934 15.3061 101.194 15.7937C101.454 16.3138 101.584 17.1265 101.584 18.2317V25.1233H99.4715V18.8494C99.4715 18.1342 99.439 17.7116 99.3415 17.5166C99.2765 17.3215 99.1139 17.224 98.9189 17.224C98.7238 17.224 98.4963 17.3866 98.3663 17.6791C98.2362 17.9717 98.1712 18.3943 98.1712 18.9144V25.0907H96.1233V18.8169C96.1233 18.1017 96.0907 17.6791 95.9932 17.4841C95.9282 17.289 95.7657 17.1915 95.5706 17.1915C95.3756 17.1915 95.148 17.3541 95.018 17.6466C94.888 17.9392 94.823 18.3618 94.823 18.8819V25.0582H92.7425V25.1558ZM106.461 20.3772C105.908 20.5723 105.485 20.8323 105.225 21.1249C104.965 21.4174 104.835 21.775 104.835 22.2301C104.835 22.6852 104.9 22.7827 105.03 22.9778C105.16 23.1728 105.323 23.2703 105.55 23.2703C105.875 23.2703 106.103 23.1403 106.265 22.8478C106.396 22.5877 106.493 22.1326 106.493 21.4825V20.3772H106.461ZM106.753 25.1558L106.623 24.2456C106.363 24.6031 106.038 24.8957 105.713 25.0582C105.388 25.2533 105.03 25.3508 104.64 25.3508C104.022 25.3508 103.535 25.0907 103.177 24.6031C102.82 24.1155 102.625 23.4329 102.625 22.5552C102.625 21.6775 102.787 21.1899 103.08 20.7023C103.372 20.2147 103.892 19.7921 104.575 19.4345C104.738 19.3695 104.965 19.2395 105.258 19.1094C106.07 18.7194 106.493 18.2968 106.493 17.8417C106.493 17.3866 106.428 17.3215 106.298 17.1915C106.168 17.029 106.005 16.964 105.778 16.964C105.55 16.964 105.323 17.0615 105.193 17.2565C105.063 17.4516 104.998 17.7766 104.998 18.1992V18.2643H102.787C102.787 17.159 103.047 16.3138 103.535 15.7612C104.022 15.2086 104.77 14.9485 105.778 14.9485C106.786 14.9485 106.623 15.0135 106.981 15.1111C107.338 15.2086 107.631 15.3711 107.891 15.5662C108.216 15.8262 108.411 16.1513 108.541 16.5089C108.671 16.8664 108.736 17.5491 108.736 18.5243V22.3276C108.736 23.1078 108.736 23.6929 108.801 24.1155C108.834 24.5056 108.899 24.8632 109.029 25.1233H106.721L106.753 25.1558ZM113.58 21.2549H115.725C115.725 21.3199 115.725 21.3849 115.725 21.4499C115.725 21.5475 115.725 21.58 115.725 21.645C115.725 22.9128 115.497 23.8555 115.01 24.4731C114.555 25.0907 113.84 25.4158 112.897 25.4158C111.954 25.4158 111.077 25.0257 110.621 24.2781C110.166 23.4979 109.971 22.1651 109.971 20.2147C109.971 18.2643 110.199 16.9315 110.621 16.1513C111.077 15.3711 111.824 15.0135 112.897 15.0135C113.97 15.0135 114.555 15.3386 115.01 15.9562C115.465 16.5739 115.693 17.5491 115.693 18.8494V19.0119H113.58V18.7194C113.58 18.1342 113.515 17.7116 113.417 17.4516C113.32 17.1915 113.157 17.0615 112.897 17.0615C112.637 17.0615 112.442 17.224 112.344 17.5816C112.247 17.9067 112.214 18.7844 112.214 20.2147C112.214 21.645 112.279 22.4577 112.344 22.8152C112.442 23.2053 112.637 23.3679 112.897 23.3679C113.157 23.3679 113.287 23.2378 113.417 22.9778C113.547 22.7177 113.58 22.2951 113.58 21.71C113.58 21.1249 113.58 21.58 113.58 21.4825C113.58 21.3849 113.58 21.2874 113.58 21.2549ZM117.09 14.2659V11.8604H119.268V14.2659H117.09ZM117.09 25.1558V15.2411H119.268V25.1558H117.09ZM124.307 20.3772C123.754 20.5723 123.332 20.8323 123.072 21.1249C122.812 21.4174 122.682 21.775 122.682 22.2301C122.682 22.6852 122.747 22.7827 122.877 22.9778C123.007 23.1728 123.169 23.2703 123.397 23.2703C123.722 23.2703 123.949 23.1403 124.112 22.8478C124.242 22.5877 124.339 22.1326 124.339 21.4825V20.3772H124.307ZM124.599 25.1558L124.469 24.2456C124.177 24.6031 123.884 24.8957 123.559 25.0582C123.234 25.2533 122.877 25.3508 122.487 25.3508C121.869 25.3508 121.381 25.0907 121.024 24.6031C120.666 24.1155 120.471 23.4329 120.471 22.5552C120.471 21.6775 120.634 21.1899 120.926 20.7023C121.219 20.2147 121.739 19.7921 122.422 19.4345C122.584 19.3695 122.812 19.2395 123.104 19.1094C123.917 18.7194 124.339 18.2968 124.339 17.8417C124.339 17.3866 124.274 17.3215 124.177 17.1915C124.047 17.029 123.884 16.964 123.657 16.964C123.429 16.964 123.202 17.0615 123.072 17.2565C122.942 17.4516 122.877 17.7766 122.877 18.1992V18.2643H120.666C120.666 17.159 120.926 16.3138 121.414 15.7612C121.901 15.2086 122.649 14.9485 123.657 14.9485C124.665 14.9485 124.502 15.0135 124.86 15.1111C125.217 15.2086 125.51 15.3711 125.77 15.5662C126.095 15.8262 126.29 16.1513 126.42 16.5089C126.55 16.8664 126.615 17.5491 126.615 18.5243V22.3276C126.615 23.1078 126.615 23.6929 126.68 24.1155C126.712 24.5056 126.777 24.8632 126.907 25.1233H124.599V25.1558ZM127.59 22.0026H129.541C129.541 22.5227 129.638 22.9128 129.768 23.1403C129.898 23.3679 130.126 23.4979 130.386 23.4979C130.646 23.4979 130.776 23.4004 130.938 23.2378C131.068 23.0753 131.166 22.8803 131.166 22.6202C131.166 22.3601 131.101 22.2301 131.036 22.0676C130.938 21.9376 130.711 21.7425 130.386 21.5475C130.321 21.515 130.191 21.4174 130.061 21.3524C129.281 20.8973 128.728 20.4747 128.403 20.0521C128.175 19.7921 128.013 19.467 127.883 19.1094C127.753 18.7519 127.72 18.3618 127.72 17.9717C127.72 17.0615 127.948 16.3463 128.435 15.8262C128.923 15.3061 129.573 15.0135 130.418 15.0135C131.263 15.0135 131.946 15.2736 132.401 15.7937C132.856 16.3138 133.084 17.0615 133.084 18.0042V18.1667H131.166C131.166 17.6466 131.101 17.3215 130.971 17.094C130.873 16.899 130.678 16.7689 130.418 16.7689C130.158 16.7689 130.028 16.8339 129.898 16.9965C129.768 17.159 129.703 17.3541 129.703 17.5816C129.703 18.0042 130.028 18.4268 130.678 18.7844C130.776 18.8494 130.841 18.8819 130.873 18.9144C131.784 19.4345 132.369 19.9221 132.661 20.4097C132.954 20.8973 133.116 21.515 133.116 22.2951C133.116 23.0753 132.856 24.0505 132.369 24.6031C131.881 25.1558 131.166 25.4158 130.256 25.4158C129.346 25.4158 128.728 25.1233 128.24 24.5706C127.753 24.018 127.525 23.2378 127.525 22.2626V22.0026H127.59ZM140.723 17.3541C140.43 17.3541 140.268 17.5491 140.138 17.9067C140.04 18.2643 139.975 19.0444 139.975 20.2797C139.975 21.515 140.008 22.3601 140.105 22.6852C140.203 23.0103 140.365 23.1728 140.625 23.1728C140.886 23.1728 141.113 22.9778 141.243 22.5877C141.341 22.1976 141.406 21.1899 141.406 19.5645C141.406 17.9392 141.341 18.1342 141.243 17.8417C141.146 17.5166 140.951 17.3541 140.691 17.3541H140.723ZM143.584 11.9579V25.1233H141.568V24.018C141.373 24.4731 141.113 24.7982 140.788 25.0257C140.463 25.2533 140.138 25.3833 139.78 25.3833C139.423 25.3833 139.195 25.3183 138.935 25.1883C138.675 25.0582 138.48 24.8632 138.285 24.6031C138.09 24.2781 137.96 23.888 137.862 23.3679C137.797 22.8478 137.732 21.8725 137.732 20.4747C137.732 18.2317 137.895 16.7689 138.187 16.0538C138.48 15.3386 139.033 14.981 139.813 14.981C140.593 14.981 140.43 15.0786 140.691 15.2736C140.951 15.4686 141.178 15.7287 141.373 16.1188V11.9254H143.551L143.584 11.9579ZM148.59 21.6775H150.638V21.9376C150.638 23.1078 150.41 23.953 149.923 24.5381C149.435 25.1233 148.72 25.4158 147.777 25.4158C146.834 25.4158 146.867 25.3183 146.477 25.1558C146.087 24.9932 145.794 24.7657 145.567 24.4406C145.339 24.083 145.144 23.6279 145.046 23.0428C144.949 22.4577 144.884 21.5475 144.884 20.2797C144.884 19.0119 144.949 17.9067 145.046 17.3541C145.144 16.8014 145.339 16.3463 145.599 15.9888C145.859 15.6637 146.152 15.4036 146.542 15.2411C146.932 15.0786 147.387 14.981 147.875 14.981C148.362 14.981 148.85 15.0786 149.207 15.2736C149.597 15.4686 149.89 15.7287 150.118 16.0863C150.313 16.3788 150.475 16.7689 150.54 17.1915C150.638 17.6141 150.67 18.3618 150.67 19.3695V20.5723H147.094C147.094 20.5723 147.094 20.6373 147.094 20.6698C147.094 21.0924 147.094 21.3849 147.094 21.5475C147.094 22.2301 147.159 22.7177 147.289 23.0103C147.419 23.2703 147.615 23.4004 147.907 23.4004C148.2 23.4004 148.33 23.3029 148.46 23.0753C148.59 22.8803 148.655 22.5552 148.655 22.1326C148.655 21.71 148.655 21.905 148.655 21.7425C148.655 21.7425 148.655 21.6775 148.655 21.645L148.59 21.6775ZM147.159 18.8494H148.655V18.7844C148.655 18.5243 148.655 18.3618 148.655 18.2643C148.655 17.7766 148.59 17.4191 148.46 17.1915C148.33 16.964 148.135 16.8339 147.875 16.8339C147.615 16.8339 147.419 16.9315 147.289 17.159C147.159 17.3866 147.127 17.7441 147.127 18.2643C147.127 18.7844 147.127 18.5243 147.127 18.5893C147.127 18.6543 147.127 18.7519 147.127 18.8169L147.159 18.8494ZM154.181 25.1558H152.003V11.9904H154.181V25.1558Z" fill="#AEA6E1"/>
<path id="Vector_3" fill-rule="evenodd" clip-rule="evenodd" d="M62.3486 55.2898L74.2462 31.7222H81.3653L82.2755 55.2898H76.5867L76.3267 50.2837H70.703L68.1349 55.2898H62.3811H62.3486ZM76.0341 45.6027L75.7416 40.3691L73.0435 45.6027H76.0016H76.0341ZM84.3559 55.2898H89.8171L91.1824 44.1399C91.41 43.2622 91.8001 42.417 92.5802 42.417C93.3604 42.417 93.3604 43.6198 93.3604 43.6198L91.8001 55.2898H97.6188C97.6188 55.2898 99.0492 44.9201 99.3742 42.6121C99.6993 40.304 97.8789 38.1911 95.3759 38.1911C92.8728 38.1911 92.3852 38.7112 91.8326 39.0038L92.7103 31.7222H87.2491L84.3885 55.2898H84.3559ZM108.541 38.0936C111.369 38.0936 115.595 39.2638 114.88 44.9201C114.197 50.5438 114.718 47.163 114.458 49.0485C114.197 50.9339 113.092 55.9075 107.176 55.9075C101.26 55.9075 100.154 51.9416 100.512 48.6584C100.87 45.3752 100.837 46.1553 101.032 44.4975C101.227 42.8396 103.243 38.1911 108.541 38.1261V38.0936ZM108.671 50.5113L109.581 44.2374C109.679 43.5223 109.191 42.8396 108.476 42.7421C107.761 42.6446 107.078 43.1322 106.981 43.8473L106.071 50.1212C105.973 50.8363 106.461 51.519 107.176 51.6165C107.891 51.714 108.574 51.2264 108.671 50.5113ZM147.322 38.0936C150.15 38.0936 154.376 39.2638 153.661 44.9201C152.978 50.5438 153.499 47.163 153.239 49.0485C152.978 50.9339 151.873 55.9075 145.957 55.9075C140.041 55.9075 138.935 51.9416 139.293 48.6584C139.618 45.4077 139.618 46.1553 139.813 44.4975C140.008 42.8396 142.024 38.1911 147.322 38.1261V38.0936ZM147.452 50.5113L148.362 44.2374C148.46 43.5223 147.972 42.8396 147.257 42.7421C146.542 42.6446 145.859 43.1322 145.762 43.8473L144.852 50.1212C144.754 50.8363 145.242 51.519 145.957 51.6165C146.672 51.714 147.355 51.2264 147.452 50.5113ZM124.015 39.5564C124.21 39.3938 125.315 38.4186 126.42 38.4186C127.525 38.4186 128.436 38.9062 128.436 38.9062L127.85 43.7173C127.85 43.7173 124.015 43.1972 123.332 46.3829L122.227 55.3223H116.636L118.683 38.7112H124.145L124.047 39.5889L124.015 39.5564ZM135.327 39.5564C135.522 39.3938 136.627 38.4186 137.733 38.4186C138.838 38.4186 139.748 38.9062 139.748 38.9062L139.163 43.7173C139.163 43.7173 135.327 43.1972 134.644 46.3829L133.539 55.3223H127.948L129.996 38.7112H135.457L135.36 39.5889L135.327 39.5564Z" fill="#AEA6E1"/>
</g>
</g>
</g>
</svg>
