<svg width="160" height="39" viewBox="0 0 160 39" fill="none" xmlns="http://www.w3.org/2000/svg">
<g id="heineken">
<g id="Group">
<g id="Capa_1">
<path id="Vector" d="M16.338 5.69336L19.5781 15.551H19.6762L16.4362 5.69336H16.338ZM30.4764 16.8667L30.3783 16.9452L21.9934 23.0522L25.1942 32.9688V33.0473C25.2138 33.0473 25.2923 33.008 25.2923 33.008L22.1112 23.0915L30.4961 16.9648V16.8863H30.4764V16.8667ZM15.6311 27.7061L7.22656 33.7739L7.30511 33.8131L15.69 27.7258H15.6507C15.6507 27.7127 15.6507 27.7061 15.6507 27.7061H15.6311Z" fill="#AEA6E1"/>
<path id="Vector_2" d="M63.505 20.5385C63.505 21.4811 63.0926 21.7756 61.5413 22.3058C60.3042 22.7771 59.3616 22.9734 59.0671 22.9734C58.5565 22.9734 58.3209 22.5807 58.3209 21.7952C58.3209 19.8905 58.8511 17.5733 60.8736 17.5733C62.8962 17.5733 63.505 19.5763 63.505 20.5385ZM43.4362 28.8448C43.4362 28.6877 43.4166 28.5895 43.3381 28.511C43.122 28.295 42.3562 28.1772 41.9831 27.7844C41.7082 27.5095 41.5118 27.0186 41.5118 25.8797V21.5203C41.5118 21.1865 41.5904 20.9901 41.9242 20.9901H46.3425C46.6763 20.9901 46.7548 21.1865 46.7548 21.54V25.8797C46.7548 27.0186 46.5781 27.4899 46.2836 27.7844C45.8908 28.1772 45.125 28.295 44.9286 28.511C44.8501 28.5895 44.8304 28.6877 44.8304 28.8448C44.8304 29.5125 44.9286 30.1801 45.0268 30.2783C45.125 30.3765 45.2821 30.4158 45.6159 30.4158H52.8422C53.1761 30.4158 53.3331 30.3961 53.4313 30.2783C53.5295 30.1801 53.6473 29.5125 53.6473 28.8448C53.6473 28.1772 53.6277 28.5895 53.5492 28.511C53.3724 28.3343 52.5673 28.1772 52.1746 27.7844C51.8997 27.5095 51.7426 26.9597 51.7426 26.0957V14.078C51.7426 13.4693 51.8997 13.0569 52.1353 12.8213C52.5477 12.4089 53.3724 12.3303 53.5492 12.1536C53.6277 12.0751 53.6473 11.918 53.6473 11.8001C53.6473 11.3289 53.5492 10.6416 53.4313 10.5434C53.3331 10.4452 53.235 10.4059 52.8422 10.4059H45.8712C45.5963 10.4059 45.4785 10.4256 45.3999 10.5041C45.3214 10.5827 45.2428 11.1129 45.2428 11.8198C45.2428 12.5267 45.2625 12.0947 45.3214 12.1536C45.4392 12.2911 46.0872 12.4874 46.3425 12.7427C46.6174 13.0176 46.7352 13.3318 46.7352 14.2155V17.6323C46.7352 17.7697 46.5977 17.9464 46.421 17.9464H41.7868C41.61 17.9464 41.4726 17.7697 41.4726 17.6323V14.2155C41.4726 13.3318 41.5707 13.0373 41.8653 12.7427C42.1206 12.4874 42.7686 12.2714 42.8864 12.1536C42.9453 12.0947 42.965 11.9572 42.965 11.8198C42.965 11.1325 42.8864 10.5827 42.8079 10.5041C42.7293 10.4256 42.6311 10.4059 42.3366 10.4059H35.3655C34.9728 10.4059 34.8746 10.4256 34.7764 10.5434C34.6783 10.6416 34.5801 11.3485 34.5801 11.8001C34.5801 12.2518 34.5997 12.0751 34.6783 12.1536C34.855 12.3303 35.6797 12.4089 36.0921 12.8213C36.3277 13.0569 36.4848 13.4693 36.4848 14.078V26.0957C36.4848 26.9793 36.3277 27.5095 36.0528 27.7844C35.6601 28.1772 34.8746 28.3343 34.6979 28.511C34.5212 28.6877 34.5997 28.6877 34.5997 28.8448C34.5997 29.5125 34.6979 30.1801 34.7961 30.2783C34.8943 30.3765 35.0121 30.4158 35.3852 30.4158H42.6115C42.9453 30.4158 43.1024 30.3961 43.2006 30.2783C43.2988 30.1801 43.397 29.5125 43.397 28.8448M67.3538 28.4717C68.1 27.7255 68.2767 27.2935 68.2767 26.9204C68.2767 26.5473 68.1785 26.2331 67.8643 25.919C67.5305 25.5851 67.2556 25.5262 66.9807 25.5262C66.7058 25.5262 66.4701 25.6244 66.2345 25.86C65.0955 26.999 63.6621 27.6077 61.9144 27.6077C60.1667 27.6077 59.0278 26.4295 59.0278 25.6833C59.0278 24.9371 59.2045 25.2906 59.6758 25.1728C64.6243 23.6215 66.6665 22.6003 67.4519 21.8345C67.884 21.4221 68.0607 20.9312 68.0607 20.4992C68.0607 18.5355 65.233 15.0795 60.8933 15.0795C56.5536 15.0795 57.2605 15.806 55.9056 17.161C54.5506 18.5355 53.6866 20.4599 53.6866 23.0716C53.6866 25.6833 54.4917 27.3524 55.8663 28.727C57.2605 30.1212 59.2634 30.8085 61.4431 30.8085C63.6228 30.8085 65.7828 30.0034 67.3341 28.4717M75.4048 15.9435C75.4048 15.6097 75.2281 15.4722 74.9335 15.4722H69.9654C69.6905 15.4722 69.5727 15.4722 69.4942 15.5704C69.396 15.6686 69.2978 16.3755 69.2978 16.8271C69.2978 17.2788 69.3567 17.0628 69.396 17.1413C69.5727 17.377 69.9654 17.4555 70.2993 17.7304C70.5349 17.9661 70.6331 18.457 70.6331 19.2032V26.076C70.6331 26.9597 70.5349 27.5095 70.2796 27.7844C69.8869 28.1772 69.2585 28.3539 69.0622 28.5306C69.0033 28.5895 68.9836 28.6877 68.9836 28.8645C68.9836 29.5321 69.0818 30.1801 69.18 30.2783C69.2585 30.3568 69.3763 30.4158 69.6709 30.4158H76.2885C76.5634 30.4158 76.7008 30.3568 76.7794 30.2783C76.8776 30.1801 76.9561 29.5321 76.9561 28.8645C76.9561 28.1968 76.9365 28.5895 76.8776 28.5306C76.7008 28.3539 76.1117 28.1772 75.719 27.7844C75.4637 27.5292 75.3852 26.9597 75.3852 26.0957V15.9631L75.4048 15.9435ZM72.6557 9.46338C71.2418 9.46338 70.0833 10.563 70.0833 11.9572C70.0833 13.3514 71.2418 14.4707 72.6557 14.4707C74.0695 14.4707 75.2477 13.3711 75.2477 11.9572C75.2477 10.5434 74.0892 9.46338 72.6557 9.46338ZM92.5869 19.4781C92.5869 16.5915 91.0946 15.1384 88.7578 15.1384C86.421 15.1384 86.4603 15.4919 85.2821 16.2184C84.8697 16.4737 84.7323 16.5522 84.6341 16.5522C84.2217 16.5522 84.4966 15.4919 83.7504 15.4919H79.2143C78.9394 15.4919 78.8609 15.4919 78.7431 15.59C78.6056 15.7275 78.5074 16.3951 78.5074 16.8468C78.5074 17.2984 78.5271 17.0824 78.6056 17.161C78.802 17.377 79.1947 17.4359 79.5089 17.7501C79.7445 17.9857 79.8427 18.4766 79.8427 19.2228V26.0957C79.8427 26.9793 79.7642 27.5292 79.5089 27.8041C79.1554 28.1575 78.5271 28.3735 78.3503 28.5503C78.2914 28.6092 78.2718 28.7074 78.2718 28.8841C78.2718 29.5517 78.3503 30.1998 78.4485 30.2979C78.5271 30.3765 78.6842 30.4354 78.9591 30.4354H85.4392C85.7534 30.4354 85.8516 30.3765 85.9301 30.2979C86.0676 30.1605 86.1657 29.5517 86.1657 28.8841C86.1657 28.2164 86.1461 28.6092 86.0872 28.5503C85.8908 28.3539 85.2821 28.1575 84.9286 27.8041C84.6734 27.5488 84.5359 26.9793 84.5359 26.1153V21.049C84.5359 18.9676 85.6945 18.3195 86.5388 18.3195C87.3832 18.3195 87.8938 18.9676 87.8938 20.3225V27.4506C87.8938 29.3554 89.1112 30.6121 91.2909 30.6121C93.4706 30.6121 94.747 28.8645 94.747 28.511C94.747 28.1575 94.2561 27.5881 93.9419 27.5881C93.6277 27.5881 93.0582 28.0594 92.803 28.0594C92.5477 28.0594 92.528 27.9219 92.528 27.5095V19.5174L92.5869 19.4781ZM140.265 28.4717C141.011 27.7255 141.188 27.2935 141.188 26.9204C141.188 26.5473 141.09 26.2331 140.775 25.919C140.442 25.5851 140.147 25.5262 139.892 25.5262C139.538 25.5262 139.381 25.6244 139.146 25.86C138.007 26.999 136.573 27.6077 134.826 27.6077C133.078 27.6077 131.939 26.4295 131.939 25.6833C131.939 24.9371 132.116 25.2906 132.587 25.1728C137.535 23.6215 139.578 22.6003 140.363 21.8345C140.795 21.4221 140.972 20.9312 140.972 20.4992C140.972 18.5355 138.144 15.0795 133.785 15.0795C129.425 15.0795 130.152 15.806 128.797 17.161C127.442 18.5159 126.578 20.4599 126.578 23.0716C126.578 25.6833 127.383 27.3524 128.758 28.727C130.152 30.1212 132.155 30.8085 134.335 30.8085C136.514 30.8085 138.694 30.0034 140.226 28.4717M136.416 20.5385C136.416 21.4811 136.004 21.7756 134.452 22.3058C133.215 22.7771 132.273 22.9734 131.978 22.9734C131.468 22.9734 131.232 22.5807 131.232 21.7952C131.232 19.8905 131.782 17.5733 133.785 17.5733C135.788 17.5733 136.416 19.5763 136.416 20.5385ZM108.63 28.4717C109.376 27.7255 109.553 27.2935 109.553 26.9204C109.553 26.5473 109.455 26.2331 109.141 25.919C108.807 25.5851 108.532 25.5262 108.257 25.5262C107.982 25.5262 107.746 25.6244 107.511 25.86C106.372 26.999 104.938 27.6077 103.191 27.6077C101.443 27.6077 100.304 26.4295 100.304 25.6833C100.304 24.9371 100.481 25.2906 100.952 25.1728C105.901 23.6215 107.943 22.6003 108.728 21.8345C109.16 21.4221 109.337 20.9312 109.337 20.4992C109.337 18.5355 106.509 15.0795 102.15 15.0795C97.7907 15.0795 98.5172 15.806 97.1623 17.161C95.8074 18.5159 94.9434 20.4599 94.9434 23.0716C94.9434 25.6833 95.7485 27.3524 97.123 28.727C98.5172 30.1212 100.52 30.8085 102.7 30.8085C104.88 30.8085 107.059 30.0034 108.591 28.4717M104.801 20.5385C104.801 21.4811 104.389 21.7756 102.837 22.3058C101.6 22.7771 100.658 22.9734 100.363 22.9734C99.8525 22.9734 99.6169 22.5807 99.6169 21.7952C99.6169 19.8905 100.167 17.5733 102.17 17.5733C104.173 17.5733 104.801 19.5763 104.801 20.5385ZM156.308 19.4781C156.308 16.5915 154.816 15.1384 152.479 15.1384C150.142 15.1384 150.181 15.4919 149.003 16.2184C148.591 16.4737 148.453 16.5522 148.355 16.5522C147.943 16.5522 148.218 15.4919 147.472 15.4919H142.936C142.661 15.4919 142.582 15.4919 142.464 15.59C142.327 15.7275 142.229 16.3951 142.229 16.8468C142.229 17.2984 142.248 17.0824 142.327 17.161C142.523 17.377 142.916 17.4359 143.23 17.7501C143.466 17.9857 143.564 18.4766 143.564 19.2228V26.0957C143.564 26.9793 143.485 27.5292 143.23 27.8041C142.877 28.1575 142.248 28.3735 142.071 28.5503C142.013 28.6092 141.993 28.7074 141.993 28.8841C141.993 29.5517 142.071 30.1998 142.17 30.2979C142.248 30.3765 142.405 30.4354 142.68 30.4354H149.16C149.475 30.4354 149.573 30.3765 149.651 30.2979C149.789 30.1605 149.887 29.5517 149.887 28.8841C149.887 28.2164 149.867 28.6092 149.808 28.5503C149.612 28.3539 149.003 28.1575 148.65 27.8041C148.395 27.5488 148.257 26.9793 148.257 26.0957V21.0294C148.257 18.9479 149.416 18.2999 150.26 18.2999C151.104 18.2999 151.615 18.9479 151.615 20.3028V27.431C151.615 29.3357 152.832 30.5925 155.012 30.5925C157.192 30.5925 158.468 28.8448 158.468 28.4914C158.468 28.1379 157.977 27.5684 157.663 27.5684C157.349 27.5684 156.779 28.0397 156.524 28.0397C156.269 28.0397 156.23 27.9023 156.23 27.4899V19.4781H156.308ZM115.915 9.93466H110.967C110.653 9.93466 110.535 9.93466 110.456 10.0721C110.358 10.1899 110.28 10.8379 110.28 11.2896C110.28 11.7412 110.299 11.5449 110.358 11.6431C110.535 11.8198 111.242 11.9965 111.536 12.3107C111.792 12.566 111.929 13.0765 111.929 15.0402V25.3298C111.929 27.0579 111.752 27.5881 111.536 27.8041C111.183 28.1575 110.555 28.3735 110.378 28.5503C110.319 28.6092 110.299 28.7074 110.299 28.8841C110.299 29.5517 110.378 30.1998 110.476 30.2979C110.555 30.3765 110.653 30.4354 110.987 30.4354H117.447C117.781 30.4354 117.879 30.3765 117.958 30.2979C118.056 30.1998 118.193 29.5517 118.193 28.8841C118.193 28.2164 118.174 28.6092 118.095 28.5503C117.918 28.3735 117.29 28.1575 116.956 27.8041C116.681 27.5488 116.563 26.9793 116.563 26.0957V25.5066C116.563 25.1728 116.662 25.0746 117.231 24.5051C117.486 24.2695 117.722 24.0927 117.899 24.0927C118.154 24.0927 118.37 24.2695 121.198 29.9838C121.374 30.3372 121.453 30.4158 121.924 30.4158H126.126C126.441 30.4158 126.539 30.3568 126.617 30.2783C126.716 30.1801 126.814 29.5321 126.814 28.8645C126.814 28.1968 126.794 28.5895 126.735 28.5306C126.558 28.3539 125.478 28.2164 125.243 27.7844C121.512 21.4811 121.414 21.2847 121.414 20.8919C121.414 20.4992 123.063 18.9086 124.418 17.8286C125.302 17.1413 125.852 17.593 125.852 16.7682C125.852 15.9435 125.714 15.4722 125.537 15.4722H119.313C118.763 15.4722 118.723 15.7864 118.723 16.945C118.723 18.1035 119.803 17.377 119.803 17.9268C119.803 18.4766 117.172 20.9116 116.74 20.9116C116.308 20.9116 116.563 20.8134 116.563 20.3618V10.6416C116.563 10.2292 116.288 9.91502 115.896 9.91502" fill="#AEA6E1"/>
<path id="Vector_3" d="M15.6112 5.88965L19.028 16.2775L29.9656 16.3167L21.1487 22.7772L24.487 33.1847L15.6112 26.7831L6.73538 33.1847L10.0736 22.7772L1.27637 16.3167L12.214 16.2775L15.6308 5.88965H15.6112Z" fill="#AEA6E1"/>
<path id="Vector_4" d="M156.328 9.38525C156.76 9.38525 157.172 9.50307 157.565 9.71908C157.958 9.93508 158.292 10.2493 158.508 10.642C158.743 11.0544 158.841 11.4667 158.841 11.9184C158.841 12.3504 158.724 12.802 158.508 13.1751C158.292 13.5679 157.977 13.8821 157.585 14.0981C156.799 14.5497 155.857 14.5497 155.071 14.0981C154.678 13.8821 154.364 13.5482 154.148 13.1751C153.932 12.7824 153.814 12.3504 153.814 11.9184C153.814 11.4864 153.932 11.0544 154.148 10.642C154.384 10.2296 154.698 9.93508 155.091 9.71908C155.464 9.50307 155.896 9.38525 156.328 9.38525ZM156.328 9.87617C155.974 9.87617 155.641 9.97436 155.326 10.1314C155.012 10.3082 154.757 10.5635 154.58 10.8776C154.227 11.506 154.207 12.2719 154.58 12.9002C154.757 13.2144 155.012 13.4697 155.326 13.6464C155.955 13.9999 156.721 13.9999 157.349 13.6464C157.663 13.4697 157.919 13.2144 158.095 12.9002C158.272 12.586 158.37 12.2522 158.37 11.8988C158.37 11.5453 158.272 11.2115 158.095 10.8776C157.919 10.5635 157.663 10.3082 157.349 10.1314C157.035 9.95472 156.701 9.87617 156.348 9.87617M155.189 13.2537V10.5831H155.739C156.249 10.5831 156.524 10.5831 156.603 10.5831C156.78 10.5831 156.917 10.642 157.015 10.7009C157.113 10.7598 157.212 10.858 157.271 10.9562C157.329 11.074 157.369 11.2115 157.369 11.3293C157.369 11.506 157.31 11.6828 157.172 11.8202C157.055 11.9577 156.878 12.0362 156.642 12.0755C156.701 12.0951 156.78 12.1344 156.839 12.1737C156.878 12.2129 156.937 12.2719 157.015 12.37C157.015 12.3897 157.094 12.5075 157.212 12.7039L157.526 13.2537H156.858L156.642 12.8217C156.485 12.5271 156.367 12.3504 156.269 12.2719C156.151 12.1933 156.033 12.154 155.896 12.154H155.758V13.2537H155.209M155.719 11.7417H155.935C156.249 11.7417 156.446 11.7417 156.524 11.7024C156.662 11.6631 156.78 11.5257 156.78 11.3686C156.78 11.29 156.76 11.2311 156.721 11.1722C156.681 11.1133 156.623 11.074 156.544 11.0544C156.465 11.0347 156.269 11.0151 155.955 11.0151H155.739V11.7417" fill="#AEA6E1"/>
</g>
</g>
</g>
</svg>
