<svg width="158" height="29" viewBox="0 0 158 29" fill="none" xmlns="http://www.w3.org/2000/svg">
<g id="Group">
<path id="Vector" fill-rule="evenodd" clip-rule="evenodd" d="M81.371 5.73983V16.2365C81.371 19.2295 79.8955 20.7892 77.1976 20.7892C74.4997 20.7892 73.0032 19.1663 73.0032 16.11V5.76091H69.2935V16.2365C69.2935 21.3794 72.139 24.3303 77.1554 24.3303C82.193 24.3303 85.0806 21.3372 85.0806 16.0678V5.71875L81.371 5.73983ZM95.0292 5.73983L86.9565 24.0563H90.7505L92.3102 20.5152L92.4156 20.2623H100.804L102.449 24.0773H106.348L98.3595 5.86629L98.2752 5.76091L95.0292 5.73983ZM117.119 5.73983L112.966 18.3442L108.919 5.76091H104.957L111.322 24.0773H114.4L118.573 12.042L122.746 24.0773H125.845L132.21 5.76091H128.353L124.285 18.3442L120.133 5.73983H117.119ZM153.477 5.73983V24.0352H157.145V5.73983H153.477ZM48.3213 5.73983V24.0563H52.0309V16.6159H60.4198V24.0563H64.1506V5.73983H60.4198V13.1381H52.0309V5.73983H48.3213ZM135.203 5.76091V24.0563H149.03V20.726H138.871V16.1943H145.637V12.843H138.871V9.09116H148.693V5.76091H135.203ZM96.6101 10.3769L99.2658 16.5105H99.2448L99.4345 16.932H93.8278L94.0175 16.5105L96.6101 10.3769Z" fill="#AEA6E1"/>
<path id="Vector_2" fill-rule="evenodd" clip-rule="evenodd" d="M16.2416 0.787109C15.7357 0.829265 14.3868 1.14543 14.3868 1.14543C11.3516 1.9253 10.6139 4.70754 10.6139 4.70754C10.4663 5.17125 10.4031 5.65603 10.382 6.09866V6.70991C10.4242 7.6584 10.635 8.35396 10.635 8.35396C11.6467 12.8646 16.6421 20.2839 17.717 21.8436C17.8013 21.9279 17.8646 21.8858 17.8646 21.8858C17.97 21.8647 17.97 21.7382 17.97 21.7382C19.6351 5.17125 16.2416 0.787109 16.2416 0.787109ZM21.7218 0.787109C21.7218 0.787109 18.3072 5.17125 19.9723 21.7382C19.9934 21.8436 20.0566 21.8647 20.0566 21.8647C20.162 21.9069 20.2253 21.8015 20.2253 21.8015C21.3213 20.1996 26.2956 12.8435 27.3073 8.33289C27.3073 8.33289 27.8554 6.1619 27.3284 4.68646C27.3284 4.68646 26.5696 1.88314 23.5344 1.14543C23.5344 1.14543 22.6492 0.913575 21.7218 0.787109ZM5.99789 5.76142C5.99789 5.76142 3.08918 8.52258 2.96272 11.4313V11.8739C2.96272 11.895 2.96272 11.9372 2.96272 11.9793C3.08918 14.34 4.8597 15.7311 4.8597 15.7311C7.70517 18.5134 14.6186 22.0333 16.2205 22.8132C16.2416 22.8132 16.3259 22.8554 16.3681 22.7921C16.3681 22.7921 16.3891 22.771 16.4102 22.7289V22.6446C16.4102 22.6446 16.4102 22.6446 16.4102 22.6235C12.005 13.0332 5.99789 5.74034 5.99789 5.76142ZM31.9655 5.76142C31.9655 5.76142 25.9584 13.0332 21.5742 22.6024C21.5742 22.6024 21.5321 22.7078 21.5953 22.7921C21.5953 22.7921 21.6164 22.8132 21.6585 22.8132H21.7218C21.7429 22.8132 21.7429 22.8132 21.7429 22.7921C23.3869 21.9701 30.2582 18.4923 33.0826 15.71C33.0826 15.71 34.8742 14.2557 34.9796 11.9372C35.1904 8.73336 31.9655 5.74034 31.9655 5.76142ZM37.3613 15.2885C37.3613 15.2885 27.5813 20.5368 22.5227 23.9514C22.5227 23.9514 22.4384 24.0146 22.4595 24.12C22.4595 24.12 22.5016 24.2043 22.586 24.2043C24.3986 24.2043 31.2488 24.2254 31.4175 24.1832C31.4175 24.1832 32.3027 24.1411 33.3988 23.7195C33.3988 23.7195 35.8438 22.9397 37.1084 20.1785C37.1084 20.1785 37.6775 19.0192 37.6986 17.3963V17.333C37.6775 16.7007 37.5932 16.0051 37.3613 15.2885ZM0.602027 15.3096C-0.30431 18.0707 0.897113 20.2839 0.897113 20.2839C2.16177 22.9186 4.52246 23.7195 4.52246 23.7195C5.61849 24.1622 6.71453 24.2043 6.71453 24.2043C6.88315 24.2254 13.5647 24.2043 15.3353 24.2043C15.4196 24.2043 15.4617 24.12 15.4617 24.12L15.4828 24.0989V24.0357C15.4617 23.9935 15.4196 23.9514 15.4196 23.9514C10.382 20.5368 0.602027 15.3096 0.602027 15.3096ZM15.1666 25.0474L3.65828 25.4479C4.90186 27.6821 7.00961 29.4105 9.18061 28.8625C10.6982 28.4831 14.1128 26.1013 15.251 25.3004C15.3353 25.216 15.3142 25.1528 15.3142 25.1528C15.272 25.0474 15.1666 25.0474 15.1666 25.0474ZM22.7757 25.0474C22.7757 25.0474 22.6703 25.0685 22.6492 25.1317C22.6492 25.1317 22.6281 25.2371 22.6913 25.2793C23.7874 26.0802 27.1387 28.3988 28.7406 28.8625C28.7406 28.8625 28.9935 28.9468 29.394 28.9678H29.6469C30.7219 28.9257 32.5978 28.3777 34.3051 25.4479L22.7757 25.0474Z" fill="#AEA6E1"/>
</g>
</svg>
