<svg width="160" height="43" viewBox="0 0 160 43" fill="none" xmlns="http://www.w3.org/2000/svg">
<g id="indorama-ventures-seeklogo 1">
<g id="Group">
<path id="Vector" fill-rule="evenodd" clip-rule="evenodd" d="M73.8231 13.7363C78.9941 14.6403 79.0368 22.1352 77.1221 26.3773C76.2502 28.3133 74.8267 30.0642 72.8907 31.2956C70.7376 32.6622 67.7055 33.6907 64.7303 33.228C65.5773 34.0181 67.6343 34.406 69.5276 34.1605C63.8121 35.8616 59.4276 31.7298 59.3778 26.5019C59.3623 24.9787 59.8334 23.242 60.5629 21.8327C59.6981 25.3951 60.7871 29.1817 63.2392 30.6728C64.0506 31.1675 64.9937 31.4629 66.4136 31.3597C69.1077 31.1675 71.4387 29.5874 73.0758 27.7474C74.8196 25.7865 76.0118 23.4982 76.1897 20.6512C76.3641 17.8468 75.4922 15.2168 73.8231 13.7363Z" fill="#AEA6E1"/>
<path id="Vector_2" fill-rule="evenodd" clip-rule="evenodd" d="M71.1432 28.8082C69.8158 29.705 67.6271 30.915 65.232 30.4239C63.0148 29.9719 61.8155 27.9647 61.061 26.0679C61.8404 27.5199 63.2462 29.0324 65.1679 29.4915C67.2463 29.9861 69.4777 29.3918 71.1432 28.8082Z" fill="#AEA6E1"/>
<path id="Vector_3" d="M59.2282 18.1743C59.1357 18.2846 59.0397 18.3915 58.947 18.5017C58.9444 18.5121 58.9444 18.5198 58.9444 18.5337H58.9263C57.6452 20.0996 56.6772 21.968 56.0758 24.0642C55.8338 26.0464 55.9939 28.0999 56.7021 29.9896C56.3177 27.4201 56.5526 24.5909 57.6345 22.9538C56.9548 25.9468 57.2288 29.591 58.6915 31.5448C59.7876 33.0075 61.478 33.762 63.1151 34.3456C60.478 33.0929 58.5064 30.5911 58.5064 27.0642C58.5064 24.1567 59.7805 21.5801 61.3072 19.9003C62.9728 18.0711 65.1721 16.8469 67.5352 16.1031C65.9728 15.9571 64.4888 16.306 63.3606 16.7899C65.5778 15.0603 68.4605 13.9998 72.0798 13.6759C66.3536 12.7756 61.9934 15.3984 59.2282 18.1743Z" fill="#AEA6E1"/>
<path id="Vector_4" d="M59.0328 18.3735C58.9793 18.427 58.9295 18.4802 58.8799 18.5337H58.9261C58.9339 18.5234 58.9416 18.513 58.9468 18.5053C58.9623 18.466 58.993 18.4482 59.0039 18.4092C59.0142 18.3937 59.0224 18.3885 59.0328 18.3735Z" fill="#AEA6E1"/>
<path id="Vector_5" d="M59.0044 18.4093C58.994 18.4486 58.9617 18.4664 58.9473 18.5017C59.0397 18.3915 59.1358 18.2845 59.2284 18.1743C59.1644 18.242 59.0967 18.3096 59.0327 18.3737C59.0224 18.3892 59.0147 18.3995 59.0044 18.4093Z" fill="#AEA6E1"/>
<g id="Group_2">
<path id="Vector_6" fill-rule="evenodd" clip-rule="evenodd" d="M75.2428 13.021C73.0008 12.8467 72.9901 12.7612 71.8477 12.7363C70.6733 12.7156 69.6128 12.8396 68.3565 13.1277C65.9757 13.6687 64.6019 14.2345 62.8083 15.2559C59.5128 17.1385 57.1604 20.2596 56.0679 24.1672C56.3846 20.612 57.8437 17.7827 59.9897 15.6367C62.0858 13.5406 64.8012 11.9284 68.3957 11.6508C71.0648 11.4445 73.4705 11.932 75.2428 13.021Z" fill="#AEA6E1"/>
<path id="Vector_7" fill-rule="evenodd" clip-rule="evenodd" d="M4.95974 33.7619C4.26222 33.5839 0.934707 34.3028 0.415128 33.5767C0.194579 33.2671 0.529008 32.2243 0.664333 31.5802C2.52559 22.8326 4.41533 14.1918 6.26949 5.49398C6.52568 4.28398 6.88873 2.08106 7.26596 1.57214C7.59694 1.36218 8.61476 1.44403 9.75715 1.44403C10.4155 1.44403 11.5544 1.32656 11.8106 1.63259C12.0526 1.92085 11.7359 3.1522 11.6221 3.6896C9.77502 12.398 7.85328 21.2489 5.95641 29.9004C5.66102 31.2527 5.47578 32.6622 4.95974 33.7619Z" fill="#AEA6E1"/>
<path id="Vector_8" fill-rule="evenodd" clip-rule="evenodd" d="M24.8859 25.4199C26.0105 21.1884 26.6724 16.4979 27.8717 12.3412C28.5657 12.3768 31.1103 11.7789 31.6085 12.4656C31.8897 12.8571 31.3593 14.5689 31.2384 15.1454C30.2775 19.6438 29.2419 24.1208 28.3095 28.5302C27.9251 30.3523 27.6938 32.2492 27.0639 33.7617C25.9607 33.8614 24.4304 33.865 23.3271 33.7617C22.747 33.4058 22.6296 32.6585 22.3947 32.0784C20.7042 27.9323 18.8999 23.5585 17.2878 19.3164C16.0849 23.9856 15.2806 29.0569 14.0493 33.6976C13.0564 33.8508 11.0563 34.0215 10.252 33.5731C10.3731 31.751 10.857 29.9538 11.2485 28.1566C12.2058 23.797 13.1418 19.2631 14.1133 14.7719C14.2985 13.9142 14.4051 13.0173 14.8606 12.2807C15.4692 12.1774 16.4479 12.2202 17.3518 12.2202C17.8536 12.2202 19.0743 12.0922 19.4693 12.2807C20.0174 12.5476 20.6295 14.8288 20.9 15.5192C22.1491 18.6901 23.8111 22.5408 24.8859 25.4199Z" fill="#AEA6E1"/>
<path id="Vector_9" fill-rule="evenodd" clip-rule="evenodd" d="M49.1036 20.1244C48.7121 16.3236 45.1568 15.6617 40.8222 16.0175C39.8613 20.5977 38.8435 25.121 37.8968 29.7119C44.4451 30.4628 49.7371 26.2314 49.1036 20.1244ZM36.8399 12.3412C40.9467 12.3387 47.3918 11.5832 50.3492 13.0886C51.2994 13.5726 52.15 14.2986 52.7158 15.0816C54.3564 17.3485 54.36 21.0177 53.6482 23.7366C52.1891 29.3275 48.7228 32.922 42.445 33.6978C40.2919 33.9647 37.2954 33.8223 34.6619 33.8223C33.911 33.8223 32.5764 33.9754 32.2953 33.5731C32.0283 33.1994 32.5016 31.6584 32.6689 30.8968C33.6547 26.3237 34.6619 22.0247 35.5943 17.5725C35.9608 15.818 36.1708 14.0032 36.8399 12.3412Z" fill="#AEA6E1"/>
<path id="Vector_10" fill-rule="evenodd" clip-rule="evenodd" d="M85.7169 22.0569C87.781 22.1778 90.0622 21.1779 91.0089 19.6298C91.4146 18.9572 91.8238 17.9251 91.6922 17.0746C91.436 15.4091 89.3754 15.1172 87.2721 15.1457C86.6244 17.3201 86.2401 19.7544 85.7169 22.0569ZM91.3185 24.4841C92.1797 26.7795 93.1441 28.9896 94.0588 31.2708C94.3506 32.0039 94.7599 32.8046 94.7456 33.6374C93.4965 34.0111 91.3363 33.7975 89.8878 33.7619C88.7134 31.1141 87.7917 28.2208 86.7134 25.4805H85.03C84.6777 26.7973 84.3325 28.235 84.0336 29.6514C83.7346 31.0785 83.5958 32.5412 83.0406 33.7619C81.8378 33.7722 79.8306 34.0679 78.9302 33.5767C79.0084 31.7297 79.5316 29.9574 79.9267 28.1566C80.884 23.7864 81.7808 19.3734 82.788 14.7718C82.9801 13.907 83.1012 12.302 83.7844 12.2202C84.8521 12.0884 86.176 12.2202 87.3967 12.2202C90.7669 12.2202 93.5356 12.1347 95.1798 13.8999C97.4966 16.3804 95.7101 20.8788 93.8097 22.8006C93.0836 23.5408 92.3826 23.9574 91.3185 24.4841Z" fill="#AEA6E1"/>
<path id="Vector_11" fill-rule="evenodd" clip-rule="evenodd" d="M104.518 25.3558H110.059C109.678 22.8326 109.312 20.2915 108.817 17.8858C107.404 20.3983 105.931 22.8433 104.518 25.3558ZM116.162 33.6372C115.006 33.9717 112.814 33.8719 111.557 33.6976C111.084 32.2812 110.966 30.5089 110.685 28.9039C108.087 28.758 105.226 28.8832 102.525 28.8434C101.404 30.42 100.689 32.3987 99.4145 33.8222C98.2614 33.7298 96.7205 34.0286 95.8628 33.6371C96.0549 32.5729 96.7774 31.7295 97.297 30.8362C100.301 25.6439 103.34 20.2381 106.511 14.8322C106.959 14.0742 107.76 12.3553 108.379 12.22C109.055 12.0705 112.28 12.0279 112.739 12.4052C113.137 12.7326 113.155 14.1099 113.301 14.9569C114.063 19.4517 114.717 23.8717 115.479 28.3452C115.782 30.1246 116.28 31.8826 116.162 33.6372Z" fill="#AEA6E1"/>
<path id="Vector_12" fill-rule="evenodd" clip-rule="evenodd" d="M127.245 12.3415C128.024 16.1103 128.472 20.2065 129.049 24.1711C129.54 23.8365 129.729 23.235 130.045 22.7404C132.263 19.3132 134.647 15.6013 136.957 12.2204H140.074C141.088 12.2204 142.245 12.0389 142.936 12.4661C142.85 14.2775 142.284 16.0285 141.879 17.8221C140.864 22.2813 139.967 26.769 139.014 31.2709C138.836 32.1037 138.729 33.0326 138.266 33.7621C137.213 33.8083 135.508 33.9935 134.654 33.6376C134.487 32.4098 134.953 31.2176 135.216 30.0254C135.989 26.5128 136.786 22.7939 137.583 19.1923C135.494 22.1889 133.127 26.0217 130.981 29.4026C130.711 29.8332 130.252 30.6553 129.985 30.7728C129.494 30.9933 126.487 31.0148 126.063 30.7123C125.615 30.392 125.622 28.7443 125.501 27.9115C125.084 24.9791 124.583 22.1747 124.259 19.2565C123.341 22.7761 122.622 26.6196 121.828 30.2746C121.568 31.4775 121.401 32.6981 120.896 33.7622C120.138 33.6199 117.707 34.264 117.219 33.5737C116.96 33.2072 117.458 31.5488 117.593 30.8975C118.735 25.5094 119.853 20.3349 121.02 14.897C121.209 14.0037 121.476 12.5802 121.764 12.3417C123.312 12.1318 125.7 12.1387 127.245 12.3415Z" fill="#AEA6E1"/>
<path id="Vector_13" fill-rule="evenodd" clip-rule="evenodd" d="M147.854 25.3557H153.395C152.993 22.8539 152.633 20.3058 152.149 17.8857C150.729 20.384 149.256 22.8325 147.854 25.3557ZM154.954 33.7617C154.363 32.4236 154.324 30.5338 154.018 28.9039C151.445 28.758 148.601 28.8832 145.925 28.8435C144.694 30.3311 144.046 32.4023 142.75 33.8223C141.608 33.6978 139.943 34.0963 139.199 33.5766C139.409 32.63 140.049 31.7367 140.569 30.8364C143.59 25.6156 146.626 20.3698 149.847 14.8323C150.299 14.0636 151.067 12.3589 151.715 12.2201C152.334 12.0814 155.626 12.0102 156.075 12.3412C156.434 12.6117 156.509 14.1847 156.633 14.9569C157.484 20.2667 158.331 25.3452 159.249 30.961C159.359 31.6443 159.801 33.1533 159.498 33.5768C158.968 34.3064 155.875 33.5843 154.954 33.7617Z" fill="#AEA6E1"/>
</g>
<path id="Vector_14" d="M3.54693 41.2639C3.51129 41.3138 3.47226 41.3564 3.43301 41.3884C3.39375 41.4204 3.34058 41.4452 3.26569 41.463C3.19105 41.4785 3.09136 41.4889 2.96675 41.4951C2.84563 41.4977 2.6856 41.5028 2.48631 41.5028C2.25491 41.5028 2.06992 41.5002 1.9347 41.4951C1.79576 41.4873 1.69633 41.477 1.62508 41.463C1.5538 41.445 1.50757 41.4204 1.47916 41.3848C1.45334 41.3528 1.43991 41.3102 1.43294 41.2495L0.504051 35.9183C0.493721 35.8365 0.488561 35.7724 0.493727 35.719C0.496309 35.6691 0.52577 35.6299 0.575613 35.6051C0.625456 35.5793 0.703708 35.5625 0.813982 35.5552C0.92064 35.5475 1.07014 35.5449 1.26239 35.5449C1.45091 35.5449 1.60047 35.5475 1.71079 35.5552C1.81745 35.563 1.89934 35.5733 1.95641 35.5873C2.01323 35.6054 2.04888 35.6265 2.06308 35.6586C2.08116 35.6906 2.09148 35.7298 2.09871 35.7797L2.74284 40.3207H2.75833L5.70506 35.7583C5.73088 35.7157 5.76212 35.6801 5.7975 35.6517C5.83314 35.6233 5.883 35.6018 5.94705 35.5876C6.0111 35.5695 6.09657 35.5618 6.20323 35.5556C6.30989 35.5479 6.45244 35.5452 6.63028 35.5452C6.81545 35.5452 6.96481 35.5479 7.068 35.5608C7.17466 35.5685 7.24595 35.5892 7.28159 35.6248C7.31722 35.6568 7.32083 35.7066 7.29191 35.7743C7.2635 35.8384 7.21367 35.9238 7.13878 36.0341L3.54693 41.2639Z" fill="#AEA6E1"/>
<path id="Vector_15" d="M28.0745 35.7442C28.0745 35.7623 28.0719 35.7941 28.0667 35.8403C28.059 35.8865 28.0512 35.9364 28.0383 35.9935C28.028 36.0503 28.0125 36.1074 27.9921 36.1714C27.974 36.2318 27.9495 36.2853 27.9175 36.3351C27.8916 36.385 27.857 36.4276 27.8142 36.4632C27.7716 36.4953 27.7287 36.5131 27.6824 36.5131H24.9742L24.6005 37.9508H26.8959C26.953 37.9508 26.992 37.9689 27.0134 37.9971C27.0393 38.0291 27.0491 38.0717 27.0491 38.1252C27.0491 38.1458 27.0465 38.1823 27.0413 38.2249C27.0336 38.2675 27.0258 38.3173 27.0129 38.3744C27.0026 38.4312 26.9871 38.4883 26.9667 38.5451C26.9486 38.6055 26.9241 38.6554 26.8921 38.7052C26.8637 38.755 26.8316 38.7943 26.7924 38.8263C26.7531 38.8547 26.7105 38.8689 26.6607 38.8689H24.3723L23.9382 40.5345H26.6785C26.7283 40.5345 26.7639 40.55 26.7851 40.5807C26.8109 40.6127 26.8208 40.6589 26.8208 40.7194C26.8208 40.74 26.8182 40.7765 26.813 40.8227C26.8104 40.8653 26.8027 40.9188 26.7872 40.9758C26.7717 41.0293 26.7552 41.0897 26.7373 41.1465C26.7167 41.2034 26.6911 41.2568 26.6627 41.3066C26.6343 41.3565 26.6023 41.3955 26.563 41.4275C26.5238 41.4595 26.4775 41.4737 26.4243 41.4737H22.6164C22.5559 41.4737 22.4989 41.466 22.449 41.4531C22.3992 41.4376 22.3566 41.4174 22.3209 41.3854C22.2889 41.3534 22.2639 41.3141 22.2533 41.2679C22.2429 41.2181 22.2455 41.1612 22.261 41.0936L23.5849 35.9511C23.6205 35.8194 23.6916 35.7197 23.7949 35.6628C23.9015 35.6024 24.019 35.5737 24.1472 35.5737H27.9195C28.0228 35.5737 28.0745 35.6306 28.0745 35.7442Z" fill="#AEA6E1"/>
<path id="Vector_16" d="M49.7047 41.0539C49.6866 41.1252 49.6585 41.1856 49.6122 41.2424C49.5696 41.2959 49.5126 41.3385 49.4558 41.3778C49.3953 41.4134 49.3276 41.4418 49.2564 41.456C49.1817 41.4741 49.1069 41.4844 49.0322 41.4844H48.3738C48.2351 41.4844 48.1176 41.4689 48.0286 41.4488C47.9395 41.4307 47.8613 41.3917 47.7972 41.3349C47.7296 41.2815 47.6727 41.2068 47.6229 41.1107C47.5731 41.0183 47.5196 40.8972 47.4664 40.7513L46.3454 38.1177C46.2599 37.9148 46.1817 37.7085 46.1106 37.5021C46.036 37.2958 45.9683 37.0892 45.9006 36.8864H45.8903C45.8511 37.1248 45.8048 37.3633 45.755 37.5946C45.7052 37.8294 45.6483 38.0608 45.5843 38.2957L44.812 41.3065C44.8043 41.3385 44.7862 41.3669 44.7549 41.3919C44.7265 41.4126 44.6837 41.4346 44.6232 41.449C44.5662 41.4671 44.4915 41.4774 44.3991 41.4883C44.3066 41.496 44.1927 41.4986 44.0574 41.4986C43.9185 41.4986 43.8049 41.496 43.7193 41.4883C43.6305 41.478 43.5628 41.4676 43.5166 41.449C43.4704 41.4335 43.4384 41.4134 43.4275 41.3919C43.412 41.3661 43.412 41.3385 43.4249 41.3065L44.788 36.0002C44.8236 35.8579 44.9054 35.751 45.0299 35.68C45.1544 35.6087 45.2933 35.5733 45.4499 35.5733H46.2542C46.3823 35.5733 46.4926 35.5836 46.5852 35.6053C46.6776 35.6311 46.7559 35.6658 46.8199 35.7156C46.884 35.7655 46.941 35.8295 46.9906 35.9077C47.0369 35.986 47.0831 36.0857 47.1259 36.1996L48.2577 38.8616C48.3323 39.0289 48.3999 39.1997 48.4604 39.3669C48.5208 39.5343 48.5848 39.7014 48.6489 39.8687H48.6592C48.7054 39.6481 48.7517 39.4239 48.8051 39.1926C48.8586 38.9575 48.9118 38.7334 48.9652 38.5128L49.6877 35.7333C49.6955 35.7013 49.7135 35.6763 49.7376 35.6515C49.766 35.6308 49.8089 35.6089 49.8657 35.598C49.9227 35.5825 49.9937 35.5722 50.0828 35.566C50.1753 35.5582 50.2892 35.5557 50.4245 35.5557C50.5598 35.5557 50.6737 35.5582 50.7661 35.566C50.855 35.5737 50.9226 35.5841 50.9689 35.598C51.0151 35.6084 51.0471 35.63 51.0649 35.6515C51.0804 35.6773 51.083 35.7013 51.0752 35.7333L49.7047 41.0539Z" fill="#AEA6E1"/>
<path id="Vector_17" d="M73.1008 35.762C73.1008 35.7827 73.0982 35.8189 73.093 35.8687C73.0853 35.9149 73.0776 35.9684 73.0646 36.0252C73.0491 36.0823 73.0326 36.1427 73.0112 36.2031C72.9905 36.2672 72.9649 36.3242 72.9329 36.3738C72.9045 36.4273 72.8689 36.4663 72.8296 36.5019C72.7868 36.5376 72.7441 36.5518 72.6979 36.5518H70.7939L69.5732 41.3099C69.5629 41.3383 69.5412 41.367 69.5092 41.3918C69.4772 41.4176 69.431 41.4344 69.3669 41.4489C69.3029 41.467 69.2174 41.4773 69.1177 41.4881C69.0216 41.4959 68.8935 41.4985 68.7405 41.4985C68.5946 41.4985 68.47 41.4959 68.3739 41.4881C68.2742 41.4778 68.1996 41.4675 68.1461 41.4489C68.0926 41.4334 68.057 41.4168 68.0428 41.3918C68.0247 41.366 68.017 41.3383 68.0273 41.3099L69.2444 36.5518H67.3583C67.2978 36.5518 67.2586 36.5363 67.2371 36.5019C67.2165 36.4663 67.2051 36.4237 67.2051 36.3666C67.2051 36.3408 67.2077 36.3062 67.2154 36.2599C67.218 36.2101 67.2283 36.1603 67.2438 36.0998C67.2541 36.0394 67.2758 35.9787 67.2937 35.9147C67.3143 35.8542 67.3435 35.7972 67.3755 35.744C67.404 35.6941 67.4396 35.6515 67.4788 35.6195C67.5181 35.5874 67.5607 35.5732 67.6105 35.5732H72.9523C72.9986 35.5732 73.0378 35.5887 73.0626 35.6231C73.0884 35.6551 73.1008 35.7013 73.1008 35.762Z" fill="#AEA6E1"/>
<path id="Vector_18" d="M94.6603 39.2994C94.5642 39.6766 94.411 40.0041 94.2048 40.2923C93.9984 40.5734 93.7385 40.8119 93.4289 41.0041C93.1229 41.1962 92.767 41.3386 92.3648 41.4347C91.9662 41.5308 91.5249 41.577 91.0374 41.577C90.5249 41.577 90.0836 41.5308 89.7135 41.4311C89.3434 41.3314 89.0516 41.1855 88.838 40.9898C88.6208 40.794 88.4821 40.5521 88.4216 40.2602C88.3576 39.9648 88.379 39.6232 88.4787 39.2388L89.3826 35.7369C89.3904 35.7049 89.4085 35.6765 89.4361 35.6551C89.4645 35.6293 89.5144 35.6088 89.5784 35.5946C89.6425 35.5792 89.7243 35.5663 89.824 35.559C89.9237 35.5487 90.0482 35.5435 90.2012 35.5435C90.3508 35.5435 90.4717 35.5461 90.5714 35.559C90.6674 35.5668 90.7457 35.5797 90.7991 35.5946C90.8526 35.6101 90.8916 35.6303 90.906 35.6551C90.9241 35.6758 90.9319 35.7049 90.9241 35.7369L90.0202 39.2388C89.9561 39.4736 89.9384 39.6766 89.9668 39.8438C89.9952 40.0145 90.0592 40.157 90.1625 40.2673C90.2692 40.3776 90.4081 40.4595 90.5824 40.5129C90.7567 40.5664 90.9703 40.5948 91.2159 40.5948C91.4651 40.5948 91.6964 40.5628 91.9099 40.5057C92.1235 40.4453 92.312 40.3598 92.4757 40.2459C92.6395 40.132 92.7818 39.9933 92.8957 39.8259C93.0096 39.6622 93.095 39.4772 93.1482 39.2672L94.0558 35.7369C94.0661 35.7048 94.0842 35.6765 94.1126 35.655C94.1446 35.6292 94.1872 35.6088 94.2479 35.5946C94.3083 35.5791 94.3902 35.5662 94.4899 35.5589C94.5932 35.5486 94.7176 35.5435 94.8671 35.5435C95.013 35.5435 95.134 35.546 95.2301 35.5589C95.3226 35.5667 95.3975 35.5796 95.4507 35.5946C95.5077 35.6101 95.5431 35.6302 95.5609 35.655C95.5738 35.6757 95.5816 35.7048 95.5738 35.7369L94.6603 39.2994Z" fill="#AEA6E1"/>
<path id="Vector_19" d="M115.824 37.082C115.824 36.9965 115.806 36.9183 115.771 36.8437C115.732 36.7724 115.675 36.7083 115.589 36.6551C115.507 36.6017 115.401 36.5627 115.273 36.5307C115.141 36.5022 114.984 36.4881 114.799 36.4881H113.927L113.5 38.1642H114.23C114.525 38.1642 114.774 38.1286 114.977 38.0645C115.18 38.0005 115.344 37.915 115.468 37.812C115.593 37.7087 115.686 37.5948 115.739 37.4668C115.799 37.3423 115.824 37.2138 115.824 37.082ZM117.476 36.8582C117.476 37.054 117.444 37.2462 117.376 37.4383C117.308 37.6269 117.198 37.812 117.052 37.9793C116.903 38.15 116.71 38.3032 116.472 38.4419C116.237 38.5773 115.949 38.6876 115.607 38.7694C115.796 38.8262 115.952 38.9401 116.081 39.111C116.209 39.2853 116.312 39.5203 116.394 39.8192L116.703 41.0185C116.721 41.0862 116.732 41.1466 116.743 41.1965C116.753 41.2499 116.755 41.2962 116.755 41.3318C116.755 41.3638 116.743 41.3889 116.716 41.4101C116.69 41.4307 116.645 41.4493 116.581 41.4635C116.513 41.479 116.421 41.4842 116.307 41.4919C116.193 41.4997 116.047 41.5022 115.873 41.5022C115.705 41.5022 115.574 41.4945 115.474 41.4867C115.374 41.479 115.3 41.4687 115.243 41.4511C115.189 41.433 115.154 41.4119 115.136 41.3835C115.118 41.3576 115.104 41.3264 115.097 41.291L114.805 39.9813C114.773 39.8282 114.73 39.6931 114.68 39.5792C114.627 39.4653 114.559 39.3692 114.478 39.2909C114.396 39.2127 114.292 39.1556 114.175 39.1166C114.058 39.0774 113.915 39.0598 113.752 39.0598H113.267L112.691 41.3125C112.681 41.3446 112.663 41.3693 112.631 41.3944C112.599 41.4202 112.552 41.4406 112.488 41.4548C112.424 41.4703 112.339 41.4807 112.239 41.4869C112.136 41.4946 112.011 41.5024 111.862 41.5024C111.716 41.5024 111.591 41.4946 111.495 41.4869C111.403 41.4791 111.328 41.4688 111.271 41.4548C111.218 41.4393 111.179 41.4192 111.161 41.3978C111.14 41.3771 111.135 41.3443 111.145 41.3123L112.53 35.9491C112.562 35.8174 112.629 35.7177 112.736 35.6573C112.846 35.6005 112.967 35.5718 113.11 35.5718H115.142C115.498 35.5718 115.818 35.5976 116.106 35.65C116.394 35.6999 116.64 35.7781 116.843 35.8848C117.046 35.9914 117.202 36.1268 117.309 36.287C117.419 36.4471 117.473 36.6393 117.473 36.8563" fill="#AEA6E1"/>
<path id="Vector_20" d="M139.131 35.7442C139.131 35.7623 139.129 35.7941 139.121 35.8403C139.113 35.8865 139.105 35.9364 139.095 35.9935C139.082 36.0503 139.067 36.1074 139.049 36.1714C139.028 36.2318 139.003 36.2853 138.974 36.3351C138.946 36.385 138.91 36.4276 138.868 36.4632C138.828 36.4953 138.782 36.5131 138.736 36.5131H136.031L135.658 37.9508H137.953C138.006 37.9508 138.045 37.9689 138.07 37.9971C138.091 38.0291 138.102 38.0717 138.102 38.1252C138.102 38.1458 138.103 38.1823 138.095 38.2249C138.087 38.2675 138.079 38.3173 138.069 38.3744C138.053 38.4312 138.041 38.4883 138.019 38.5451C138.001 38.6055 137.976 38.6554 137.948 38.7052C137.92 38.755 137.884 38.7943 137.845 38.8263C137.806 38.8547 137.763 38.8689 137.717 38.8689H135.425L134.991 40.5345H137.735C137.781 40.5345 137.816 40.55 137.838 40.5807C137.864 40.6127 137.873 40.6589 137.873 40.7194C137.873 40.74 137.873 40.7765 137.871 40.8227C137.868 40.8653 137.855 40.9188 137.842 40.9758C137.827 41.0293 137.814 41.0897 137.793 41.1465C137.775 41.2034 137.75 41.2568 137.722 41.3066C137.69 41.3565 137.658 41.3955 137.618 41.4275C137.579 41.4595 137.533 41.4737 137.483 41.4737H133.675C133.611 41.4737 133.554 41.466 133.504 41.4531C133.454 41.4376 133.412 41.4174 133.38 41.3854C133.344 41.3534 133.323 41.3141 133.312 41.2679C133.302 41.2181 133.302 41.1612 133.315 41.0936L134.642 35.9511C134.674 35.8194 134.745 35.7197 134.852 35.6628C134.955 35.6024 135.073 35.5737 135.204 35.5737H138.977C139.076 35.5737 139.131 35.6306 139.131 35.7442Z" fill="#AEA6E1"/>
<path id="Vector_21" d="M159.658 36.0253C159.658 36.0459 159.656 36.0823 159.648 36.1285C159.64 36.1748 159.632 36.2246 159.622 36.2781C159.606 36.3349 159.594 36.3883 159.576 36.4454C159.558 36.5025 159.537 36.5557 159.512 36.6019C159.486 36.6482 159.458 36.6874 159.426 36.7158C159.398 36.7478 159.362 36.762 159.33 36.762C159.273 36.762 159.206 36.744 159.124 36.7052C159.042 36.6696 158.939 36.627 158.821 36.5807C158.7 36.5381 158.562 36.4989 158.401 36.4599C158.241 36.4206 158.06 36.4028 157.857 36.4028C157.647 36.4028 157.469 36.4235 157.323 36.4705C157.174 36.5167 157.056 36.5771 156.96 36.6484C156.868 36.7266 156.796 36.8085 156.754 36.901C156.711 36.9934 156.686 37.0861 156.686 37.1821C156.686 37.2924 156.722 37.3885 156.789 37.4704C156.864 37.5559 156.957 37.6341 157.074 37.7051C157.188 37.7764 157.323 37.8441 157.473 37.9115C157.626 37.9791 157.779 38.0468 157.932 38.1214C158.085 38.1961 158.238 38.2746 158.387 38.3598C158.537 38.4489 158.672 38.5483 158.789 38.6623C158.907 38.7762 158.999 38.9079 159.071 39.0538C159.142 39.1997 159.177 39.3705 159.177 39.5627C159.177 39.8474 159.103 40.1143 158.953 40.3599C158.803 40.6019 158.594 40.8154 158.323 40.9969C158.053 41.1785 157.722 41.3172 157.337 41.424C156.953 41.5273 156.526 41.5771 156.06 41.5771C155.804 41.5771 155.572 41.5616 155.355 41.5309C155.141 41.4989 154.949 41.4596 154.786 41.4134C154.618 41.3671 154.48 41.3209 154.366 41.2711C154.252 41.2212 154.17 41.1714 154.113 41.1288C154.06 41.0826 154.031 41.0113 154.031 40.9224C154.031 40.8966 154.034 40.862 154.042 40.8121C154.052 40.7623 154.062 40.7125 154.074 40.6557C154.089 40.5986 154.106 40.5418 154.127 40.4813C154.145 40.4209 154.17 40.3675 154.195 40.3212C154.223 40.2714 154.252 40.2321 154.287 40.2001C154.319 40.1717 154.355 40.1575 154.394 40.1575C154.462 40.1575 154.54 40.1781 154.632 40.2252C154.721 40.275 154.839 40.3248 154.974 40.3816C155.113 40.4387 155.273 40.4883 155.461 40.5382C155.65 40.588 155.874 40.6128 156.134 40.6128C156.365 40.6128 156.568 40.587 156.743 40.5451C156.913 40.4989 157.059 40.4349 157.177 40.3566C157.294 40.2784 157.383 40.1859 157.444 40.0826C157.504 39.9757 157.536 39.862 157.536 39.7374C157.536 39.6235 157.501 39.5238 157.429 39.4384C157.358 39.353 157.266 39.2747 157.152 39.207C157.034 39.1324 156.906 39.0647 156.757 39.0007C156.611 38.9366 156.461 38.869 156.308 38.7977C156.159 38.7231 156.009 38.6448 155.86 38.5593C155.718 38.4738 155.586 38.3742 155.469 38.2604C155.355 38.1465 155.262 38.0148 155.191 37.8653C155.12 37.7158 155.084 37.545 155.084 37.3457C155.084 37.0717 155.155 36.8226 155.298 36.5913C155.437 36.3599 155.632 36.1571 155.882 35.9934C156.134 35.8297 156.43 35.698 156.778 35.6055C157.127 35.513 157.511 35.4668 157.928 35.4668C158.124 35.4668 158.309 35.4771 158.483 35.5024C158.661 35.5231 158.821 35.5523 158.964 35.5879C159.109 35.6236 159.23 35.6626 159.334 35.7054C159.437 35.7481 159.505 35.7801 159.544 35.8121C159.583 35.8405 159.611 35.8725 159.629 35.9045C159.647 35.9329 159.658 35.9754 159.658 36.0253Z" fill="#AEA6E1"/>
</g>
</g>
</svg>
