<svg width="160" height="44" viewBox="0 0 160 44" fill="none" xmlns="http://www.w3.org/2000/svg">
<g id="Logo_de_Jose&#204;&#129;_Cuervo">
<path id="path16-5" d="M156.48 11.572V12.5902H156.191V10.2695H157.059C157.348 10.2695 157.783 10.4142 157.783 10.8484C157.783 11.1378 157.638 11.2825 157.348 11.4273C157.638 11.4273 157.638 11.572 157.783 11.8614C157.783 12.1508 157.783 12.4403 157.927 12.585H157.493V12.1508C157.348 12.0061 157.348 11.7167 157.348 11.7167C157.204 11.572 157.059 11.572 156.909 11.572H156.48ZM156.48 11.2825H157.059C157.348 11.2825 157.498 11.1378 157.498 10.8484C157.498 10.7037 157.354 10.559 157.059 10.559H156.48V11.2825ZM88.0238 15.4897C88.0238 15.345 89.4762 16.942 89.4762 16.942V29.7029C89.4762 30.5712 92.2309 32.897 93.1044 33.0366C93.6833 32.4577 95.5698 31.0106 97.4563 29.7029C98.7639 31.5894 100.65 32.4577 102.098 33.0366L102.537 32.4577C102.537 32.4577 101.085 29.7029 101.085 28.8295V15.0555C101.085 14.9108 99.6374 13.3138 98.9138 13.0243L96.0091 15.345C96.0091 15.345 97.4563 16.5079 97.4563 16.7973V28.8346C97.4563 28.8346 96.1486 29.7029 95.4302 29.9975C94.9909 30.1423 93.2543 28.5504 93.2543 27.9663V15.345C93.2543 15.0555 91.5125 13.4585 90.7889 13.169L88.0238 15.4897ZM43.9317 15.0555C44.8 15.345 46.3971 17.0867 47.56 17.0867C47.8494 17.0867 48.2835 16.942 48.8676 16.6526C49.6635 16.0014 50.3923 15.2726 51.0435 14.4767L50.6093 14.0425C50.6093 14.0425 49.5963 14.9108 49.157 14.6214C48.2887 14.0425 47.1258 13.0243 46.5469 12.3007C45.384 12.7349 43.5027 13.8978 42.1951 15.0555C41.6162 15.4897 40.598 16.2184 40.0192 16.942C39.001 24.7671 47.7047 23.6093 47.8494 29.1241C47.8494 29.5582 47.8494 30.287 47.56 30.5712C46.9811 30.716 46.5469 30.5712 45.9629 30.2818C45.2393 29.8477 44.2211 29.2636 43.0634 28.9742C42.3398 28.8295 41.3216 29.1189 40.598 29.5531C39.5799 30.4214 38.4221 32.0184 38.4221 32.0184L39.001 32.3078C39.5799 31.5843 40.3086 31.0002 40.7428 31.0002C41.9057 31.2897 43.3528 32.4474 44.371 33.3209C44.8052 33.3209 47.4152 31.8685 49.3017 29.9872C49.8806 29.2636 50.7541 28.1007 50.7541 27.6666C51.1882 20.1258 43.0686 21.8624 43.0686 15.7739C43.0634 15.345 43.3528 14.9108 43.9317 15.0555ZM35.228 13.8926C34.5044 13.4585 34.5044 12.7297 34.6491 11.8614C32.4732 13.169 28.4108 16.358 27.6872 16.9368C27.1084 17.371 26.3796 17.955 26.3796 18.3892C26.2349 20.9993 26.2349 27.0929 26.3796 29.9924C26.5243 30.8607 30.1526 33.326 31.1656 33.326C31.3103 33.4707 34.4993 31.4395 34.4993 31.4395C35.8069 30.716 37.3988 29.5531 37.5435 29.1189C37.9776 26.2194 37.8329 17.371 37.6882 15.7739C37.5486 15.4897 36.1015 14.3268 35.228 13.8926ZM33.9256 30.2818C33.9256 30.5712 33.9256 30.716 33.7808 30.8607C33.0573 30.716 32.1838 30.1371 31.1708 29.4135C30.5919 28.9794 30.0079 28.5452 30.0079 28.2506C30.0079 26.3641 30.0079 19.5469 30.1526 16.7921C30.1526 16.358 30.2973 15.9238 30.442 15.6292C31.3103 15.9187 32.9074 16.4975 33.631 17.2263C33.7757 17.371 33.9204 17.6604 33.9204 17.6604C34.215 20.7098 34.215 27.3823 33.9256 30.2818ZM152.128 13.7479C151.405 13.4585 151.405 12.585 151.549 11.7167C149.373 13.0243 145.606 15.9238 144.732 16.7921C144.148 17.2263 143.285 17.8051 143.285 18.3892C143.14 20.9993 143.14 26.943 143.285 29.8477C143.43 30.716 147.058 33.1813 148.071 33.326C148.216 33.326 151.405 31.4395 151.405 31.4395C152.712 30.5712 154.304 29.4083 154.449 28.9742C154.888 26.0695 154.738 17.2263 154.594 15.7739C154.449 15.345 153.002 14.3268 152.128 13.7479ZM150.826 30.2818V30.716C149.957 30.5712 149.084 29.9924 148.071 29.4083C147.487 28.9742 146.908 28.3901 146.908 28.2454C146.908 26.2194 146.908 19.5417 147.053 16.787C147.053 16.3528 147.198 15.9187 147.198 15.4793C148.216 15.7688 149.808 16.3476 150.531 17.0764C150.821 17.3658 150.821 17.6553 150.821 17.6553C151.115 20.5651 151.26 27.2376 150.826 30.2818ZM20.2912 8.23832C18.8388 9.98009 19.1283 14.4767 19.1283 17.955C18.9835 21.144 19.1283 26.514 19.1283 29.4135C18.9835 35.7966 16.8076 38.5513 15.3553 38.5513C12.1663 38.5513 10.5693 35.6467 9.70099 33.4759C8.6828 31.0106 7.8145 28.9794 6.36733 28.3953C5.78846 28.2506 4.92016 28.2506 4.33613 28.8346C3.75726 29.2688 2.88379 30.4317 2.88379 30.4317C4.62556 30.5764 5.63858 33.0418 6.51205 35.073C7.66978 38.2671 10.1403 40.8771 12.6057 40.8771C16.084 40.7324 20.7253 36.2359 22.4671 32.897C23.9194 29.9975 23.4801 19.8415 23.4801 14.6214C23.3354 8.67764 23.7695 6.35184 25.5113 4.75995L25.3666 4.61523C23.4801 5.18893 21.3042 6.9307 20.2912 8.23832Z" fill="#AEA6E1"/>
<path id="path18-1" d="M14.4876 35.9411C16.0847 34.3441 16.8083 32.1682 16.8083 29.8475V13.7478C16.8083 11.2824 17.3871 9.97479 18.55 8.3829V8.23818C16.5188 9.83524 14.9218 11.7166 14.9218 15.2001V31.2947C15.0562 32.8659 14.8546 34.4474 14.3429 35.936L14.4876 35.9411ZM22.0284 4.46521C21.3048 4.75464 20.4314 4.89936 19.1289 4.89936C17.5319 4.75464 14.0535 3.30231 11.7328 3.73646C8.68862 4.60476 6.5127 7.07011 6.5127 8.37773C6.5127 9.68535 7.95986 10.1195 7.95986 10.1195L8.39401 9.68535C8.39401 9.68535 7.37583 7.50943 8.39401 6.49125C9.70163 5.32834 12.7459 6.49125 14.1982 6.9254C15.0665 7.21483 16.6635 7.35955 17.6766 7.07011C19.7078 6.49125 22.1731 4.60476 22.1731 4.60476L22.0284 4.46521ZM76.7107 33.7652C78.5972 31.8787 79.7549 29.9922 79.7549 26.6586V14.3266C79.7549 9.54064 80.6232 8.23302 81.7861 6.93056V37.0989C75.982 34.9229 74.1006 28.6846 74.1006 21.578C74.1006 14.0372 75.5478 8.37773 81.7861 4.32049L81.6414 4.03106C78.163 5.4834 73.9559 8.96177 72.2141 11.2824C70.4724 13.7478 69.4594 18.2443 69.4594 23.6092C69.4594 32.1682 73.6665 40.7271 83.5279 40.7271C90.3451 40.7271 93.9682 35.2124 93.9682 35.2124L93.6788 34.9229C92.0817 36.52 89.9058 37.8224 85.9933 37.8224C84.6856 37.8224 83.3832 37.6777 82.5149 37.3883V6.64113C83.0938 6.49641 83.6778 6.64113 84.2567 6.78585C85.9984 7.22 86.4326 7.65415 88.3191 7.65415C89.482 7.65415 90.9291 6.93056 91.6527 6.34653C92.521 5.62294 93.5392 4.74947 93.5392 4.74947L93.3945 4.46004C93.3945 4.46004 92.3763 5.03891 91.2186 5.03891C89.3321 5.03891 86.2879 2.86299 84.4014 4.31532L81.7913 6.49125C78.7471 8.81188 77.7289 11.5667 77.7289 14.9055C77.8736 18.8232 77.7289 26.5087 77.7289 27.961C77.8736 29.8475 77.8736 32.0183 76.566 33.3259L76.7107 33.7652ZM63.6552 17.376C63.7999 17.376 60.7557 13.7478 59.5928 12.59C59.5928 12.59 57.851 13.4583 56.3987 14.6212C54.2227 16.363 52.7704 17.376 52.7704 17.6655V29.7028C52.9151 30.5711 56.5434 33.0365 58.7141 33.4758C58.8589 33.4758 61.3242 31.734 61.1795 31.8787C61.3242 31.734 61.6136 31.4446 61.7584 31.4446C62.27 30.9381 62.8024 30.4574 63.3554 29.9974L62.9213 29.4134C61.9082 30.2817 60.8901 30.8605 60.3112 30.721C58.7141 29.9974 56.3935 28.5502 56.3935 28.2556V24.4827C57.8562 23.175 63.0763 18.6785 63.6552 17.376ZM57.1326 15.6343C57.422 15.6343 60.3267 19.1126 60.3267 19.2625C60.3267 19.6967 57.8613 22.0173 56.409 23.4696V17.2313C56.4038 15.6343 56.5486 15.6343 57.1326 15.6343ZM115.288 17.2313C115.288 17.0866 112.389 13.4583 111.081 12.3006C111.081 12.3006 109.339 13.3188 108.032 14.3318C105.711 16.2183 104.259 17.0866 104.259 17.376V29.5581C104.403 30.4264 108.176 32.7522 110.202 33.1863C110.347 33.1863 112.957 31.4446 112.668 31.5893C112.957 31.4446 113.102 31.2999 113.252 31.1551L114.993 29.7028L114.559 29.1239C113.541 29.9922 112.528 30.721 111.805 30.4316C110.357 29.708 108.032 28.4003 108.032 27.9662V24.1932C109.489 22.8856 114.709 18.389 115.288 17.2313ZM108.621 15.3448C109.055 15.3448 111.954 18.9731 111.954 19.1178C111.954 19.5519 109.344 21.7279 108.037 23.1802V16.9367C108.037 15.3448 108.181 15.3448 108.621 15.3448ZM124.576 12.4401C123.268 14.0372 122.11 15.1949 121.382 16.2131C121.237 15.6343 119.785 13.7478 118.772 12.8795L116.017 15.3448C116.017 15.3448 117.614 16.9419 117.614 17.376V30.4316C117.614 31.0156 119.645 32.8969 120.519 33.1863L123.273 31.1603C123.273 31.1603 121.387 29.5633 121.387 29.2738V17.376C121.387 17.376 122.11 16.5077 122.694 16.0684C123.279 16.2131 125.165 18.9679 125.165 18.9679C125.165 18.9679 127.63 16.2131 127.191 15.4895C126.752 14.766 125.444 13.4583 124.576 12.4401ZM140.67 16.2131C140.381 13.1689 138.644 12.5849 138.644 10.5588C138.644 9.97996 138.789 9.39592 139.223 8.3829L139.079 8.09347C137.192 9.25637 135.89 10.7035 135.89 12.1559C135.745 13.8976 136.758 14.6212 136.903 15.9289C137.192 18.9731 137.342 24.922 136.758 28.9844C136.758 29.708 136.613 30.292 136.468 30.7262C135.631 30.0956 134.763 29.5167 133.858 28.9844C133.714 28.8397 133.424 28.695 132.99 28.5502V15.0606C132.845 14.7711 130.959 12.8846 130.814 12.8846L128.059 15.0606L129.367 16.5129C129.367 19.123 129.512 26.8085 129.222 28.5502C129.222 29.2738 128.788 29.8579 128.354 30.4367V30.5814C129.222 30.5814 130.24 31.0208 131.548 31.7443C133.869 33.1915 134.013 33.4861 134.158 33.4861L136.623 31.5996C137.931 30.7313 140.252 28.7001 140.396 28.5554C140.82 25.351 140.82 18.9679 140.67 16.2131Z" fill="#AEA6E1"/>
</g>
</svg>
