<svg width="160" height="56" viewBox="0 0 160 56" fill="none" xmlns="http://www.w3.org/2000/svg">
<g id="justo 1">
<g id="justo-logo-primary">
<g id="Group">
<path id="Path" d="M44.1619 17.3245C43.3527 16.8235 42.4664 16.4381 41.6571 16.3611C40.8093 16.3225 39.923 16.5537 39.2679 17.0547C37.8806 18.0566 36.9172 20.3302 37.0328 21.9487C37.187 23.7984 38.4972 25.4555 40.2313 26.2647C42.081 27.1125 44.6629 27.074 46.2429 25.7638C47.3989 24.8004 47.8613 23.1433 47.6301 21.679C47.2833 19.7907 45.7419 18.3649 44.1619 17.3245Z" fill="#AEA6E1"/>
<path id="Path_1_" d="M38.266 6.65015V9.81007C38.266 10.1954 37.9577 10.5422 37.5723 10.5808L35.106 10.8891C34.7207 10.9276 34.4124 11.2744 34.4124 11.6598V34.4729C34.4124 39.0586 33.3334 43.9141 29.6725 46.997C25.5492 50.5422 19.2679 51.1203 14.1041 50.3881C9.82666 49.7715 5.43359 47.5365 5.43359 42.6424C5.43359 38.9816 7.36038 36.3997 11.2139 36.3997C13.6802 36.3997 15.7611 37.6328 16.8401 39.8679C17.6109 41.4478 17.6494 43.2205 18.3816 44.7619C18.8055 45.6482 19.8845 45.995 20.3854 44.9931C20.7708 44.2609 20.6552 43.259 20.6166 42.4883C20.3854 36.1684 20.501 29.8101 20.501 23.4902C20.501 20.2532 20.501 16.9777 20.501 13.7407C20.501 13.0471 20.501 12.392 20.501 11.6983C20.501 11.313 20.2313 10.9661 19.8459 10.9276L18.1118 10.6579C17.7265 10.6193 17.4567 10.2725 17.4567 9.88714V6.68868C17.4567 6.26479 17.8035 5.91797 18.2274 5.91797H37.5338C37.9191 5.87943 38.266 6.22625 38.266 6.65015Z" fill="#AEA6E1"/>
<path id="Path_2_" d="M96.6089 23.7214C96.6089 26.3804 94.1812 27.6906 91.6378 27.7292C90.212 27.7292 88.9789 27.0355 88.054 26.0336C87.0521 24.9546 86.7823 23.4517 85.8189 22.3727C84.5858 21.0239 82.659 22.7581 81.9268 23.76C81.1947 24.839 81.1561 26.1107 82.2737 26.9584C83.1985 27.6521 84.4316 27.9604 85.5492 28.2687C88.555 29.0779 91.7534 29.6945 94.3353 31.4671C96.9557 33.3168 98.1118 36.1299 98.1118 39.1357C98.1503 48.4999 89.7496 50.8891 82.7746 50.9276C78.5357 50.9661 70.3276 50.4652 70.2891 44.4151C70.2891 41.6791 72.4856 39.4055 75.4143 39.3669C77.3026 39.3669 78.9596 40.1376 80 41.602C80.4625 42.2571 80.8478 42.9507 81.079 43.7214C81.4644 45.0317 81.7341 46.3419 83.3912 46.6502C84.0848 46.7658 84.817 46.6887 85.5106 46.496C86.6667 46.1877 87.7842 45.5712 88.3623 44.6078C90.4817 41.0625 84.2004 39.8679 81.8883 39.1742C78.5742 38.2108 74.9904 36.9006 73.2178 33.8949C72.3315 32.4305 71.9846 30.7349 71.9846 29.0394C71.9461 19.7908 80.3469 17.6713 87.3218 17.6328C92.6397 17.6328 96.6089 19.3669 96.6089 23.7214Z" fill="#AEA6E1"/>
<path id="Shape" d="M138.381 17.7101C128.902 17.7101 122.004 24.2226 122.004 34.2804C122.004 36.2843 122.274 38.0954 122.775 39.791C122.543 40.0607 122.274 40.3305 122.042 40.6002C120.925 41.7563 119.653 42.8353 118.189 43.4904C117.457 43.7987 116.57 44.0299 115.761 43.7987C113.834 43.2207 113.834 40.4076 113.834 38.4037V25.1475C113.834 24.4923 114.374 23.9528 115.029 23.9528H120.154C121.002 23.9528 121.734 23.2592 121.734 22.3729V18.7891C121.734 18.134 121.195 17.5945 120.539 17.5945H115.029C114.374 17.5945 113.834 17.055 113.834 16.3999V7.11277C113.834 6.38059 113.141 5.80256 112.447 5.9567C112.37 5.9567 112.293 5.99524 112.216 5.99524L103.43 6.03377C102.274 6.03377 101.85 6.4962 101.811 7.07423C101.811 7.11277 101.811 7.88348 101.811 7.92202V16.3999C101.811 17.055 101.272 17.5945 100.617 17.5945H99.1907C98.5356 17.5945 97.9961 18.134 97.9961 18.7891V22.7968C97.9961 23.4519 98.5356 23.9914 99.1907 23.9914H100.617C101.272 23.9914 101.811 24.5309 101.811 25.186V38.8276C101.811 45.9952 103.198 50.5424 111.368 50.5424C112.062 50.5424 112.755 50.5039 113.449 50.3883V50.4268C116.185 50.0029 118.921 49.1166 121.156 47.4211C122.543 46.3421 123.661 44.9933 124.432 43.4904C127.206 48.1918 132.293 50.9278 138.42 50.9278C147.9 50.9278 154.798 44.4538 154.798 34.3575C154.759 24.2226 147.861 17.7101 138.381 17.7101ZM141.117 42.7968C141.079 42.7968 141.079 42.7968 141.04 42.8353C138.189 43.7216 135.491 42.2958 133.911 40.0993C132.023 37.4403 130.52 33.3941 131.368 30.08C131.869 28.1532 133.256 26.5347 135.222 25.8796C140.424 24.1841 143.314 29.4634 144.586 33.2399C146.166 37.8257 144.586 41.6407 141.117 42.7968Z" fill="#AEA6E1"/>
<path id="Path_3_" d="M69.4032 26.496C69.2876 25.8024 69.1719 25.7253 69.0563 25.0317C68.9407 24.3766 68.8251 23.7215 68.5939 23.1049L67.7847 20.2918C67.592 19.6367 66.8598 19.2513 66.2047 19.4826L62.6594 20.6772C61.696 20.9854 60.7326 21.4093 60.0005 21.7947C59.5766 21.9874 59.1527 22.2571 58.96 22.681C58.7673 23.0664 58.8444 23.5288 58.9215 23.9142C59.2683 26.0336 59.7693 27.4594 59.9234 29.5789C60.0775 31.8525 59.8849 34.4729 58.2664 36.2456C56.802 37.8255 54.6055 38.6733 52.4475 38.5962C49.3261 38.4421 46.6286 36.207 45.1642 33.5481C44.0467 31.4671 44.2394 29.9643 42.4282 29.8486C41.0024 29.7716 39.6151 30.6579 38.4205 31.1589C38.0737 31.313 37.4956 31.6598 37.2644 31.9681C36.5708 32.9315 37.3415 34.5885 37.6498 35.7831C37.7654 36.2456 37.9195 36.708 38.0737 37.1704C39.6536 41.8332 42.9677 46.8814 47.7461 49.3091C51.1758 51.0818 55.4533 51.3515 59.1141 50.1569C65.4725 48.076 69.1334 41.9874 69.8271 35.7061C70.1353 32.6617 69.8656 29.5404 69.4032 26.496Z" fill="#AEA6E1"/>
<path id="Path_4_" d="M58.4198 12.8542C58.8051 13.124 59.3446 12.9313 59.7685 12.9313C61.1558 12.8927 62.8128 13.5478 63.1211 15.0507C63.5836 17.2087 61.0402 18.2492 59.5759 19.097C58.1886 19.9062 56.7628 20.6769 55.3369 21.4477C54.3735 21.9486 52.7165 23.3744 51.7917 22.2184C51.599 21.9101 51.4834 21.5247 51.4448 21.1394C51.1751 19.5979 51.1751 18.018 51.1365 16.438C51.098 14.2029 51.3292 11.6596 53.1789 10.1567C53.9882 9.5016 55.1443 9.23185 56.1462 9.57867C57.4179 10.0026 57.8032 11.1201 58.15 12.2762C58.15 12.4688 58.2271 12.7386 58.4198 12.8542Z" fill="#AEA6E1"/>
</g>
</g>
</g>
</svg>
