<svg width="160" height="69" viewBox="0 0 160 69" fill="none" xmlns="http://www.w3.org/2000/svg">
<g id="mizco 1">
<path id="Vector" d="M21.3405 27.5324C24.0209 23.2541 26.5982 19.1304 29.0725 15.0066C29.5879 14.1304 30.1549 13.7695 31.2374 13.8211C33.9178 13.9242 36.5467 13.8726 39.2271 13.8211C40.1034 13.8211 40.4127 14.0273 40.4127 14.9551C40.4127 26.0891 40.4127 37.2231 40.4127 48.3056C40.4127 49.2335 40.0518 49.4396 39.2271 49.3881C36.7529 49.3881 34.2271 49.285 31.7529 49.3881C30.5673 49.3881 30.3611 48.9757 30.3611 47.9448C30.3611 41.9139 30.3611 35.8829 30.1034 29.6458C27.1653 34.0273 24.2787 38.4603 21.2374 43.0479C18.2477 38.5118 15.3096 34.1304 12.3714 29.6974C11.856 30.2128 12.0622 30.7798 12.0622 31.2438C12.0622 36.8108 12.0622 42.4293 12.0622 47.9963C12.0622 49.1304 11.7529 49.3881 10.6189 49.3881C8.19618 49.285 5.72195 49.3365 3.29927 49.3881C2.52608 49.3881 2.2168 49.1819 2.2168 48.3572C2.2168 37.1716 2.2168 25.986 2.2168 14.8005C2.2168 13.9242 2.57762 13.7695 3.35082 13.7695C6.18587 13.7695 9.02092 13.8211 11.856 13.7695C12.8354 13.7695 13.0931 14.3365 13.5055 14.9551C16.0828 19.0788 18.6086 23.2025 21.289 27.5324H21.3405Z" fill="#AEA6E1"/>
<path id="Vector_2" d="M70.9791 40.9864C76.4945 40.9864 81.7007 41.038 86.8553 40.9864C88.3502 40.9864 88.9687 41.2957 88.8141 42.8936C88.6595 44.6977 88.711 46.5019 88.8141 48.306C88.8141 49.1823 88.5564 49.44 87.6801 49.44C77.8863 49.44 68.0409 49.44 58.2471 49.44C57.2677 49.44 57.1131 49.0792 57.01 48.2029C56.5461 44.2854 57.5254 41.141 60.5151 38.2544C65.1028 33.7184 69.1749 28.7184 73.5048 23.9245C73.9172 23.4606 74.278 23.0483 74.8966 22.3266C69.7419 22.3266 64.845 22.3266 59.9997 22.3266C58.4533 22.3266 57.6801 21.5534 57.6801 20.007C57.6801 18.306 57.6801 16.605 57.6801 14.9039C57.6801 14.0792 57.9378 13.8215 58.7626 13.873C68.4533 13.873 78.144 13.873 87.8863 13.873C88.7626 13.873 88.9172 14.2338 88.9172 15.007C88.9172 16.7596 88.8657 18.5122 88.9172 20.2648C88.9172 21.141 88.4533 21.605 87.9894 22.172C82.9378 27.7905 77.8863 33.4606 72.7832 39.1307C72.2677 39.6977 71.7522 40.2648 71.0821 41.0895L70.9791 40.9864Z" fill="#AEA6E1"/>
<path id="Vector_3" d="M159.021 31.5534C159.021 41.7596 151.237 49.44 140.877 49.44C130.567 49.44 122.835 41.8627 122.887 31.7081C122.887 21.5534 130.774 13.873 141.083 13.9246C151.289 13.9246 159.021 21.5534 159.021 31.605V31.5534ZM141.031 43.7184C147.681 43.7184 152.578 38.6668 152.629 31.8112C152.629 24.7493 147.681 19.5431 140.98 19.5431C134.33 19.5431 129.433 24.5947 129.382 31.4503C129.382 38.5122 134.279 43.7184 141.031 43.7184Z" fill="#AEA6E1"/>
<path id="Vector_4" d="M106.443 49.3884C98.5569 49.3884 90.928 42.4812 90.3094 33.409C89.5878 23.4606 95.7218 15.6255 105.309 14.1307C111.031 13.2544 116.186 14.5431 120.67 18.306C121.443 18.9245 121.804 19.3884 120.876 20.2647C119.794 21.2441 119.072 22.9967 117.887 23.409C116.701 23.8214 115.722 22.0173 114.485 21.3472C110.155 19.0276 105.825 18.7183 101.701 21.5534C97.5259 24.44 96.1342 28.7183 96.8558 33.5637C97.5775 38.6152 100.309 42.2235 105.516 43.4606C109.846 44.4915 113.711 43.2029 116.907 40.2132C117.784 39.3884 118.351 39.3884 119.021 40.3163C119.227 40.574 119.485 40.7802 119.742 41.0379C121.323 42.653 121.22 44.1822 119.433 45.6255C116.083 48.306 112.217 49.44 106.443 49.44V49.3884Z" fill="#AEA6E1"/>
<path id="Vector_5" d="M54.2783 14.3885C54.2783 25.7287 54.2783 37.0689 54.3299 48.4091C54.3299 49.2339 54.1237 49.4916 53.2989 49.4401C50.6185 49.4401 47.9897 49.4401 45.3092 49.4401C44.6391 49.4401 44.2783 49.337 44.2783 48.5638C44.2783 37.1205 44.3299 25.6772 44.3814 14.2339C45.9793 17.2236 47.5773 20.2133 49.2783 23.4091C49.8453 22.3782 50.2577 21.5535 50.7216 20.7287C51.9072 18.6669 52.6804 16.2957 54.2783 14.4401V14.3885Z" fill="#AEA6E1"/>
</g>
</svg>
