<svg width="160" height="69" viewBox="0 0 160 69" fill="none" xmlns="http://www.w3.org/2000/svg">
<g id="nadro-seeklogo 1">
<path id="Vector" fill-rule="evenodd" clip-rule="evenodd" d="M81.9072 28.873H79.2783L68.0928 47.6875H71.1856L73.6082 43.5122H87.2165L90.0515 47.6875H93.1443L81.9588 28.873H81.9072ZM75.5155 39.8009L80.567 31.6566L85.2577 39.8009H75.5155Z" fill="#AEA6E1"/>
<path id="Vector_2" fill-rule="evenodd" clip-rule="evenodd" d="M112.011 38.3058C111.134 24.6976 94.6396 28.8728 94.6396 28.8728V47.6873C112.887 50.9862 112.011 38.2543 112.011 38.2543M97.0623 45.3161V30.8316C97.0623 30.8316 109.124 28.8728 109.124 38.3058C109.124 38.3058 109.124 48.8728 97.0623 45.3161Z" fill="#AEA6E1"/>
<path id="Vector_3" fill-rule="evenodd" clip-rule="evenodd" d="M121.649 38.306C126.237 38.7699 126.907 34.3369 126.907 34.3369C127.371 27.9451 121.649 28.306 121.649 28.306H113.093V48.306H115.928L116.134 39.8523H119.227L124.536 48.306H128.247L121.649 38.3575V38.306ZM116.134 36.2441V30.574H121.856C121.856 30.574 125.309 31.6049 123.66 34.8008C123.299 35.5225 122.68 35.7286 121.856 36.2441H116.134Z" fill="#AEA6E1"/>
<path id="Vector_4" fill-rule="evenodd" clip-rule="evenodd" d="M139.227 27.7388C133.041 27.7388 128.041 32.481 128.041 38.3058C128.041 44.1305 133.041 48.8728 139.227 48.8728C145.412 48.8728 150.412 44.1305 150.412 38.3058C150.412 32.481 145.412 27.7388 139.227 27.7388ZM139.227 46.1924C134.845 46.1924 131.34 42.6357 131.34 38.3058C131.34 33.9759 134.897 30.4192 139.227 30.4192C143.556 30.4192 147.113 33.9759 147.113 38.3058C147.113 42.6357 143.556 46.1924 139.227 46.1924Z" fill="#AEA6E1"/>
<path id="Vector_5" fill-rule="evenodd" clip-rule="evenodd" d="M52.0107 48.2026H61.8561L52.2169 33.6665L52.0107 48.2026Z" fill="#AEA6E1"/>
<g id="Group">
<path id="Vector_6" d="M12.7317 40.2646L7.7832 48.8213L12.7317 57.378H22.6286L25.7213 52.0172L19.175 40.2646H12.7317Z" fill="#AEA6E1"/>
<path id="Vector_7" d="M32.0098 28.2545L32.9892 26.605H26.2881L18.917 39.8009L19.1747 40.2648H22.6283L27.5768 48.8215L25.7211 52.0174L26.2881 52.9967H40.9788L43.6593 48.2029H43.4015L32.0098 28.2545Z" fill="#AEA6E1"/>
<path id="Vector_8" d="M22.6284 40.2646H19.1748L25.7212 52.0172L27.5769 48.8213L22.6284 40.2646Z" fill="#AEA6E1"/>
<path id="Vector_9" d="M22.6284 40.2646H19.1748L25.7212 52.0172L27.5769 48.8213L22.6284 40.2646Z" fill="#AEA6E1" fill-opacity="0.988235"/>
<path id="Vector_10" d="M77.4738 28.2543L66.1336 8.35742H43.4016L32.9893 26.6048H40.9789L48.3501 39.8007L43.6594 48.2028H48.5047V27.7389H53.3501L63.1954 42.6358V27.7389H66.7521V47.1203L77.4738 28.2543Z" fill="#AEA6E1"/>
<path id="Vector_11" d="M40.9788 26.605H32.9891L32.0098 28.2545L43.4015 48.2029H43.6592L48.35 39.8009L40.9788 26.605Z" fill="#AEA6E1"/>
<path id="Vector_12" d="M40.9788 26.605H32.9891L32.0098 28.2545L43.4015 48.2029H43.6592L48.35 39.8009L40.9788 26.605Z" fill="#AEA6E1"/>
</g>
<path id="Vector_13" d="M65.7731 58.9758C66.1855 59.2336 66.7525 59.4397 67.3195 59.4397C68.1958 59.4397 68.7628 58.9758 68.7628 58.3057C68.7628 57.6356 68.402 57.3263 67.4742 56.9655C66.3917 56.5532 65.6701 55.9861 65.6701 55.0583C65.6701 54.1305 66.5463 53.2026 67.8865 53.2026C69.2268 53.2026 69.0721 53.3573 69.3814 53.5119L69.1237 54.2336C68.9175 54.0789 68.4536 53.9243 67.835 53.9243C66.9072 53.9243 66.5463 54.4913 66.5463 54.9552C66.5463 55.4191 66.9587 55.883 67.8865 56.2439C69.0206 56.7078 69.5876 57.2233 69.5876 58.2542C69.5876 59.2851 68.8144 60.2129 67.2164 60.2129C65.6185 60.2129 65.8247 60.0068 65.4639 59.749L65.6701 59.0274L65.7731 58.9758Z" fill="#AEA6E1"/>
<path id="Vector_14" d="M74.2783 58.873C74.2783 59.2854 74.2783 59.6978 74.3298 60.0586H73.5567V59.44H73.4536C73.1958 59.8009 72.6804 60.1617 71.9587 60.1617C70.9793 60.1617 70.4639 59.4916 70.4639 58.7699C70.4639 57.5844 71.4948 56.9658 73.402 56.9658V56.8627C73.402 56.4503 73.2989 55.7287 72.3195 55.7287C71.8556 55.7287 71.3917 55.8833 71.0309 56.0895L70.8247 55.471C71.2371 55.2132 71.8041 55.0586 72.4226 55.0586C73.9175 55.0586 74.2783 56.0895 74.2783 57.0174V58.8215V58.873ZM73.402 57.5328C72.4226 57.5328 71.3402 57.6875 71.3402 58.6153C71.3402 59.5431 71.701 59.44 72.1649 59.44C72.7835 59.44 73.2474 59.0277 73.3505 58.6153C73.3505 58.5122 73.3505 58.4091 73.3505 58.3576V57.5328H73.402Z" fill="#AEA6E1"/>
<path id="Vector_15" d="M76.598 52.8936H75.7217V60.0585H76.598V52.8936Z" fill="#AEA6E1"/>
<path id="Vector_16" d="M82.1647 58.6668C82.1647 59.1822 82.1647 59.6462 82.1647 60.007H81.3915V59.2338H81.34C81.1338 59.6462 80.6183 60.1616 79.742 60.1616C78.8658 60.1616 78.041 59.7492 78.041 58.0482V55.2132H78.9173V57.8936C78.9173 58.8214 79.2266 59.44 79.9998 59.44C80.773 59.44 81.0307 59.0276 81.1853 58.6152C81.1853 58.5121 81.2884 58.3575 81.2884 58.1513V55.1616H82.1647V58.7183V58.6668Z" fill="#AEA6E1"/>
<path id="Vector_17" d="M87.8347 52.8936V58.7698C87.8347 59.1822 87.8347 59.6977 87.8347 60.007H87.0615V59.1822H87.01C86.7522 59.7492 86.1852 60.1616 85.3605 60.1616C84.1749 60.1616 83.2471 59.1822 83.2471 57.6874C83.2471 56.0894 84.278 55.0585 85.412 55.0585C86.546 55.0585 86.6491 55.4193 86.9069 55.7802V52.8936H87.7832H87.8347ZM86.9584 57.1204C86.9584 57.0173 86.9584 56.8626 86.9584 56.7595C86.8038 56.1925 86.3399 55.7286 85.6697 55.7286C84.9996 55.7286 84.2264 56.5533 84.2264 57.5843C84.2264 58.6152 84.7419 59.3884 85.6697 59.3884C86.5976 59.3884 86.8038 58.976 86.9584 58.3059C86.9584 58.2028 86.9584 58.0482 86.9584 57.9451V57.1204Z" fill="#AEA6E1"/>
<path id="Vector_18" d="M94.8457 58.873C94.8457 59.2854 94.8457 59.6978 94.8972 60.0586H94.124V59.44H94.0209C93.7632 59.8009 93.2477 60.1617 92.5261 60.1617C91.5467 60.1617 91.0312 59.4916 91.0312 58.7699C91.0312 57.5844 92.0622 56.9658 93.9694 56.9658V56.8627C93.9694 56.4503 93.8663 55.7287 92.8869 55.7287C92.423 55.7287 91.9591 55.8833 91.5983 56.0895L91.3921 55.471C91.8044 55.2132 92.3714 55.0586 92.99 55.0586C94.4849 55.0586 94.8457 56.0895 94.8457 57.0174V58.8215V58.873ZM94.0209 57.5328C93.0416 57.5328 91.9591 57.6875 91.9591 58.6153C91.9591 59.5431 92.3199 59.44 92.7838 59.44C93.4024 59.44 93.8148 59.0277 93.9694 58.6153C93.9694 58.5122 93.9694 58.4091 93.9694 58.3576V57.5328H94.0209Z" fill="#AEA6E1"/>
<path id="Vector_19" d="M99.4844 53.9759V55.1614H100.773V55.8315H99.4844V58.4604C99.4844 59.079 99.6391 59.3882 100.155 59.3882C100.67 59.3882 100.515 59.3882 100.67 59.3367V60.0068C100.515 60.0583 100.258 60.1099 99.9484 60.1099C99.6391 60.1099 99.2267 59.9552 98.969 59.7491C98.7112 59.4913 98.6082 59.0274 98.6082 58.4604V55.78H97.835V55.1099H98.6082V54.182L99.4844 53.9243V53.9759Z" fill="#AEA6E1"/>
<path id="Vector_20" d="M106.082 57.5326C106.082 59.3367 104.845 60.1099 103.659 60.1099C102.474 60.1099 101.34 59.1305 101.34 57.5842C101.34 56.0378 102.422 55.0068 103.763 55.0068C105.103 55.0068 106.082 56.0378 106.082 57.4811M102.216 57.5842C102.216 58.6666 102.835 59.4398 103.711 59.4398C104.587 59.4398 105.206 58.6666 105.206 57.5326C105.206 56.3986 104.793 55.6769 103.763 55.6769C102.732 55.6769 102.268 56.6563 102.268 57.5842" fill="#AEA6E1"/>
<path id="Vector_21" d="M111.391 52.8936V58.7698C111.391 59.1822 111.391 59.6977 111.391 60.007H110.618V59.1822H110.567C110.309 59.7492 109.742 60.1616 108.917 60.1616C107.732 60.1616 106.804 59.1822 106.804 57.6874C106.804 56.0894 107.835 55.0585 108.969 55.0585C110.103 55.0585 110.206 55.4193 110.412 55.7802V52.8936H111.288H111.391ZM110.515 57.1204C110.515 57.0173 110.515 56.8626 110.515 56.7595C110.36 56.1925 109.896 55.7286 109.226 55.7286C108.556 55.7286 107.783 56.5533 107.783 57.5843C107.783 58.6152 108.299 59.3884 109.226 59.3884C110.154 59.3884 110.36 58.976 110.515 58.3059C110.515 58.2028 110.515 58.0482 110.515 57.9451V57.1204Z" fill="#AEA6E1"/>
<path id="Vector_22" d="M117.319 57.5326C117.319 59.3367 116.082 60.1099 114.897 60.1099C113.711 60.1099 112.577 59.1305 112.577 57.5842C112.577 56.0378 113.66 55.0068 115 55.0068C116.34 55.0068 117.319 56.0378 117.319 57.4811M113.453 57.5842C113.453 58.6666 114.072 59.4398 114.948 59.4398C115.825 59.4398 116.443 58.6666 116.443 57.5326C116.443 56.3986 116.031 55.6769 115 55.6769C113.969 55.6769 113.505 56.6563 113.505 57.5842" fill="#AEA6E1"/>
<path id="Vector_23" d="M128.454 57.0173C128.454 56.0895 128.351 54.9039 128.351 54.0792C128.093 54.8524 127.835 55.7287 127.474 56.6565L126.289 59.9555H125.619L124.536 56.7081C124.227 55.7287 123.969 54.8524 123.763 54.0792C123.763 54.9039 123.711 56.038 123.608 57.0689L123.454 59.9555H122.629L123.093 53.1514H124.227L125.361 56.4503C125.619 57.2751 125.876 58.0483 126.031 58.7184C126.237 58.0483 126.443 57.2751 126.753 56.4503L127.938 53.1514H129.072L129.485 59.9555H128.608L128.454 56.9658V57.0173Z" fill="#AEA6E1"/>
<path id="Vector_24" d="M131.34 57.7386C131.34 58.9241 132.113 59.4396 132.99 59.4396C133.866 59.4396 134.021 59.3365 134.33 59.1819L134.484 59.8004C134.175 59.9551 133.608 60.1097 132.835 60.1097C131.34 60.1097 130.464 59.1303 130.464 57.6355C130.464 56.1406 131.34 55.0066 132.732 55.0066C134.124 55.0066 134.742 56.3984 134.742 57.2747C134.742 58.1509 134.742 57.5839 134.742 57.687H131.34V57.7386ZM133.917 57.12C133.917 56.553 133.711 55.6767 132.68 55.6767C131.649 55.6767 131.392 56.5015 131.34 57.12H133.917ZM134.124 53.0479L132.887 54.4912H132.268L133.144 53.0479H134.124Z" fill="#AEA6E1"/>
<path id="Vector_25" d="M136.237 55.1616L136.907 56.1925C137.113 56.4503 137.268 56.708 137.423 56.9657C137.577 56.708 137.732 56.4503 137.938 56.1925L138.608 55.1616H139.587L137.938 57.5328L139.639 60.0585H138.66L137.938 58.9761C137.732 58.7183 137.577 58.409 137.423 58.1513C137.268 58.4606 137.113 58.7183 136.907 58.9761L136.185 60.0585H135.206L136.959 57.5843L135.309 55.2132H136.289L136.237 55.1616Z" fill="#AEA6E1"/>
<path id="Vector_26" d="M141.495 53.7696C141.495 54.0789 141.288 54.3367 140.928 54.3367C140.567 54.3367 140.412 54.0789 140.412 53.7696C140.412 53.4604 140.618 53.2026 140.979 53.2026C141.34 53.2026 141.546 53.4604 141.546 53.7696M140.515 55.1614H141.391V60.0583H140.515V55.1614Z" fill="#AEA6E1"/>
<path id="Vector_27" d="M146.34 59.8524C146.134 59.9555 145.618 60.1101 144.948 60.1101C143.453 60.1101 142.525 59.1308 142.525 57.6359C142.525 56.1411 143.556 55.0586 145.154 55.0586C146.752 55.0586 146.134 55.2132 146.391 55.3163L146.185 55.9864C145.979 55.8833 145.618 55.7802 145.154 55.7802C144.02 55.7802 143.453 56.605 143.453 57.6359C143.453 58.6668 144.175 59.44 145.154 59.44C146.134 59.44 145.979 59.3369 146.237 59.2339L146.391 59.904L146.34 59.8524Z" fill="#AEA6E1"/>
<path id="Vector_28" d="M151.701 57.5326C151.701 59.3367 150.464 60.1099 149.279 60.1099C148.093 60.1099 146.959 59.1305 146.959 57.5842C146.959 56.0378 148.041 55.0068 149.382 55.0068C150.722 55.0068 151.701 56.0378 151.701 57.4811M147.887 57.5842C147.887 58.6666 148.505 59.4398 149.382 59.4398C150.258 59.4398 150.877 58.6666 150.877 57.5326C150.877 56.3986 150.464 55.6769 149.433 55.6769C148.402 55.6769 147.938 56.6563 147.938 57.5842" fill="#AEA6E1"/>
<path id="Vector_29" d="M153.918 28.9244C153.918 30.2646 152.835 31.2955 151.495 31.2955C150.155 31.2955 149.072 30.2646 149.072 28.9244C149.072 27.5842 150.155 26.5532 151.495 26.5532C152.835 26.5532 153.866 27.5842 153.866 28.9244M149.691 28.9244C149.691 29.9553 150.464 30.78 151.546 30.78C152.577 30.78 153.351 29.9553 153.351 28.9244C153.351 27.8934 152.577 27.0171 151.546 27.0171C150.516 27.0171 149.742 27.8419 149.742 28.8728M151.134 30.1615H150.567V27.7903C150.773 27.7903 151.083 27.7388 151.495 27.7388C151.907 27.7388 152.113 27.7903 152.32 27.945C152.474 28.0481 152.577 28.2027 152.577 28.4604C152.577 28.7182 152.371 28.9244 152.113 29.0274C152.32 29.1305 152.474 29.3367 152.526 29.646C152.577 30.0068 152.629 30.1099 152.681 30.213H152.113C152.062 30.1099 152.01 29.9037 151.907 29.646C151.907 29.3883 151.701 29.2852 151.443 29.2852H151.186V30.213L151.134 30.1615ZM151.134 28.8213H151.392C151.701 28.8213 151.959 28.7182 151.959 28.4604C151.959 28.2027 151.804 28.0996 151.443 28.0996C151.083 28.0996 151.186 28.0996 151.134 28.0996V28.7697V28.8213Z" fill="#AEA6E1"/>
</g>
</svg>
