<svg width="160" height="42" viewBox="0 0 160 42" fill="none" xmlns="http://www.w3.org/2000/svg">
<g clip-path="url(#clip0_1312_10450)">
<path d="M41.1647 25.4454H44.7689C46.1811 25.4454 46.7081 25.9302 46.7081 27.1105C46.7081 28.2487 46.1811 28.7335 44.7689 28.7335H41.1647V25.4454ZM35.5791 37.4596H41.1647V32.5696H47.1296C51.0922 32.5696 52.5044 30.23 52.5044 27.237C52.5044 23.7381 51.0501 21.7568 47.0875 21.7568H35.5791V37.4596Z" fill="#AEA6E1"/>
<path d="M54.3594 21.7568H69.3666V25.593H59.9239V27.7007H68.6921V31.5158H59.9239V33.6235H69.3666V37.4386H54.3594V21.7568Z" fill="#AEA6E1"/>
<path d="M77.2916 25.4454H80.8959C82.3081 25.4454 82.835 25.9302 82.835 27.1105C82.835 28.2487 82.3081 28.7335 80.8959 28.7335H77.2916V25.4454ZM71.7061 37.4596H77.2916V32.5696H83.2566C87.2192 32.5696 88.6314 30.23 88.6314 27.237C88.6314 23.7381 87.177 21.7568 83.2144 21.7568H71.7061V37.4596Z" fill="#AEA6E1"/>
<path d="M94.0479 30.7993C91.3078 30.3356 90.1907 28.5861 90.1907 26.373C90.1907 22.305 93.7739 21.209 98.3688 21.209C104.671 21.209 107.242 23.0427 107.453 26.3519H100.961C100.961 25.7196 100.624 25.3191 100.118 25.1083C99.6334 24.8765 98.98 24.7711 98.3688 24.7711C96.7037 24.7711 96.1346 25.2348 96.1346 25.8882C96.1346 26.3308 96.3032 26.6048 96.8723 26.7102L103.533 27.8063C106.336 28.27 108.086 29.7243 108.086 32.3801C108.086 36.1952 105.282 38.0078 99.0011 38.0078C94.7013 38.0078 90.0221 37.3544 90.001 32.7384H96.7247C96.7458 33.2654 96.9144 33.6237 97.3149 33.8555C97.7365 34.0663 98.3477 34.1928 99.2119 34.1928C100.961 34.1928 101.425 33.6658 101.425 32.9281C101.425 32.4644 101.172 32.0007 100.413 31.8742L94.0479 30.7993Z" fill="#AEA6E1"/>
<path d="M109.878 21.7578H115.463V37.4606H109.878V21.7578Z" fill="#AEA6E1"/>
<path d="M136.14 31.3477C135.782 33.4133 135.15 35.0784 133.758 36.2377C132.388 37.3759 130.26 38.0082 126.845 38.0082C123.451 38.0082 117.191 37.7342 117.191 29.6194C117.191 21.4834 123.473 21.2305 126.845 21.2305C130.217 21.2305 135.402 21.7153 136.119 27.9331H129.817C129.648 26.816 128.995 25.1931 126.824 25.1931C124.547 25.1931 123.114 26.4366 123.114 29.6404C123.114 32.8231 124.526 34.0878 126.55 34.0878C128.32 34.0878 129.353 33.2658 129.817 31.3899H136.14V31.3477Z" fill="#AEA6E1"/>
<path d="M143.434 29.6183C143.434 26.4356 144.888 25.1709 147.143 25.1709C149.42 25.1709 150.853 26.4145 150.853 29.6183C150.853 32.801 149.398 34.0657 147.143 34.0657C144.888 34.0446 143.434 32.801 143.434 29.6183ZM137.511 29.6183C137.511 37.7543 143.792 38.0072 147.164 38.0072C150.558 38.0072 156.818 37.7332 156.818 29.6183C156.818 21.4824 150.537 21.2294 147.164 21.2294C143.771 21.2084 137.511 21.4824 137.511 29.6183Z" fill="#AEA6E1"/>
<path d="M27.1482 21.9247C27.5065 14.4 21.0146 5.90577 12.1621 4.87297L12.1831 4.76758C20.9093 4.76758 27.6119 12.8403 27.6119 19.2268C27.6119 20.5547 27.5065 21.3767 27.3168 21.9669L27.1482 21.9247ZM26.6213 22.8732C26.0311 23.5899 25.3145 24.3065 24.4503 24.981C22.8695 15.9176 16.209 8.01353 11.5087 5.69499L11.4033 5.75822C16.1457 9.6365 21.7734 17.1823 23.9866 25.3182C22.9327 26.0981 21.7313 26.7937 20.3823 27.3838C15.9139 22.3041 11.7405 12.482 10.4126 6.26409L10.2862 6.30624C10.3072 12.3555 14.6071 22.6203 19.8554 27.6368C18.6961 28.1005 17.4525 28.4588 16.1246 28.6696C11.1082 26.6883 7.52499 20.3228 7.52499 13.7888C7.52499 9.53111 8.8318 6.89641 9.08473 6.3484L8.97934 6.30624C8.6421 6.74887 6.74512 9.38357 6.74512 13.9785C6.74512 21.3556 10.3915 26.9834 15.2183 28.7539C13.5743 28.9436 11.8248 28.8803 10.0332 28.5009L9.99107 28.6063C10.4969 28.796 12.2674 29.5337 14.9443 29.5337C20.9936 29.5337 25.0826 25.7819 26.7267 22.9154L26.6213 22.8732Z" fill="#AEA6E1"/>
<path d="M14.333 2.0918C9.73807 2.0918 4.36328 5.40098 4.36328 8.41507C4.36328 9.57434 5.43824 10.565 7.65139 10.565C12.8154 10.5861 17.5789 7.04503 17.5789 4.30494C17.5789 2.87167 16.2089 2.0918 14.333 2.0918ZM16.1667 4.22063C16.1667 6.53917 11.7194 9.36357 8.0097 9.36357C6.36565 9.36357 5.48039 8.71016 5.48039 7.65628C5.48039 5.29559 9.96992 2.53443 13.4688 2.53443C15.7452 2.53443 16.1667 3.67262 16.1667 4.22063Z" fill="#AEA6E1"/>
<path d="M2.5503 9.82727C2.42383 10.0591 1.91797 11.0498 1.91797 12.1037C1.91797 14.0217 3.85711 15.8133 7.41922 15.8133C14.2905 15.8133 22.2157 10.7547 22.2157 6.07546C22.2157 3.9677 20.2133 2.82951 18.8433 2.59766L18.8222 2.68197C19.2438 2.80843 20.8246 3.54615 20.8246 5.42205C20.8246 9.15279 13.8268 14.2536 6.85013 14.2536C4.17327 14.2536 2.48706 12.9257 2.48706 11.0076C2.48706 10.3964 2.61353 9.99589 2.65568 9.8905L2.5503 9.82727Z" fill="#AEA6E1"/>
<path d="M25.0399 6.41211C25.2296 6.55965 26.3678 7.48707 26.3678 9.27866C26.3678 15.349 16.8407 21.335 8.43075 21.335C3.41428 21.314 1.11683 18.8479 1.22221 16.6347H1.30652C1.49622 17.7729 3.14027 19.8175 7.52441 19.8175C15.9555 19.8175 25.3771 13.6417 25.3771 8.22478C25.3771 7.29737 25.1242 6.7072 24.9767 6.45426L25.0399 6.41211Z" fill="#AEA6E1"/>
<path d="M28.2439 12.082C28.286 12.2085 28.4968 12.7987 28.4968 13.705C28.4968 20.4709 18.8643 26.2462 10.4755 26.2462C6.15456 26.2462 3.89925 24.1595 3.43555 23.2953L3.51986 23.2321C4.72128 24.286 7.06089 25.0658 9.80098 25.0658C17.1992 25.0658 28.2439 19.4381 28.1596 12.082H28.2439Z" fill="#AEA6E1"/>
</g>
<defs>
<clipPath id="clip0_1312_10450">
<rect width="160" height="40.5111" fill="white" transform="translate(0 0.510742)"/>
</clipPath>
</defs>
</svg>
