<svg width="160" height="68" viewBox="0 0 160 68" fill="none" xmlns="http://www.w3.org/2000/svg">
<g id="pfizer-vector-logo-2021 1">
<path id="Vector" d="M131.487 45.1952C128.641 45.2208 127.128 43.4786 127.128 40.4042C127.128 40.1993 127.128 39.9943 127.154 39.7893H138.359C138.59 38.9695 138.744 38.0728 138.744 37.2786C138.744 33.5124 136.333 30.643 131.41 30.643C126.385 30.643 121.897 35.4083 121.897 40.4042C121.897 45.1952 125.154 48.1159 130.59 48.1159C133 48.1159 135.359 47.3216 137.026 46.1175L136 43.6323C134.667 44.5803 133.103 45.1695 131.487 45.1952ZM131.462 33.3331C133.128 33.3331 133.974 34.3579 133.974 36.6381C133.974 36.8686 133.949 37.0736 133.949 37.3042H127.564C128.231 34.9215 129.718 33.3331 131.462 33.3331ZM87.1539 29.5669C87.1539 25.6727 83.9744 22.8288 79.1539 22.8288H69.8206L62.7949 47.6803H68.6667L71.2565 38.5083H76.359C82.2052 38.5083 87.1539 34.8959 87.1539 29.5669ZM74.1026 35.6133H72.077L74.8718 25.7495H77C79.6667 25.7495 81.1795 27.4917 81.1795 29.7975C81.1795 33.4612 78.1539 35.6133 74.1026 35.6133ZM79.718 64.1028H85.359V64.1284L94.0257 33.8198H99.9488L96.0513 47.6547H101.744L106.41 31.0785H94.7693L95.436 28.7727C95.7693 27.5685 96.3078 25.4933 97.1026 23.1363C97.9231 20.7024 99.4103 19.1652 101.41 19.1652C102.385 19.1652 102.974 19.5751 102.974 20.3181C102.949 21.1123 102.282 21.5478 102.282 22.8032C102.282 24.2636 103.564 25.3908 105.231 25.3908C107.308 25.3908 108.974 23.8024 108.974 21.8296C108.974 18.8065 106.282 16.8081 102.154 16.8081C96.1283 16.8081 92.1539 20.4974 89.6667 29.1058M123.692 31.0785H108.59L107.846 33.8198H115.154L103.821 47.6547H119.821L120.564 44.9133H112.308L123.692 31.0785ZM153.59 30.8223C151.539 30.8223 149.385 32.1033 147.667 34.7166L148.667 31.1041H142.974L138.308 47.6803H144L146.103 40.2249C146.949 37.1761 149.026 34.2041 150.41 34.2041C151.897 34.2041 151.333 36.8686 153.897 36.8686C155.744 36.8686 156.846 35.229 156.846 33.743C156.846 31.9752 155.41 30.8223 153.59 30.8223Z" fill="#AEA6E1"/>
<path id="Vector_2" d="M3.41016 36.5869C3.41016 36.5612 3.41016 36.5612 3.41016 36.5869C3.4358 36.5356 3.4358 36.51 3.4358 36.4844L3.41016 36.5869Z" fill="#AEA6E1"/>
<path id="Vector_3" d="M7.64099 32.6667C12.4102 30.5146 20.6923 29.8741 31.2564 31.1039L34.2564 20.574C18.9743 18.7038 7.84612 20.8046 5.97433 27.4658L5.8974 27.722C5.58971 29.3105 6.23074 30.9758 7.64099 32.6667Z" fill="#AEA6E1"/>
<path id="Vector_4" d="M54.8717 29.5415C50.1025 31.6936 41.8205 32.3341 31.2563 31.1043L28.2563 41.6342C43.5128 43.5045 54.641 41.4036 56.5128 34.7424L56.5897 34.4862C56.8974 32.8977 56.282 31.2324 54.8717 29.5415Z" fill="#AEA6E1"/>
<path id="Vector_5" d="M16.1538 3.99805L13.1538 14.5279C31.0256 15.7577 49.1795 22.7263 54.8461 29.5413C57.0256 28.5421 58.4871 27.2355 59.0769 25.6214L56.5641 34.4603C56.5384 34.5372 56.5384 34.6397 56.5128 34.7165L58.5384 27.5942C59.2051 25.3652 59.5128 24.1867 59.5128 23.2644C59.5128 15.1428 37.3077 5.22781 16.1538 3.99805Z" fill="#AEA6E1"/>
<path id="Vector_6" d="M54.8716 29.5412C56.2818 31.2322 56.9229 32.8975 56.5895 34.4859L59.1024 25.647C58.5126 27.2354 57.0511 28.542 54.8716 29.5412Z" fill="#AEA6E1"/>
<path id="Vector_7" d="M7.64103 32.667C5.46154 33.6662 4 34.9728 3.41026 36.5612C3.12821 37.6117 3 38.3034 3 38.9183C3 47.0655 25.2051 56.9548 46.359 58.1846L49.3333 47.6547C31.4615 46.425 13.3077 39.4563 7.64103 32.667Z" fill="#AEA6E1"/>
<path id="Vector_8" d="M5.9745 27.4658L3.9745 34.5882C3.76937 35.3312 3.58988 35.9461 3.43604 36.4841L5.89757 27.722C5.92321 27.6452 5.94886 27.5427 5.9745 27.4658Z" fill="#AEA6E1"/>
<path id="Vector_9" d="M7.64093 32.6671C6.23067 30.9762 5.58964 29.3109 5.92298 27.748L3.4358 36.4845C3.4358 36.5101 3.41016 36.5357 3.41016 36.5614C3.9999 34.9473 5.4358 33.6407 7.64093 32.6671Z" fill="#AEA6E1"/>
</g>
</svg>
