<svg width="160" height="42" viewBox="0 0 160 42" fill="none" xmlns="http://www.w3.org/2000/svg">
<g id="prudential 1">
<path id="Vector" d="M151.019 30.4534C151.608 30.4534 151.951 30.3553 152.172 30.1589C152.344 29.9872 152.417 29.57 152.417 28.9074V15.2387C152.417 14.5516 152.344 14.0853 152.197 13.8399C152 13.5454 151.583 13.3982 150.97 13.3982H150.503V12.4166L156 11.9994V28.9074C156 29.7663 156.221 30.2571 156.687 30.3798C156.884 30.4289 157.154 30.4534 157.497 30.4534V31.5086H151.019V30.4534ZM142.405 25.5455C142.92 25.1037 143.828 24.7847 145.129 24.5148V26.4534C145.129 27.5577 144.957 28.3921 144.638 28.9565C144.221 29.7172 143.657 30.0853 142.97 30.0853C142.282 30.0853 142.209 29.9135 141.939 29.5454C141.669 29.1774 141.522 28.662 141.522 27.9749C141.522 26.8461 141.816 26.0362 142.43 25.5209M140.074 20.343C140.172 20.0485 140.466 19.7786 140.933 19.5086C141.448 19.2142 142.062 19.0669 142.651 19.0669C144.295 19.0669 145.129 19.8277 145.129 21.3491V23.435C142.675 23.9013 140.933 24.4657 139.853 25.0792C138.454 25.889 137.767 27.0178 137.767 28.4657C137.767 29.9135 138.037 30.0608 138.552 30.6988C139.239 31.5086 140.246 31.9258 141.595 31.9258C142.945 31.9258 143.092 31.705 143.804 31.2632C144.466 30.8706 144.933 30.3553 145.276 29.7172V30.3553C145.276 30.8951 145.276 31.2878 145.276 31.5086H150.037V30.4534H149.865C149.105 30.4534 148.712 29.9381 148.712 28.8829V22.5516C148.712 19.4841 146.97 17.9626 143.534 17.9626C140.098 17.9626 140.957 18.2571 140 18.8461C139.043 19.435 138.577 20.1958 138.577 21.1528C138.577 22.1099 138.798 22.3307 139.24 22.7234C139.608 23.0424 140.074 23.2142 140.565 23.2142C141.129 23.2142 141.595 23.0424 141.963 22.6988C142.332 22.3553 142.528 21.9626 142.528 21.5454C142.528 20.4902 141.963 19.9504 140.835 19.9504C139.706 19.9504 140.074 20.0976 139.804 20.3675L140.074 20.4657C140.074 20.4166 140.074 20.3675 140.074 20.3675M48.1229 23.3369C50.2825 23.3369 52.0248 22.9197 53.3254 22.0608C54.7978 21.1283 55.534 19.7295 55.534 17.889C55.534 16.0485 54.7978 14.5516 53.3009 13.5945C52.0248 12.7847 50.3315 12.3921 48.172 12.3921H40.9818V13.4228C41.8407 13.4228 42.3561 13.4964 42.5769 13.5945C42.9205 13.7908 43.0923 14.3307 43.0923 15.2142V28.8093C43.0923 29.4718 42.945 29.9381 42.6505 30.1589C42.4052 30.3553 41.9634 30.4289 41.3009 30.4289H40.9818V31.4841H49.5463V30.4289H48.6628C47.9757 30.4289 47.5094 30.3307 47.264 30.1099C47.0186 29.889 46.896 29.4718 46.896 28.8093V23.3369H48.172H48.1229ZM51.5831 17.9135C51.5831 20.7356 50.4297 22.1344 48.1475 22.1344H46.945V13.5209H48.1475C50.4297 13.5209 51.5831 14.9933 51.5831 17.9135ZM60.9573 20.8829C61.4481 18.9197 62.5033 17.9626 64.1229 17.9626C65.7426 17.9626 65.2027 18.1344 65.5463 18.4534C65.9144 18.7724 66.0861 19.2142 66.0861 19.754C66.0861 20.2203 65.9389 20.662 65.6199 21.0056C65.2763 21.3982 64.8346 21.6191 64.3193 21.6191C63.8039 21.6191 63.4358 21.4718 63.1413 21.1528C62.8714 20.8829 62.7242 20.5639 62.7487 20.1712C62.7487 20.1467 62.7487 20.0485 62.7978 19.9013C62.307 20.5148 61.9144 21.57 61.6444 23.0669C61.399 24.2694 61.3009 25.3491 61.3009 26.3307V28.9565C61.3009 29.57 61.3745 29.9872 61.5217 30.1589C61.6935 30.3798 62.1597 30.478 62.8959 30.478H63.3377V31.5332H56.1229V30.478H56.3929C56.8837 30.478 57.2518 30.3798 57.4726 30.208C57.6935 30.0362 57.7917 29.5945 57.7917 28.932V23.2142C57.7917 21.251 57.7426 20.1467 57.6199 19.9258C57.4726 19.5823 57.1782 19.3859 56.7364 19.3859H56.3683V18.3307H60.8837L60.9818 20.9074L60.9573 20.8829ZM75.9266 29.3982C75.8775 29.4228 75.8039 29.4718 75.7303 29.5209L75.9266 29.4227C75.7058 30.0362 75.2886 30.6007 74.6751 31.0669C73.988 31.6313 73.1291 31.9258 72.2456 31.9013C70.7242 31.9013 69.6444 31.4841 69.0064 30.6497C68.5156 29.9872 68.2456 28.9565 68.2456 27.5577V22.0362C68.2456 20.7847 68.1966 20.0731 68.0739 19.8522C67.9266 19.5823 67.5585 19.435 66.9941 19.435H66.8714V18.3307H71.853V28.0485C71.853 29.3246 72.3929 29.9872 73.4481 29.9872C74.5033 29.9872 74.9205 29.3737 75.2395 28.1221C75.3867 27.6313 75.4358 26.9442 75.4358 26.0853V22.0608C75.4358 20.6866 75.3622 19.9258 75.2395 19.7786C75.0432 19.5577 74.6506 19.435 74.0371 19.435H73.669V18.3307H79.1168V28.2448C79.1168 29.3246 79.1904 29.9626 79.3131 30.1344C79.4849 30.3553 79.8039 30.478 80.2947 30.478H80.6383V31.5332H75.8039L75.7303 29.3982L75.8039 29.4473V29.4964L75.9021 29.3982H75.9266ZM86.626 18.0117C84.8346 18.0117 83.4113 18.7724 82.307 20.2939C81.3499 21.6436 80.8591 23.1896 80.8591 24.932C80.8591 26.6743 81.2027 28.3921 81.9389 29.5945C82.8469 31.1405 84.2702 31.9258 86.2088 31.9258C88.1475 31.9258 88.0493 31.6313 88.7855 31.0178C89.3499 30.527 89.718 29.9872 89.9144 29.3982L89.8162 29.4718L89.718 29.3737L89.8162 31.5332H94.5524V30.478H94.307C93.7671 30.478 93.399 30.3307 93.2272 30.0608C93.08 29.8645 93.0309 29.4718 93.0309 28.932V11.9994L87.4849 12.4166V13.3982H87.853C88.5401 13.3982 89.0064 13.5945 89.2027 13.9626C89.3254 14.1835 89.399 14.6988 89.4236 15.4841C89.4236 17.6191 89.4481 18.8461 89.5217 19.2142C89.0064 18.4043 88.0493 17.9872 86.626 17.9872M89.4481 23.5086V26.1835C89.4481 26.9197 89.399 27.5332 89.2763 27.9994C88.9573 29.4718 88.2456 30.208 87.1904 30.208C86.1352 30.208 84.9573 28.4412 84.9573 24.932C84.9573 21.4228 85.0555 22.208 85.2027 21.4718C85.5463 20.024 86.2334 19.3123 87.2395 19.3123C88.7119 19.3123 89.4481 20.7111 89.4481 23.5086ZM98.5524 24.6129H106.601C106.601 22.6252 106.135 21.0547 105.276 19.9258C104.295 18.6252 102.822 17.9626 100.884 17.9626C98.945 17.9626 97.6199 18.6007 96.4665 19.8767C95.2886 21.2019 94.6996 22.8706 94.6996 24.9074C94.6996 26.9442 95.215 28.662 96.2456 29.889C97.3499 31.2387 98.9205 31.9013 100.982 31.9013C103.043 31.9013 103.902 31.3123 104.982 30.1589C105.939 29.1283 106.43 28.0485 106.454 26.8706H105.129C105.129 27.7295 104.786 28.5393 104.147 29.3001C103.411 30.1589 102.552 30.6007 101.522 30.6007C100.074 30.6007 99.1659 29.57 98.7732 27.4841C98.626 26.797 98.5769 25.8399 98.5769 24.5884M100.835 18.9688C102.233 18.9688 102.92 20.4902 102.92 23.5086H98.5524C98.5524 23.0424 98.5769 22.6497 98.6015 22.3307C98.7978 20.0976 99.534 18.9688 100.835 18.9688ZM111.828 20.024C112.123 19.4105 112.614 18.9197 113.276 18.527C113.939 18.1344 114.675 17.9381 115.485 17.9381C118.135 17.9381 119.46 19.3859 119.46 22.2571V28.2694C119.46 28.932 119.46 29.3246 119.46 29.4718C119.509 30.1099 119.927 30.4289 120.687 30.4289H120.957V31.4841H115.828V21.7908C115.828 21.1283 115.755 20.6375 115.583 20.343C115.362 19.9258 114.92 19.705 114.258 19.705C113.595 19.705 113.154 19.9994 112.786 20.6129C112.417 21.2019 112.246 22.0853 112.246 23.2632V28.2448C112.246 29.3737 112.295 29.9872 112.417 30.1099C112.638 30.3553 113.031 30.4534 113.595 30.4534H113.816V31.5086H107.117V30.4534H107.485C108.172 30.4534 108.54 30.1344 108.589 29.4964C108.589 29.3491 108.614 28.9074 108.614 28.1958V21.5945C108.614 20.5639 108.54 19.9504 108.393 19.7295C108.246 19.5086 107.927 19.3859 107.436 19.3859H107.141V18.3307H111.878V20.0485L111.828 20.024ZM125.939 31.9013C123.73 31.9013 122.626 30.6497 122.626 28.1712V19.4105H120.27V18.3553H120.638C121.939 18.3553 123.019 17.6191 123.927 16.1712C124.687 14.9442 125.08 13.6927 125.105 12.4166H126.209V18.3553H128.736V19.4105H126.209V28.6129C126.209 29.6927 126.552 30.2326 127.215 30.2326C127.878 30.2326 128.197 29.7172 128.368 28.6866C128.417 28.3185 128.466 27.5823 128.466 26.478H129.693C129.693 28.2939 129.522 29.5454 129.203 30.1835C128.663 31.3369 127.559 31.8767 125.939 31.8767M19.0186 5.56999C9.71803 5.56999 3.63214 13.2264 3.63214 20.343C3.63214 27.4596 4.63828 26.478 5.71803 28.4166C7.09226 24.7111 9.84073 17.3491 9.84073 17.3491C9.84073 17.3491 11.1168 16.6866 11.1168 16.7847L12.9573 12.0731L14.1352 11.4596L15.6076 8.31845L18.8223 8.83379L25.3745 12.4902L32.7364 14.527C30.8469 9.69269 25.4726 5.54545 18.9696 5.54545M18.9205 37.1037C14.8959 37.1037 9.93889 35.6804 6.38061 31.3123H31.4113C28.5156 35.0669 23.534 37.1037 18.9205 37.1037ZM23.853 30.5516H21.5708L25.8162 25.2755L26.2334 26.0853L23.853 30.5516ZM26.0861 13.7908L18.8223 9.56999L16.172 9.10373V11.0424L18.2088 12.932L15.3622 12.6866C15.3622 12.6866 15.4604 12.8338 17.8162 15.3369L28.6383 17.1283L30.5278 18.3553L25.5953 18.6007L23.5585 26.0608L16.8591 30.527H12.491L13.9634 27.6313L13.718 27.5332L9.76711 30.527H8.81006L12.8346 24.8829C13.0309 23.2632 12.9328 23.9749 13.1782 21.0792L12.5647 20.2203L10.945 26.478L7.58306 30.527H6.72417L8.7119 27.7295L11.5094 19.1405L10.7978 19.4596L9.57079 22.8706L8.7119 23.3369C8.7119 23.3369 6.72417 28.1712 5.66895 30.5516C4.14748 28.3675 2.42969 25.4228 2.42969 20.2939C2.42969 12.6129 9.03091 4.49023 18.945 4.49023C28.8591 4.49023 33.5708 12.0976 34.4297 16.024L26.037 13.7418L26.0861 13.7908ZM30.7978 24.8829L29.4236 26.0608L26.6751 30.527H24.8591L26.6751 27.3369L28.0984 26.1589L30.1352 20.4166L32.3193 21.3246L30.7978 24.8829ZM32.0739 30.5516H28.4174L31.8775 25.0792L32.9328 21.5209L35.1168 22.2816C34.9205 25.0301 34.0125 27.8277 32.0739 30.5516ZM27.6076 23.9994L26.5033 24.1958L26.7978 22.0117L26.5033 21.5945L26.7978 19.116L29.5953 20.2448L27.6076 23.9994ZM130.577 30.4534H130.92C131.436 30.4534 131.779 30.2816 131.902 29.9626C131.976 29.7172 132.025 29.1528 132.025 28.2203V21.3246C132.025 20.3921 131.927 19.8522 131.73 19.6804C131.534 19.5086 131.264 19.435 130.896 19.435H130.552V18.3798H135.583V28.2448C135.583 29.3246 135.657 29.9626 135.779 30.1589C135.951 30.3798 136.27 30.478 136.736 30.478H137.105V31.5332H130.552V30.478L130.577 30.4534ZM131.534 14.6743C131.534 14.0853 131.755 13.57 132.172 13.1528C132.565 12.7356 133.129 12.5148 133.693 12.5148C134.258 12.5148 134.822 12.7356 135.239 13.1528C135.681 13.57 135.878 14.0853 135.878 14.6743C135.878 15.2632 135.657 15.7786 135.239 16.2203C134.822 16.662 134.307 16.8583 133.693 16.8583C133.08 16.8583 132.589 16.6375 132.172 16.2203C131.755 15.8277 131.534 15.2632 131.534 14.6743Z" fill="#AEA6E1"/>
</g>
</svg>
