<svg width="160" height="30" viewBox="0 0 160 30" fill="none" xmlns="http://www.w3.org/2000/svg">
<g id="samsung logo 1">
<path id="Vector" fill-rule="evenodd" clip-rule="evenodd" d="M87.0304 13.9408C87.0304 13.9408 85.5102 12.9906 84.6551 12.7056C84.6551 12.7056 81.8048 11.3754 81.2347 10.8054C81.2347 10.8054 80.0945 9.76024 80.7596 8.52509C80.7596 8.52509 81.0447 7.76499 82.1848 7.76499C82.1848 7.76499 83.705 7.86001 83.705 9.09516V10.9004H89.1207V8.33507C89.1207 8.33507 89.5007 4.05953 82.6599 3.86951C82.6599 3.86951 77.2442 3.48946 75.724 6.43483C75.724 6.43483 75.1539 7.09991 75.1539 9.28518V10.9004C75.1539 10.9004 75.0589 12.8006 76.009 13.9408C76.009 13.9408 76.5791 14.7009 77.9093 15.651C77.9093 15.651 80.6646 17.0762 82.2798 17.9313C82.2798 17.9313 83.895 18.8814 83.705 20.4016C83.705 20.4016 83.61 21.9218 81.9948 21.8268C81.9948 21.8268 80.5696 21.7317 80.5696 20.3066V18.5013H74.7739V21.0667C74.7739 21.0667 74.5839 26.0073 82.0898 26.0073C82.0898 26.0073 89.2157 26.1973 89.5957 20.9716V18.8814C89.5957 18.6914 89.7858 15.556 87.0304 13.9408Z" fill="#AEA6E1"/>
<path id="Vector_2" fill-rule="evenodd" clip-rule="evenodd" d="M59.0972 4.34473L57.2919 15.7462H56.9119L55.1067 4.43974H46.0805L45.6055 25.1523H51.0211V9.47537H51.4962L54.3466 25.1523H59.9523L62.8026 9.57038H63.1827L63.2777 25.1523H68.6934L68.1233 4.34473H59.0972Z" fill="#AEA6E1"/>
<path id="Vector_3" fill-rule="evenodd" clip-rule="evenodd" d="M27.0782 4.43945L23.4678 25.057H29.2635L31.4488 9.09504H31.9238L34.0141 25.057H39.8098L36.1994 4.43945H27.0782Z" fill="#AEA6E1"/>
<path id="Vector_4" fill-rule="evenodd" clip-rule="evenodd" d="M148.789 13.6556V16.696H150.309V19.9264C150.309 21.5416 148.979 21.5416 148.979 21.5416C147.268 21.5416 147.363 20.0214 147.363 20.0214V8.71502C147.363 7.57488 148.884 7.47986 148.884 7.47986C150.309 7.47986 150.309 8.90504 150.309 8.90504V10.6153H155.724C155.914 7.28984 155.249 6.43473 155.249 6.43473C153.919 3.39435 148.789 3.58438 148.789 3.58438C140.903 3.58438 141.758 9.66514 141.758 9.66514V20.5915C141.948 26.2922 149.644 25.7221 149.834 25.7221C153.254 25.3421 154.299 24.202 154.299 24.202C155.249 23.4419 155.534 22.4917 155.534 22.4917C155.819 21.9217 155.914 20.1164 155.914 20.1164V13.6556H148.789Z" fill="#AEA6E1"/>
<path id="Vector_5" fill-rule="evenodd" clip-rule="evenodd" d="M130.642 16.9803H130.452L124.941 4.34375H118.29V25.1514H123.706L123.326 12.4198H123.611L129.311 25.1514H135.772V4.34375H130.262L130.642 16.9803Z" fill="#AEA6E1"/>
<path id="Vector_6" fill-rule="evenodd" clip-rule="evenodd" d="M105.084 19.927C105.084 19.927 105.179 21.6372 103.563 21.6372C103.563 21.6372 101.853 21.7322 101.853 19.927V4.25H95.9625V19.7369C95.9625 19.7369 95.3924 25.6277 103.658 25.6277C103.658 25.6277 110.879 25.7227 110.879 20.022V4.34501H105.084V19.927Z" fill="#AEA6E1"/>
<path id="Vector_7" fill-rule="evenodd" clip-rule="evenodd" d="M15.7716 13.9404C15.7716 13.9404 14.2514 12.9903 13.3963 12.7052C13.3963 12.7052 10.546 11.3751 9.9759 10.805C9.9759 10.805 8.83575 9.75988 9.50084 8.52472C9.50084 8.52472 9.78587 7.76463 10.926 7.76463C10.926 7.76463 12.4462 7.85964 12.4462 9.09479V10.9H17.8619V8.3347C17.8619 8.3347 18.2419 4.05916 11.4011 3.86914C11.4011 3.86914 10.926 3.86914 10.1659 3.86914C10.1659 3.86914 5.9854 4.05916 4.56022 6.33945C4.56022 6.33945 3.99015 7.00453 3.99015 9.18981V10.805C3.99015 10.805 3.89514 12.7052 4.84526 13.8454C4.84526 13.8454 5.41533 14.6055 6.74549 15.5556C6.74549 15.5556 9.40583 16.9808 11.116 17.8359C11.116 17.8359 12.7312 18.786 12.5412 20.3062C12.5412 20.3062 12.4462 21.8264 10.831 21.7314C10.831 21.7314 9.40583 21.6364 9.40583 20.2112V18.406H3.51509V20.9713C3.51509 20.9713 3.32507 25.9119 10.831 25.9119C10.831 25.9119 17.9569 26.1019 18.3369 20.8763V18.786C18.3369 18.691 18.527 15.5556 15.7716 13.9404Z" fill="#AEA6E1"/>
</g>
</svg>
