<svg width="160" height="86" viewBox="0 0 160 86" fill="none" xmlns="http://www.w3.org/2000/svg">
<g id="Capa_1" clip-path="url(#clip0_782_57)">
<path id="Vector" d="M0 80.8164H0.879108V85.5426H0V80.8164Z" fill="#AEA6E1"/>
<path id="Vector_2" d="M7.02522 80.8164V85.5426H6.29935L3.69428 82.3407V85.5426H2.82324V80.8164H3.54911L6.15417 84.0183V80.8164H7.02522Z" fill="#AEA6E1"/>
<path id="Vector_3" d="M13.1619 80.8164V85.5426H12.4361L9.831 82.3407V85.5426H8.95996V80.8164H9.68583L12.2909 84.0183V80.8164H13.1619Z" fill="#AEA6E1"/>
<path id="Vector_4" d="M14.7676 83.1791C14.7676 81.7838 15.8483 80.7515 17.3081 80.7515C18.7679 80.7515 19.8487 81.7757 19.8487 83.1791C19.8487 84.5824 18.7679 85.6067 17.3081 85.6067C15.8483 85.6067 14.7676 84.5744 14.7676 83.1791ZM18.9696 83.1791C18.9696 82.2113 18.2598 81.5177 17.3081 81.5177C16.3564 81.5177 15.6467 82.2113 15.6467 83.1791C15.6467 84.1469 16.3564 84.8405 17.3081 84.8405C18.2598 84.8405 18.9696 84.1469 18.9696 83.1791Z" fill="#AEA6E1"/>
<path id="Vector_5" d="M25.6308 80.8164L23.5742 85.5426H22.7112L20.6465 80.8164H21.5982L23.1709 84.4619L24.7597 80.8164H25.6388H25.6308Z" fill="#AEA6E1"/>
<path id="Vector_6" d="M29.7205 84.4536H27.3574L26.8896 85.5504H25.9863L28.1155 80.8242H28.9785L31.1077 85.5504H30.1883L29.7125 84.4536H29.7205ZM29.4302 83.76L28.543 81.6953L27.6558 83.76H29.4302Z" fill="#AEA6E1"/>
<path id="Vector_7" d="M36.5838 80.8164V85.5426H35.8579L33.2529 82.3407V85.5426H32.3818V80.8164H33.1077L35.7128 84.0183V80.8164H36.5838Z" fill="#AEA6E1"/>
<path id="Vector_8" d="M38.5273 80.8164H40.592C42.1244 80.8164 43.1729 81.76 43.1729 83.1795C43.1729 84.599 42.1244 85.5426 40.592 85.5426H38.5273V80.8164ZM40.5517 84.8006C41.6083 84.8006 42.2857 84.1635 42.2857 83.1795C42.2857 82.1956 41.6002 81.5584 40.5517 81.5584H39.4065V84.8006H40.5517Z" fill="#AEA6E1"/>
<path id="Vector_9" d="M44.4316 83.1791C44.4316 81.7838 45.5124 80.7515 46.9722 80.7515C48.432 80.7515 49.5127 81.7757 49.5127 83.1791C49.5127 84.5824 48.432 85.6067 46.9722 85.6067C45.5124 85.6067 44.4316 84.5744 44.4316 83.1791ZM48.6336 83.1791C48.6336 82.2113 47.9239 81.5177 46.9722 81.5177C46.0205 81.5177 45.3107 82.2113 45.3107 83.1791C45.3107 84.1469 46.0205 84.8405 46.9722 84.8405C47.9239 84.8405 48.6336 84.1469 48.6336 83.1791Z" fill="#AEA6E1"/>
<path id="Vector_10" d="M57.618 82.502C57.618 83.5424 56.8518 84.1796 55.6097 84.1796H54.5451V85.5426H53.666V80.8164H55.6097C56.8518 80.8164 57.618 81.4536 57.618 82.494V82.502ZM56.7308 82.502C56.7308 81.9052 56.3356 81.5665 55.5613 81.5665H54.5371V83.4457H55.5613C56.3275 83.4457 56.7308 83.0989 56.7308 82.5101V82.502Z" fill="#AEA6E1"/>
<path id="Vector_11" d="M61.9969 84.4536H59.6338L59.166 85.5504H58.2627L60.3919 80.8242H61.2549L63.3841 85.5504H62.4647L61.9888 84.4536H61.9969ZM61.7065 83.76L60.8194 81.6953L59.9322 83.76H61.7065Z" fill="#AEA6E1"/>
<path id="Vector_12" d="M67.7474 85.5426L66.7796 84.1635H65.5295V85.5426H64.6504V80.8164H66.5941C67.8362 80.8164 68.6023 81.4536 68.6023 82.494C68.6023 83.5344 68.2394 83.736 67.5942 83.986L68.683 85.5346H67.7394L67.7474 85.5426ZM66.5618 81.5665H65.5376V83.4457H66.5618C67.328 83.4457 67.7313 83.0908 67.7313 82.502C67.7313 81.9133 67.3361 81.5665 66.5618 81.5665Z" fill="#AEA6E1"/>
<path id="Vector_13" d="M73.3289 84.4536H70.9658L70.498 85.5504H69.5947L71.7239 80.8242H72.5869L74.7161 85.5504H73.7967L73.3208 84.4536H73.3289ZM73.0386 83.76L72.1514 81.6953L71.2642 83.76H73.0386Z" fill="#AEA6E1"/>
<path id="Vector_14" d="M79.4904 81.5662H77.9258V80.8242H81.9342V81.5662H80.3695V85.5504H79.4904V81.5662Z" fill="#AEA6E1"/>
<path id="Vector_15" d="M83.1357 83.4857V80.8242H84.0148V83.4535C84.0148 84.4213 84.4504 84.8407 85.2166 84.8407C85.9828 84.8407 86.4102 84.4213 86.4102 83.4535V80.8242H87.2732V83.4857C87.2732 84.8649 86.4989 85.6149 85.2085 85.6149C83.9181 85.6149 83.1357 84.8649 83.1357 83.4857Z" fill="#AEA6E1"/>
<path id="Vector_16" d="M91.3789 83.1791C91.3789 81.7677 92.4596 80.7515 93.9114 80.7515C95.3631 80.7515 95.3389 81.0257 95.7825 81.5419L95.2179 82.0742C94.8711 81.7032 94.4518 81.5177 93.9598 81.5177C92.9839 81.5177 92.2741 82.2032 92.2741 83.1791C92.2741 84.155 92.9839 84.8405 93.9598 84.8405C94.9357 84.8405 94.8792 84.655 95.2179 84.284L95.7825 84.8244C95.347 85.3406 94.6856 85.6148 93.9033 85.6148C92.4596 85.6148 91.3789 84.5986 91.3789 83.1872V83.1791Z" fill="#AEA6E1"/>
<path id="Vector_17" d="M97.2178 83.4857V80.8242H98.0969V83.4535C98.0969 84.4213 98.5324 84.8407 99.2986 84.8407C100.065 84.8407 100.492 84.4213 100.492 83.4535V80.8242H101.355V83.4857C101.355 84.8649 100.581 85.6149 99.2905 85.6149C98.0001 85.6149 97.2178 84.8649 97.2178 83.4857Z" fill="#AEA6E1"/>
<path id="Vector_18" d="M103.259 80.8164H104.138V85.5426H103.259V80.8164Z" fill="#AEA6E1"/>
<path id="Vector_19" d="M106.082 80.8164H108.147C109.679 80.8164 110.728 81.76 110.728 83.1795C110.728 84.599 109.679 85.5426 108.147 85.5426H106.082V80.8164ZM108.106 84.8006C109.163 84.8006 109.84 84.1635 109.84 83.1795C109.84 82.1956 109.163 81.5584 108.106 81.5584H106.961V84.8006H108.106Z" fill="#AEA6E1"/>
<path id="Vector_20" d="M115.324 84.4536H112.961L112.493 85.5504H111.59L113.719 80.8242H114.582L116.711 85.5504H115.792L115.316 84.4536H115.324ZM115.034 83.76L114.147 81.6953L113.259 83.76H115.034Z" fill="#AEA6E1"/>
<path id="Vector_21" d="M117.986 80.8164H120.051C121.583 80.8164 122.632 81.76 122.632 83.1795C122.632 84.599 121.583 85.5426 120.051 85.5426H117.986V80.8164ZM120.011 84.8006C121.067 84.8006 121.745 84.1635 121.745 83.1795C121.745 82.1956 121.059 81.5584 120.011 81.5584H118.865V84.8006H120.011Z" fill="#AEA6E1"/>
<path id="Vector_22" d="M123.897 83.1791C123.897 81.7838 124.978 80.7515 126.438 80.7515C127.898 80.7515 128.979 81.7757 128.979 83.1791C128.979 84.5824 127.898 85.6067 126.438 85.6067C124.978 85.6067 123.897 84.5744 123.897 83.1791ZM128.099 83.1791C128.099 82.2113 127.39 81.5177 126.438 81.5177C125.486 81.5177 124.777 82.2113 124.777 83.1791C124.777 84.1469 125.486 84.8405 126.438 84.8405C127.39 84.8405 128.099 84.1469 128.099 83.1791Z" fill="#AEA6E1"/>
<path id="Vector_23" d="M0.255859 60.7338L1.99391 57.069C4.43686 59.2772 8.61867 60.8741 12.8473 60.8741C18.5324 60.8741 20.9754 58.6659 20.9754 55.8003C20.9754 47.7665 1.05512 52.8404 1.05512 40.6248C1.05512 35.551 5.00143 31.228 13.6465 31.228C17.4993 31.228 21.4924 32.262 24.2176 34.1412L22.6675 37.8996C19.8019 36.0672 16.5597 35.2219 13.6465 35.2219C8.05572 35.2219 5.65955 37.5713 5.65955 40.4369C5.65955 48.4706 25.5798 43.4436 25.5798 55.518C25.5798 60.5451 21.5391 64.8672 12.8473 64.8672C7.82022 64.8672 2.88673 63.1759 0.255859 60.733V60.7338Z" fill="#AEA6E1"/>
<path id="Vector_24" d="M27.1289 52.0419C27.1289 44.6187 32.6262 39.3569 40.0961 39.3569C47.5661 39.3569 53.0166 44.6187 53.0166 52.0419C53.0166 59.4651 47.5669 64.7744 40.0961 64.7744C32.6253 64.7744 27.1289 59.4651 27.1289 52.0419ZM48.459 52.0419C48.459 46.7326 44.8885 43.3032 40.0961 43.3032C35.3038 43.3032 31.6866 46.7334 31.6866 52.0419C31.6866 57.3504 35.3046 60.8273 40.0961 60.8273C44.8877 60.8273 48.459 57.3504 48.459 52.0419Z" fill="#AEA6E1"/>
<path id="Vector_25" d="M61.9898 37.4311V39.5926H69.2251V43.3042H62.0834V64.4931H57.5733V43.3042H53.3447V39.5926H57.5733V37.3843C57.5733 32.5452 60.4865 29.3506 65.795 29.3506C67.721 29.3506 69.601 29.8208 70.8688 30.8072L69.5066 34.2365C68.567 33.5316 67.3451 33.0622 66.0297 33.0622C63.352 33.0622 61.989 34.5656 61.989 37.4319L61.9898 37.4311Z" fill="#AEA6E1"/>
<path id="Vector_26" d="M85.1527 63.0365C83.7905 64.2108 81.7226 64.7746 79.7031 64.7746C74.676 64.7746 71.8096 62.0025 71.8096 56.9755V43.3034H67.5811V39.5918H71.8096V34.1421H76.3197V39.5918H83.4614V43.3034H76.3197V56.7876C76.3197 59.466 77.7295 60.9694 80.2192 60.9694C81.5347 60.9694 82.8033 60.5468 83.7429 59.7951L85.1527 63.0373V63.0365Z" fill="#AEA6E1"/>
<path id="Vector_27" d="M90.5808 72.9363C90.5808 72.9363 92.3874 69.0505 93.6093 66.1841L94.4078 64.446L83.4141 39.5923H88.112L96.8039 59.5125L105.401 39.5923H109.818L97.7435 66.9833C95.5353 72.2451 94.7183 73.9694 94.7183 73.9694L90.5808 72.9371V72.9363Z" fill="#AEA6E1"/>
<path id="Vector_28" d="M108.221 61.8613L110.1 58.2908C112.214 59.7942 115.597 60.8749 118.838 60.8749C123.02 60.8749 124.758 59.6062 124.758 57.4924C124.758 51.9016 109.019 56.7407 109.019 46.8269C109.019 42.3636 113.013 39.3569 119.402 39.3569C122.644 39.3569 126.308 40.203 128.47 41.612L126.544 45.1824C124.289 43.7259 121.798 43.2089 119.355 43.2089C115.409 43.2089 113.482 44.6655 113.482 46.639C113.482 52.5121 129.268 47.7197 129.268 57.398C129.268 61.9081 125.134 64.7744 118.509 64.7744C114.375 64.7744 110.288 63.5058 108.22 61.8613H108.221Z" fill="#AEA6E1"/>
<path id="Vector_29" d="M141.474 0.588379C131.242 0.588379 122.947 8.88264 122.947 19.115C122.947 29.3473 131.242 37.6416 141.474 37.6416C151.706 37.6416 160 29.3473 160 19.115C160 8.88264 151.706 0.588379 141.474 0.588379ZM141.474 26.7616C137.251 26.7616 133.827 23.3379 133.827 19.115C133.827 14.892 137.251 11.4683 141.474 11.4683C145.697 11.4683 149.12 14.892 149.12 19.115C149.12 23.3379 145.697 26.7616 141.474 26.7616Z" fill="#AEA6E1"/>
</g>
<defs>
<clipPath id="clip0_782_57">
<rect width="160" height="85.0266" fill="white" transform="translate(0 0.588379)"/>
</clipPath>
</defs>
</svg>
