<svg width="160" height="38" viewBox="0 0 160 38" fill="none" xmlns="http://www.w3.org/2000/svg">
<g id="sony-2 1">
<g id="Group">
<path id="Vector" fill-rule="evenodd" clip-rule="evenodd" d="M154.581 27.334C153.288 27.3086 152.217 28.3417 152.192 29.6347C152.167 30.9277 153.2 31.9988 154.493 32.0242C154.524 32.0242 154.55 32.0242 154.581 32.0242C155.874 32.0242 156.92 30.972 156.92 29.6791V29.6727C156.92 28.3797 155.874 27.334 154.581 27.334ZM154.581 31.739C153.447 31.739 152.521 30.8199 152.521 29.6791C152.521 29.6727 152.521 29.6727 152.521 29.6664C152.521 28.5319 153.44 27.6128 154.581 27.6128C154.581 27.6128 154.581 27.6128 154.588 27.6128C155.722 27.6128 156.641 28.5319 156.641 29.6664C156.648 30.8009 155.729 31.7263 154.594 31.7326C154.588 31.739 154.581 31.739 154.581 31.739Z" fill="#AEA6E1"/>
<path id="Vector_2" fill-rule="evenodd" clip-rule="evenodd" d="M155.785 29.0582C155.785 28.8363 155.69 28.6018 155.494 28.4941C155.297 28.38 155.076 28.3673 154.854 28.3673H153.713V30.985H154.03V29.7744H154.619L155.367 30.985H155.747L154.955 29.7744C155.424 29.7617 155.785 29.5715 155.785 29.0582ZM154.518 29.5272H154.023V28.6018H154.771C155.095 28.6018 155.456 28.6525 155.456 29.0582C155.456 29.5842 154.885 29.5272 154.518 29.5272ZM140.84 16.3946L145.632 11.2797C145.911 10.9057 146.05 10.6395 146.05 10.4177C146.05 10.0437 145.727 9.89162 144.713 9.89162H143.502V6.65917H156.59V9.89162H154.873C152.889 9.89162 152.515 10.1895 149.745 13.6882L142.165 21.877V26.8715C142.165 28.1518 142.811 28.6018 144.656 28.6018H147.52V31.7202H129.184V28.6018H132.049C133.893 28.6018 134.54 28.1518 134.54 26.8715V21.877L125.61 11.9959C124.133 10.2656 124.336 9.89162 120.228 9.89162V6.65917H136.809V9.89162H135.63C134.426 9.89162 133.919 10.1198 133.919 10.5698C133.919 10.9438 134.286 11.248 134.521 11.5459L139.04 16.4706C139.572 17.022 140.225 17.0917 140.84 16.3946ZM29.5931 6.65283H33.5924V15.6657H29.8973C29.5677 13.8656 28.4395 13.1621 27.4127 12.2177C25.5557 10.5128 21.5373 9.09302 18.159 9.09302C13.7984 9.09302 10.1159 10.443 10.1159 12.4332C10.1159 17.9537 35.0629 13.5614 35.0629 24.0003C35.0692 29.4511 29.7262 32.4934 20.1302 32.4934C16.809 32.4934 11.7829 31.4603 8.81663 29.8885C7.88492 29.3497 7.49196 30.3955 7.32083 31.7075H3.21372V22.3904H6.92153C7.73915 24.7546 8.86734 25.2426 9.90045 26.187C11.7005 27.8412 15.9787 29.0455 19.9084 29.0075C25.8282 28.9504 27.8627 27.6574 27.8627 25.775C27.8627 23.8989 25.8472 23.4489 19.3633 22.4348L13.8555 21.5284C7.63774 20.5904 3.1123 19.2023 3.1123 14.2396C3.1123 9.09302 8.83565 5.86056 17.8865 5.86056C21.7021 5.86056 24.8902 6.36761 27.9578 8.10427C28.8135 8.65568 29.6057 8.71907 29.5931 6.65283ZM107.647 21.7439L107.723 11.7233C107.723 10.4113 107.039 9.96134 105.087 9.96134H102.792V6.84298H117.402V9.96134H115.5C113.542 9.96134 112.864 10.4113 112.864 11.7233V31.8976L107.147 31.8533L88.6328 14.322V27.0553C88.6328 28.3356 89.3173 28.8173 91.2695 28.8173H93.8111V31.8976H78.6376V28.8173H81.1538C83.106 28.8173 83.7905 28.3293 83.7905 27.0553V11.7297C83.7905 10.4177 83.106 9.96768 81.1538 9.96768H78.6376V6.84298H91.7575L107.647 21.7439ZM58.7168 5.67676C47.0736 5.67676 39.7848 10.8233 39.7848 19.0883C39.7848 27.2011 46.9722 32.3096 58.3619 32.3096C70.455 32.3096 77.4967 27.2771 77.4967 18.6763C77.4904 10.9374 69.8973 5.67676 58.7168 5.67676ZM58.4506 29.0391C52.0047 29.0391 48.3032 25.3187 48.3032 18.8981C48.3032 12.6234 52.1695 8.90921 58.7738 8.90921C65.112 8.90921 68.8135 12.7058 68.8135 19.1643C68.8135 25.4708 65.0549 29.0391 58.4506 29.0391Z" fill="#AEA6E1"/>
</g>
</g>
</svg>
