<svg width="160" height="53" viewBox="0 0 160 53" fill="none" xmlns="http://www.w3.org/2000/svg">
<path d="M46.0658 30.544C46.0429 33.9397 44.9796 36.7752 43.4475 39.4735C42.6129 40.9255 41.7783 42.3776 40.6463 43.6238C39.6288 44.7329 38.394 45.5447 37.0562 46.2078C36.7018 46.3793 36.4274 46.2764 36.1873 46.0249C35.89 45.7162 35.8443 45.3503 36.0501 44.9844C36.5646 44.0698 36.8619 43.0979 36.9762 42.0689C37.3421 38.7989 37.4335 35.5518 36.0158 32.4419C35.547 31.4129 34.861 30.9213 33.7291 30.9213C32.8487 30.9213 31.9798 31.0928 31.1108 31.0356C30.1047 30.9784 29.0985 30.887 28.0924 30.7955C25.2683 30.544 22.4671 30.8527 19.6774 31.1842C17.1048 31.4929 14.5209 31.6759 11.9255 31.5844C11.4681 31.573 11.0222 31.4701 10.5649 31.4129C10.0618 31.3557 9.84458 31.0699 9.84458 30.5668C9.81028 26.2678 10.8393 22.3233 13.6291 18.939C14.6009 17.7613 15.6299 16.6523 16.8304 15.6919C18.7856 14.1141 21.0494 13.3823 23.519 13.2337C26.3545 13.0736 29.19 13.0164 32.0026 13.4395C34.9982 13.8968 37.605 15.1774 39.7202 17.3269C42.8644 20.5054 44.9911 24.2784 45.8943 28.6917C46.0315 29.3777 46.0887 30.0866 46.0772 30.5554L46.0658 30.544Z" fill="#AEA6E1"/>
<path d="M4.79049 33.86C7.40875 34.0429 10.1299 33.9972 12.8511 33.9629C14.8519 33.94 16.8185 33.5741 18.7965 33.2769C21.5405 32.8653 24.296 32.8767 27.0515 33.1168C28.5149 33.2426 29.9784 33.2426 31.4419 33.2083C32.9283 33.174 33.6028 33.7799 33.6028 35.2663C33.6486 41.8977 29.9098 46.9399 23.3013 49.055C16.6927 51.1702 10.8617 49.7182 5.86524 44.9847C3.61284 42.8581 2.45806 40.1255 2.05789 37.0613C1.97785 36.4439 1.92069 35.8151 1.93212 35.1862C1.95499 34.3859 2.38946 33.9057 3.1898 33.86C3.68144 33.8257 4.18451 33.86 4.77906 33.86H4.79049Z" fill="#AEA6E1"/>
<path d="M111.385 37.3128C110.264 37.3699 109.178 37.2099 108.149 36.764C103.667 34.8546 103.725 30.2697 105.565 27.6515C107.44 24.9646 110.184 24.3243 113.226 24.7931C114.712 25.0218 116.141 25.2847 117.616 24.8388C117.811 24.7817 118.028 24.7817 118.234 24.7817C118.817 24.7931 119.251 25.1361 119.377 25.7078C119.503 26.2452 119.297 26.6796 118.851 26.9883C117.673 27.7887 117.719 27.7658 118.119 29.115C118.828 31.436 118.417 33.5511 116.77 35.3691C116.324 35.8607 116.347 35.9979 116.987 36.2151C119.057 36.9355 119.743 39.0735 118.462 40.8571C117.868 41.6918 117.033 42.2177 116.084 42.5493C113.26 43.544 110.425 43.5783 107.578 42.6408C106.503 42.2863 105.577 41.7032 105.074 40.6285C104.388 39.1878 105.074 37.6672 106.537 37.3585C107.429 37.1641 108.344 37.5757 108.847 38.4561C109.133 38.9477 109.338 39.4851 109.601 39.9882C110.23 41.1658 111.374 41.5431 112.471 40.9486C113.5 40.3884 113.946 38.8105 113.363 37.8044C113.18 37.4728 112.883 37.3242 112.517 37.3242C112.14 37.3242 111.762 37.3242 111.374 37.3242L111.385 37.3128ZM113.466 30.8986C113.466 30.0182 113.363 29.1493 113.054 28.3261C112.803 27.6515 112.471 26.9312 111.659 26.9312C110.836 26.9312 110.493 27.6515 110.264 28.3261C109.659 30.1554 109.716 31.9848 110.413 33.7913C110.527 34.0771 110.676 34.3401 110.893 34.5573C111.396 35.0489 112.014 35.0375 112.505 34.5344C112.768 34.2486 112.928 33.9056 113.054 33.5511C113.34 32.6936 113.477 31.8247 113.466 30.9214V30.8986Z" fill="#AEA6E1"/>
<path d="M90.8275 39.119C90.0043 39.119 89.1926 39.119 88.3694 39.119C87.5004 39.119 87.0545 38.433 87.5576 37.7585C88.2893 36.798 88.335 35.7576 88.2893 34.6257C88.2321 33.2194 88.2664 31.8131 88.2893 30.4067C88.2893 29.7436 88.0721 29.252 87.5347 28.8403C86.6429 28.1543 86.7458 27.2854 87.7748 26.8052C88.9639 26.2564 90.1644 25.7419 91.3764 25.2274C92.2339 24.8615 92.474 24.9644 92.8856 25.8219C92.9656 25.982 93.0685 26.0506 93.2514 25.9934C93.4458 25.9362 93.583 25.8219 93.7431 25.7076C96.1098 23.8668 99.174 24.347 100.866 26.8281C101.872 28.3144 102.204 29.9951 102.33 31.7445C102.433 33.0479 102.49 34.3627 102.558 35.6776C102.581 36.2492 102.753 36.7523 103.164 37.1754C103.256 37.2668 103.336 37.3812 103.416 37.4841C103.919 38.2958 103.553 39.0504 102.604 39.1076C101.792 39.1533 100.969 39.1305 100.146 39.1305C99.2654 39.1305 98.3965 39.1305 97.5161 39.1305C97.1503 39.1305 96.8415 38.9818 96.6815 38.6388C96.5214 38.3073 96.4757 37.9071 96.7501 37.6784C97.6991 36.9009 97.6876 35.8719 97.619 34.8086C97.5161 33.0136 97.5847 31.1956 97.1846 29.4235C97.0817 28.9776 96.9559 28.5316 96.773 28.12C96.2584 26.9195 95.0008 26.7709 94.189 27.8113C93.6859 28.4402 93.4915 29.1948 93.3658 29.9723C93.0228 32.0646 93.16 34.1455 93.4572 36.2149C93.5258 36.718 93.7316 37.1982 94.0289 37.6327C94.5434 38.4102 94.1318 39.2334 93.1828 39.1419C92.4054 39.0619 91.6279 39.1305 90.839 39.1305L90.8275 39.119Z" fill="#AEA6E1"/>
<path d="M150.853 24.5872C153.746 24.5529 156.09 25.6048 157.507 28.2002C158.914 30.7727 159.074 33.4482 157.507 36.0207C156.181 38.2045 154.066 39.1763 151.585 39.3821C148.829 39.6108 146.337 38.9362 144.473 36.7753C142.575 34.5801 142.404 32.019 143.376 29.3779C144.348 26.7253 146.291 25.1818 149.092 24.7244C149.676 24.633 150.27 24.5987 150.853 24.5872ZM148.555 31.7103C148.555 32.6364 148.601 33.3796 148.749 34.1113C148.921 34.9688 149.092 35.8263 149.607 36.5695C150.247 37.4842 151.208 37.4842 151.848 36.5581C152.042 36.2722 152.179 35.9635 152.282 35.632C153.026 33.3224 153.037 31.0014 152.362 28.669C152.202 28.0973 151.917 27.5828 151.471 27.1598C150.933 26.6453 150.407 26.6453 149.87 27.1598C149.481 27.5371 149.23 28.0058 149.058 28.5203C148.692 29.618 148.578 30.7384 148.555 31.6989V31.7103Z" fill="#AEA6E1"/>
<path d="M84.802 33.4938C84.802 34.2942 84.7792 35.0945 84.802 35.8834C84.8135 36.4551 85.0421 36.9353 85.4995 37.324C86.1054 37.8385 85.9911 38.6732 85.2822 39.0162C84.0703 39.5993 81.6121 39.6565 80.5488 38.2159C80.3544 37.9643 80.2172 37.9643 79.9542 38.1587C78.5022 39.2106 76.8558 39.6336 75.095 39.2792C73.3914 38.9362 72.1337 37.9414 71.6878 36.2036C71.2305 34.4199 71.7564 32.8307 73.117 31.5959C74.7977 30.0638 76.7986 29.8008 78.9366 30.3611C79.474 30.4983 79.5769 30.3611 79.5655 29.8694C79.5426 29.172 79.657 28.4631 79.4283 27.7771C79.0281 26.5537 78.0105 26.2336 76.9701 26.9996C76.5242 27.3312 76.1926 27.7885 75.8839 28.2344C75.6095 28.6232 75.3351 29.0119 74.9692 29.3206C74.2718 29.9266 73.46 30.0295 72.8197 29.6179C72.1795 29.1948 71.9165 28.3145 72.168 27.4798C72.3967 26.7366 72.8769 26.165 73.54 25.7991C76.4213 24.2213 79.3368 24.1412 82.2409 25.7648C83.9102 26.7023 84.5047 28.2344 84.5505 30.0638C84.5848 31.2071 84.6648 32.339 84.722 33.4824H84.7791L84.802 33.4938ZM79.657 33.6653C79.657 33.3223 79.657 32.9793 79.657 32.6363C79.6455 31.996 79.5426 31.9274 78.9023 32.0189C77.4617 32.2133 76.1126 34.0998 76.387 35.5176C76.5356 36.3065 77.0616 36.8438 77.6904 36.7981C78.5022 36.7524 79.1196 36.3979 79.4855 35.6205C79.7827 34.9802 79.6798 34.317 79.657 33.6653Z" fill="#AEA6E1"/>
<path d="M127.037 39.405C122.235 39.2335 118.828 34.6372 120.668 29.4807C121.789 26.3251 124.442 24.4957 127.689 24.61C129.678 24.6901 131.405 25.3989 132.514 27.1826C133.234 28.3374 133.108 29.1834 132.182 30.1667C131.153 31.2415 129.838 31.916 128.649 32.7507C127.997 33.208 127.3 33.6082 126.671 34.0998C126.328 34.3742 126.385 34.5572 126.694 34.8087C128.032 35.8834 130.158 35.8148 131.382 34.6143C131.576 34.4314 131.782 34.2713 132.033 34.1684C132.376 34.0312 132.754 33.894 133.062 34.157C133.394 34.4314 133.451 34.843 133.337 35.2546C132.948 36.7067 131.999 37.7014 130.741 38.4331C129.507 39.142 128.157 39.4164 127.048 39.3935L127.037 39.405ZM124.99 29.778C125.036 30.1781 125.105 30.7384 125.185 31.3101C125.23 31.6531 125.379 31.756 125.734 31.5959C126.477 31.2758 127.094 30.7841 127.677 30.2239C128.466 29.4693 128.569 28.6003 128.192 27.617C127.963 27.0225 127.609 26.5995 126.934 26.5423C126.259 26.4737 125.871 26.8739 125.551 27.3769C125.105 28.0515 125.036 28.829 125.002 29.7894L124.99 29.778Z" fill="#AEA6E1"/>
<path d="M140.746 28.0515C140.746 30.5669 140.758 33.0823 140.746 35.5862C140.746 36.2265 140.918 36.741 141.444 37.1183C141.855 37.4156 142.038 37.8157 141.867 38.3188C141.707 38.799 141.306 38.9591 140.849 39.0048C139.008 39.1992 137.156 39.0963 135.315 39.1077C134.869 39.1077 134.435 39.0048 134.241 38.5132C134.046 38.033 134.183 37.6099 134.515 37.2555C135.029 36.7181 135.247 36.0664 135.258 35.3347C135.292 31.6417 135.327 27.9486 135.384 24.2556C135.384 23.6725 135.19 23.2495 134.744 22.8722C133.749 22.0261 133.783 21.2258 134.927 20.5741C136.31 19.7966 137.682 18.9505 139.226 18.4932C140.175 18.2188 140.529 18.4589 140.655 19.4307C140.941 21.6488 140.735 23.8783 140.678 26.0964C140.666 26.7481 140.678 27.3884 140.678 28.0401C140.712 28.0401 140.735 28.0401 140.769 28.0401L140.746 28.0515Z" fill="#AEA6E1"/>
<path d="M66.2796 30.8529C66.1538 31.9391 66.2224 33.0253 66.2796 34.1C66.3139 34.6717 66.4054 35.2205 66.977 35.5063C67.5601 35.7922 68.0518 35.5063 68.5091 35.1748C68.7378 35.0033 68.9322 34.7975 69.1608 34.6145C69.4581 34.3858 69.7668 34.2029 70.1555 34.3973C70.5214 34.5802 70.59 34.9232 70.5443 35.2662C70.3042 36.9126 69.4124 38.1132 67.9489 38.8449C66.7255 39.4509 65.4221 39.5652 64.1187 39.1765C62.255 38.6391 61.4547 37.2213 61.1688 35.4263C60.8944 33.7227 61.0316 32.0077 60.963 30.3041C60.9173 29.378 60.9173 28.4404 60.9287 27.5029C60.9287 27.1256 60.7915 26.977 60.4256 26.9884C60.4028 26.9884 60.3913 26.9884 60.3685 26.9884C59.0536 26.9198 58.9965 26.8512 59.1222 25.5363C59.168 25.1133 59.3738 24.9304 59.7854 24.9304C60.1512 24.9304 60.5057 24.9418 60.8716 24.9304C62.0149 24.9075 62.8838 24.0957 62.9753 22.9524C63.1011 21.5003 63.1011 21.5118 64.576 21.5003C66.1653 21.4775 65.9252 21.6604 66.0166 22.8152C66.0624 23.3411 66.0967 23.8785 66.131 24.4044C66.1538 24.8503 66.3711 25.0447 66.8284 25.0218C67.4801 24.999 68.1204 25.0218 68.7721 25.0333C69.3666 25.0447 69.5153 25.2276 69.5267 25.9136C69.5496 26.6911 69.3552 27.0341 68.8178 27.057C68.1318 27.0799 67.4458 27.0456 66.7598 27.0341C66.4282 27.0341 66.2453 27.0799 66.2682 27.5143C66.3139 28.6119 66.2796 29.721 66.2796 30.8186V30.8529Z" fill="#AEA6E1"/>
<path d="M29.6587 11.0043C28.8012 11.0043 27.9437 11.0272 27.0976 10.9128C26.4116 10.8214 26.0914 10.3983 26.2515 9.72377C26.6974 7.70004 27.715 5.97359 29.1099 4.4758C30.1389 3.37819 31.5566 2.96659 32.9972 2.71505C35.5698 2.25771 38.1423 2.31488 40.7034 2.88655C40.8292 2.92085 40.9549 2.96659 41.0921 3.00089C41.5952 3.11522 41.6981 3.37819 41.4351 3.8241C40.1089 6.06506 38.5196 8.10021 36.4616 9.72377C35.3754 10.5698 34.0606 10.7185 32.7571 10.8785C31.7396 11.0043 30.7106 11.05 29.6815 11.0043H29.6587Z" fill="#AEA6E1"/>
</svg>
