<svg width="44" height="51" viewBox="0 0 44 51" fill="none" xmlns="http://www.w3.org/2000/svg">
<g id="ups-logo-1 1">
<g id="Group">
<path id="Vector" d="M2.29297 6.70824V29.9343C2.29297 34.8482 4.13446 38.9227 7.59646 41.7702C10.7793 44.3948 20.8843 48.8047 22.057 49.363C23.2298 48.8609 33.3347 44.4491 36.5176 41.8264C39.9796 38.9789 41.8211 34.9044 41.8211 29.9905V6.71018C36.3489 3.75216 29.706 2.30029 22.057 2.30029C14.408 2.30029 7.7651 3.8045 2.29297 6.70824ZM39.9776 7.21029H39.9214V29.9323C39.9214 34.3422 38.3591 37.8605 35.2867 40.3726C32.5516 42.6619 24.2881 46.3468 21.9989 47.3509C19.6534 46.2906 11.3919 42.5495 8.71105 40.3726C5.69682 37.8605 4.07631 34.288 4.07631 29.9323V16.6445C12.5627 8.88508 22.8343 6.81873 32.3829 6.81873C35.0095 6.81873 37.5217 6.98737 39.9776 7.21029Z" fill="#AEA6E1"/>
<path id="Vector_2" d="M10.9458 34.0633C13.0664 34.0633 14.7974 33.5612 16.1388 32.6676V17.7612H12.733V30.6575C12.3415 30.9366 11.7832 31.1033 11.1145 31.1033C9.55209 31.1033 9.32724 29.6514 9.32724 28.7036V17.7612H5.86523V28.5931C5.86523 32.2218 7.54002 34.0633 10.9458 34.0633Z" fill="#AEA6E1"/>
<path id="Vector_3" d="M33.0552 26.7497C34.5633 27.6433 35.1758 28.2578 35.1758 29.3181C35.1758 30.4908 34.3946 31.2158 33.1095 31.2158C31.9929 31.2158 30.7097 30.6013 29.8161 29.8201V33.003C30.9326 33.6175 32.2721 34.0633 33.6135 34.0633C37.0192 34.0633 38.5273 31.6636 38.5816 29.4848C38.6378 27.4747 38.0795 25.9666 35.232 24.2918C34.0031 23.5106 32.9428 23.0086 32.999 21.7796C32.999 20.6069 34.0593 20.161 35.0091 20.161C36.1818 20.161 37.3546 20.8317 38.0796 21.5567V18.5425C37.4651 18.0966 36.1818 17.3697 34.2822 17.4259C31.9929 17.4821 29.6475 19.1007 29.6475 21.892C29.7056 23.7355 30.2077 25.0749 33.0552 26.7497Z" fill="#AEA6E1"/>
<path id="Vector_4" d="M21.2759 33.784C21.6113 33.8403 22.1133 33.9507 22.8383 33.9507C26.6899 33.9507 28.8687 30.545 28.8687 25.5206C28.8687 20.5524 26.6356 17.4258 22.5049 17.4258C20.6072 17.4258 19.0991 17.8716 17.8701 18.6547V41.0434H21.3321L21.2759 33.784ZM22.5029 20.219C24.5131 20.219 25.3504 21.7814 25.3504 25.635C25.3504 29.3761 24.4006 31.2176 22.4467 31.2176C22.0009 31.2176 21.5531 31.1052 21.3302 30.9947L21.274 20.442C21.555 20.3295 22.0571 20.219 22.5029 20.219Z" fill="#AEA6E1"/>
</g>
</g>
</svg>
