<svg width="160" height="49" viewBox="0 0 160 49" fill="none" xmlns="http://www.w3.org/2000/svg">
<g id="uvm 1">
<path id="Vector" d="M36.9495 8.80313C36.9697 15.5304 36.9495 23.5304 36.9495 30.8233C36.9495 35.793 25.7172 35.3284 25.7172 35.3284C25.7172 35.3284 15.1717 35.793 15.1717 30.8233V8.80313C13.1515 6.23747 10.3838 5.28798 6 5.32838C6 15.1062 6 21.4496 6 30.8031C6 39.793 14.505 43.4092 25.7374 43.3486C36.9697 43.288 45.697 39.9546 45.697 30.8031V5.32838C41.2727 5.28798 39.0101 6.23747 36.9495 8.80313Z" fill="#AEA6E1"/>
<path id="Vector_2" d="M154.081 5.32861C154.081 5.32861 148.95 5.32861 144.99 8.80336L129.939 24.965L114.444 8.80336C110.404 5.32861 105.616 5.32861 105.616 5.32861C105.616 5.32861 105.616 43.2276 105.616 43.3892H114.404V20.6215L129.899 37.5508L144.95 20.6215V43.3892H154.081V5.32861Z" fill="#AEA6E1"/>
<path id="Vector_3" d="M90.0804 8.80336C90.0804 8.80336 79.8784 23.9751 75.2724 30.864C70.1814 23.8943 65.3734 15.9347 60.4845 8.80336C56.3835 5.32861 52.4037 5.32861 47.7168 5.32861C47.8178 5.51043 63.4138 31.4902 71.3936 43.3892C71.3936 43.3892 75.6158 43.3892 78.9289 43.3892C86.9491 31.268 95.0905 17.3488 103.272 5.32861C99.1511 5.32861 94.4239 5.32861 90.0804 8.80336Z" fill="#AEA6E1"/>
</g>
</svg>
